<svg height="512pt" viewBox="-3 0 512 512" width="512pt" xmlns="http://www.w3.org/2000/svg"><g fill-rule="evenodd"><path d="m411.53125 267.644531 86.914062-44.425781c0-12.664062-6.273437-23.289062-15.871093-30.25l-71.042969-53.21875-43.628906 63.933594zm0 0" fill="#e6a235"/><path d="m87.597656 264.121094 62.363282-55.65625-62.363282-68.714844-57.351562 46.945312c-3.066406 2.523438-6.246094 5.015626-9.253906 7.5625-8.222657 6.988282-13.433594 17.386719-13.433594 28.960938zm0 0" fill="#e6a235"/><path d="m346.074219 7.558594h-241.203125c-9.511719 0-17.273438 7.761718-17.273438 17.242187v285.523438l102.125 52.1875 15.179688 7.761719c46.265625 22.773437 48.101562 24.605468 96.226562 0l13.808594-7.074219 96.59375-49.382813v-228.0625c0-4.066406 0-7.476562-.171875-10.425781zm0 0" fill="#eceff1"/><path d="m16.066406 490.351562 133.375-60.527343 40.277344-113.484375-102.121094-52.21875-80.039062-40.902344v243.214844c0 9.050781 3.179687 17.386718 8.507812 23.917968zm0 0" fill="#ffdda6"/><path d="m314.933594 317.027344 31.914062 112.796875 142.144532 61.644531c5.871093-6.703125 9.453124-15.46875 9.453124-25.035156v-243.214844l-86.914062 44.425781zm0 0" fill="#ffdda6"/><path d="m189.722656 316.339844-81.5 81.664062-92.15625 92.347656c6.988282 8.589844 17.644532 14.089844 29.503906 14.089844h414.859376c11.34375 0 21.574218-5.039062 28.5625-12.972656l-174.058594-174.441406-13.804688 7.074218c-48.128906 24.605469-49.960937 22.742188-96.226562 0zm0 0" fill="#fcc368"/><path d="m87.597656 264.121094 102.125 52.21875 15.179688 7.761718c46.265625 22.742188 48.101562 24.605469 96.226562 0l13.808594-7.074218 96.59375-49.382813v-40.875l-96.59375 49.410157-13.808594 7.046874c-48.125 24.605469-49.960937 22.769532-96.226562 0l-15.179688-7.734374-102.125-52.21875zm0 0" fill="#c4cccf"/><path d="m459.742188 243.011719v184.609375c0 9.566406-3.578126 18.332031-9.480469 25.035156l38.730469 38.8125c5.871093-6.703125 9.453124-15.46875 9.453124-25.035156v-243.214844zm0 0" fill="#fcc368"/><path d="m488.992188 491.46875-38.730469-38.816406c-5.613281 6.417968-13.347657 10.945312-22.085938 12.433594-2.089843.371093-4.269531.570312-6.445312.570312h-381l-24.664063 24.695312c6.988282 8.589844 17.644532 14.089844 29.503906 14.089844h414.859376c11.34375 0 21.574218-5.039062 28.5625-12.972656zm0 0" fill="#e6a235"/><path d="m7.558594 466.433594c0 9.050781 3.179687 17.386718 8.507812 23.917968l24.664063-24.691406h-33.171875zm0 0" fill="#fcc368"/><path d="m346.015625 58.027344c0 9.507812 7.765625 17.300781 17.273437 17.300781h48.070313c-.574219-11.085937-3.035156-16.070313-13.550781-27.46875l-22.429688-24.378906c-11.402344-12.402344-12.433594-15.921875-29.304687-15.921875zm0 0" fill="#90a4ae"/></g><path d="m487.054688 186.882812-67.964844-50.914062v-50.214844c0-20.589844-.625-26.652344-15.71875-43.011718l-22.429688-24.375c-1.253906-1.367188-2.382812-2.625-3.417968-3.777344-9.316407-10.375-13.800782-14.58593775-31.4375-14.589844h-.003907c-.003906 0-.003906 0-.007812 0h-241.203125c-13.691406 0-24.832032 11.125-24.832032 24.800781v111.367188l-54.59375 44.691406c-1.152343.949219-2.324218 1.890625-3.492187 2.835937-1.925781 1.554688-3.917969 3.164063-5.855469 4.804688-10.230468 8.695312-16.097656 21.351562-16.097656 34.71875v243.214844c0 25.125 20.441406 45.566406 45.570312 45.566406h414.859376c25.128906 0 45.574218-20.441406 45.574218-45.566406v-243.214844c0-14.339844-6.90625-27.582031-18.949218-36.335938zm-9.011719 12.136719c.03125.019531.0625.042969.09375.066407 6.929687 5.023437 11.21875 11.902343 12.40625 19.683593l-71.453125 36.53125v-100.449219zm-111.769531-174.335937c1.074218 1.199218 2.242187 2.5 3.542968 3.917968l22.4375 24.382813c5.996094 6.496094 8.921875 10.269531 10.351563 14.789063h-39.316407c-5.355468 0-9.714843-4.371094-9.714843-9.738282l.046875-42.589844c4.988281.703126 6.925781 2.859376 12.652344 9.238282zm-261.402344-9.570313h233.636718l-.046874 42.914063c0 13.707031 11.140624 24.859375 24.828124 24.859375h40.683594c.003906.910156.003906 1.863281.003906 2.867187v177.277344l-92.207031 47.140625c-.1875.085937-.371093.179687-.550781.28125l-13.53125 6.917969c-43.8125 22.402344-43.8125 22.402344-86.792969 1.253906l-2.605469-1.28125-15.03125-7.683594c-.023437-.011718-.050781-.027344-.078124-.039062l-98.027344-50.113282v-119.730468c0-.003906 0-.003906 0-.003906v-114.972657c0-5.339843 4.359375-9.6875 9.71875-9.6875zm-78.992188 184.910157c1.789063-1.515626 3.710938-3.066407 5.566406-4.566407 1.207032-.972656 2.414063-1.945312 3.585938-2.910156l45.007812-36.84375v96.082031l-64.585937-33.015625c1.074219-7.246093 4.738281-13.910156 10.425781-18.746093zm19.691406 296.863281c-7.101562 0-13.636718-2.449219-18.824218-6.539063l81.582031-81.738281c2.949219-2.953125 2.945313-7.738281-.011719-10.683594-2.953125-2.953125-7.738281-2.945312-10.6875.007813l-80.136718 80.289062c-1.53125-3.628906-2.378907-7.613281-2.378907-11.789062v-230.867188l161.929688 82.78125-56.09375 56.214844c-2.949219 2.953125-2.945313 7.738281.011719 10.6875 1.472656 1.472656 3.402343 2.207031 5.335937 2.207031 1.9375 0 3.875-.742187 5.347656-2.21875l59.535157-59.664062 10.285156 5.253906c.03125.019531.070312.035156.105468.054687l2.652344 1.304688c22.582032 11.109375 35.019532 17.230469 48.808594 17.234375h.007812c13.671876 0 26.8125-5.957031 51.527344-18.59375l8.914063-4.558594 57.894531 58.046875c1.476562 1.480469 3.410156 2.222656 5.351562 2.222656 1.929688 0 3.859376-.734374 5.335938-2.207031 2.953125-2.949219 2.960938-7.734375.015625-10.6875l-54.457031-54.605469 163.265625-83.472656v230.863282c0 4.730468-1.082031 9.214843-3.019531 13.210937l-82.617188-82.796875c-2.949219-2.953125-7.734375-2.960938-10.6875-.011719s-2.960938 7.734375-.011719 10.6875l83.527344 83.707031c-4.984375 3.554688-11.074219 5.65625-17.648437 5.65625h-414.859376zm0 0"/><path d="m227.535156 150.285156h111.289063c4.175781 0 7.558593-3.382812 7.558593-7.558594 0-4.171874-3.382812-7.554687-7.558593-7.554687h-111.289063c-4.175781 0-7.558594 3.382813-7.558594 7.554687 0 4.175782 3.382813 7.558594 7.558594 7.558594zm0 0"/><path d="m227.535156 119.261719h143.085938c4.175781 0 7.558594-3.382813 7.558594-7.554688 0-4.175781-3.382813-7.558593-7.558594-7.558593h-143.085938c-4.175781 0-7.558594 3.382812-7.558594 7.558593 0 4.171875 3.382813 7.554688 7.558594 7.554688zm0 0"/><path d="m131.429688 136.589844 14.292968 12.917968c1.394532 1.257813 3.199219 1.953126 5.066406 1.953126.132813 0 .261719-.003907.394532-.011719 2.003906-.105469 3.886718-1.003907 5.226562-2.496094l34.664063-38.582031c2.789062-3.105469 2.535156-7.882813-.570313-10.671875-3.105468-2.789063-7.882812-2.535157-10.671875.570312l-29.597656 32.945313-8.671875-7.835938c-3.097656-2.800781-7.875-2.558594-10.671875.539063-2.800781 3.09375-2.558594 7.875.539063 10.671875zm0 0"/><path d="m227.535156 221.007812h111.289063c4.175781 0 7.558593-3.386718 7.558593-7.558593 0-4.175781-3.382812-7.558594-7.558593-7.558594h-111.289063c-4.175781 0-7.558594 3.382813-7.558594 7.558594 0 4.171875 3.382813 7.558593 7.558594 7.558593zm0 0"/><path d="m227.535156 189.984375h143.085938c4.175781 0 7.558594-3.382813 7.558594-7.554687 0-4.175782-3.382813-7.558594-7.558594-7.558594h-143.085938c-4.175781 0-7.558594 3.382812-7.558594 7.558594 0 4.171874 3.382813 7.554687 7.558594 7.554687zm0 0"/><path d="m131.433594 207.347656 14.296875 12.890625c1.390625 1.253907 3.195312 1.941407 5.058593 1.941407.132813 0 .265626 0 .398438-.007813 2.003906-.105469 3.882812-1.003906 5.222656-2.496094l34.664063-38.582031c2.789062-3.105469 2.535156-7.882812-.570313-10.671875-3.105468-2.789063-7.882812-2.535156-10.671875.570313l-29.605469 32.949218-8.671874-7.820312c-3.097657-2.792969-7.878907-2.546875-10.671876.550781-2.792968 3.101563-2.546874 7.878906.550782 10.675781zm0 0"/></svg>