<?xml version="1.0" encoding="UTF-8"?>
<svg id="Layer_2" data-name="Layer 2" xmlns="http://www.w3.org/2000/svg" viewBox="0 0 2737.39 2489.66">
  <defs>
    <style>
      .cls-1 {
        opacity: .3;
      }

      .cls-2 {
        opacity: .25;
      }

      .cls-3 {
        opacity: .35;
      }

      .cls-4 {
        opacity: .6;
      }

      .cls-5 {
        opacity: .5;
      }

      .cls-6 {
        opacity: .7;
      }

      .cls-7 {
        fill: #293856;
      }

      .cls-7, .cls-8, .cls-9, .cls-10, .cls-11, .cls-12, .cls-13, .cls-14, .cls-15 {
        stroke-width: 0px;
      }

      .cls-8 {
        fill: #371a45;
      }

      .cls-9 {
        fill: #4089ff;
      }

      .cls-10 {
        fill: #21102b;
      }

      .cls-11 {
        fill: #22a7f0;
      }

      .cls-12 {
        fill: #fff;
      }

      .cls-13 {
        fill: #ff2c27;
      }

      .cls-14 {
        fill: #ffc41d;
      }

      .cls-15 {
        fill: #ffd39f;
      }
    </style>
  </defs>
  <g id="Layer_1-2" data-name="Layer 1">
    <g>
      <path class="cls-12" d="m1191.51,1004.89l-71.92,131.22-30.89,56.4s-10.28.7-28.15.5c-86.75-1.05-352.72-24.16-490.22-257.89-113.8-193.45-44.17-284.84,65.48-282.49,26.5.6,51.56,12.48,79.41,32.39,68.58,48.91,154.08,146.19,319.38,241.87,45.77,26.5,97.62,52.86,156.92,78.01Z"/>
      <path class="cls-8" d="m726.59,1110.69c-5.08,0-9.9-2.99-11.99-7.97-2.77-6.61.33-14.21,6.94-17h0c6.16-2.61,151.1-66.13,165.4-257,.54-7.16,6.83-12.48,13.93-11.98,7.15.53,12.52,6.77,11.98,13.93-15.52,207.2-174.48,276.18-181.24,279.01-1.64.69-3.34,1.01-5.02,1.01Z"/>
      <g class="cls-2">
        <path class="cls-8" d="m1191.51,1004.89l-71.92,131.22-30.89,56.4s-10.28.7-28.15.5c-86.75-1.05-352.72-24.16-490.22-257.89-52.46-89.14-65.93-156.62-54.5-203.24,6.99,37.08,24.31,81.25,54.5,132.56,137.5,233.73,403.48,256.84,490.22,257.89,17.87.2,28.15-.5,28.15-.5l30.89-56.4,40.68-74.22c10.18,4.59,20.61,9.13,31.24,13.68Z"/>
      </g>
      <path class="cls-8" d="m1066.73,1210.39c-33.83,0-101.18-3.2-179.52-24.15-146.92-39.29-261.67-123.11-331.82-242.37-78.31-133.12-66.74-208.84-43.24-248.92,23.27-39.68,67.48-60.9,124.04-59.65,53.64,1.15,99.8,41.35,163.68,96.99,82.76,72.08,196.1,170.8,398.41,256.67,8.81,3.74,12.91,13.91,9.18,22.71-3.74,8.8-13.91,12.92-22.71,9.18-207.38-88.02-323.12-188.83-407.63-262.43-60.57-52.75-100.58-87.6-141.67-88.48-43.66-.97-76.79,14.17-93.41,42.53-26.58,45.33-11.23,121.27,43.22,213.83,66.2,112.54,170.43,188.64,309.82,226.18,104.99,28.28,191.56,22.79,192.42,22.74,9.47-.75,17.8,6.55,18.46,16.09.65,9.54-6.54,17.81-16.07,18.47-1.08.08-9.32.61-23.16.61Z"/>
      <path class="cls-12" d="m1798.58,1642.5c-67.23,77.01-202.34,96.48-236.98,148.53-30.39,45.67-19.51,103.86-16.57,164.85,2.5,52.21-6.44,120.54-50.31,179.73-66.43,89.54-192.51,98.87-260.83,41.93-78.01-65.03,18.92-228.59,32.99-248.76,0,0-21.31-26.15-41.13-49.71-14.42-17.17-24.56-41.58-29.85-69.38-158.12-8.73-284.29,118.44-367.99,141.1-92.93,25.16-193.8-41.48-261.43-171.54-55.6-106.96-15.12-201.54,67.23-211.47,62.94-7.54,171.64,78.31,171.64,78.31,0,0,49.41-215.52,237.03-190.26,0,0,20.46-106.31,18.17-262.83-.35-24.46-1.25-50.21-2.9-76.91-3.59-58.94-10.68-122.78-23.06-189.21-1.4-7.19-2.8-14.37-4.24-21.61l591.79-40.28c10.43,11.78,20.41,23.66,30.05,35.64,9.13,11.38,17.92,22.81,26.35,34.29,41.78,56.85,75.42,115.49,101.72,173.69,102.47,226.75,93.68,447.5,18.32,533.9Z"/>
      <path class="cls-12" d="m1298.37,1834.85c-206.33-91.19-369.39,88.59-470.46,115.94-92.93,25.16-193.8-41.48-261.43-171.54-20.76-39.93-28.1-78.11-24.91-110.85,5.34-54.9,40.53-94.38,92.14-100.62,62.94-7.54,171.64,78.31,171.64,78.31,0,0,49.41-215.52,237.03-190.26,0,0,48.46-251.75-12.03-550.57l192.01,665.91,76.01,263.68Z"/>
      <g class="cls-2">
        <path class="cls-8" d="m1298.37,1834.85c-206.33-91.19-369.39,88.59-470.46,115.94-92.93,25.16-193.8-41.48-261.43-171.54-20.76-39.93-28.1-78.11-24.91-110.85,90.19,153.48,390.15,24.66,455.19-29.1,60.54-50.06,229.9-100.21,347.79-96.91l-46.18,292.46Z"/>
      </g>
      <path class="cls-8" d="m1041.04,1853.64c-.62,0-1.25-.04-1.89-.14-7.1-1.04-12.01-7.64-10.98-14.74,33.33-228.12-147.35-321.16-149.18-322.08-6.42-3.21-9.02-11.01-5.82-17.43,3.21-6.42,11.01-9.01,17.43-5.82,2.06,1.03,50.87,25.78,95.58,81.24,41.26,51.18,86.5,139.2,67.71,267.85-.94,6.46-6.49,11.11-12.84,11.11Z"/>
      <path class="cls-8" d="m787.98,1973.47c-87.51,0-175.22-67.69-236.87-186.24-32.49-62.49-36.59-125.86-11.24-173.87,18.81-35.62,51.39-57.92,91.74-62.76,53.09-6.42,128.2,41.2,164.43,66.96,19.98-56.69,83.27-190.48,231.88-180.58,9.05-59.07,36.07-278.23-14.58-528.26-1.9-9.38,4.16-18.52,13.54-20.42,9.32-1.9,18.51,4.16,20.41,13.54,60.51,298.7,12.55,554.73,12.06,557.28l-3.1,16.07-16.22-2.18c-169.48-22.81-215.9,168.8-217.79,176.97l-6.16,26.61-21.45-16.89c-28.71-22.64-113.32-80.06-158.89-74.7-28.73,3.46-51.89,19.28-65.24,44.55-19.97,37.81-15.83,89.46,11.34,141.71,64.17,123.41,156.73,185.79,241.51,162.84,26.1-7.07,58.05-25.98,95.04-47.88,97.24-57.55,230.39-136.37,386.99-67.18,8.75,3.87,12.71,14.1,8.84,22.85-3.87,8.75-14.1,12.71-22.85,8.84-140.29-62-259.53,8.58-355.34,65.3-39.17,23.18-72.99,43.21-103.64,51.5-14.72,3.99-29.58,5.94-44.43,5.94Z"/>
      <g>
        <path class="cls-13" d="m451.22,1838.85l-199.02,43.4c-161.03,35.11-263.1,194.12-227.99,355.14h0c35.11,161.03,194.12,263.1,355.14,227.99l199.02-43.4-127.16-583.13Z"/>
        <g class="cls-4">
          <path class="cls-12" d="m578.36,2410.26l-5.09,1.1-109.1-500.36-198.99,43.37c-140.75,30.69-236.48,155.97-234.88,294.57-2.35-7.64-4.34-15.37-6.09-23.31-35.09-161.01,66.98-320.03,227.99-355.12l199.04-43.42,127.12,583.16Z"/>
        </g>
        <g class="cls-1">
          <path class="cls-8" d="m36.99,2186.11c.67,3.76,1.4,7.52,2.23,11.29,17.56,80.51,66.08,146.3,130.35,187.56,64.27,41.26,144.29,57.98,224.8,40.43l176.36-38.46-27.19-124.69-199.01,43.4c-120.8,26.34-240.48-24.52-307.54-119.53,0,0,0,0,0,.01Z"/>
        </g>
        <path class="cls-8" d="m315.15,2489.66c-59.8,0-118.42-17.07-169.94-50.14-70.97-45.56-119.95-116.04-137.92-198.43-37.09-170.1,71.12-338.67,241.22-375.76l199.02-43.4c4.48-.99,9.18-.13,13.05,2.34,3.86,2.49,6.59,6.4,7.56,10.89l127.16,583.13c2.04,9.35-3.89,18.58-13.23,20.62l-199.02,43.4c-22.58,4.93-45.33,7.36-67.9,7.36Zm122.84-630.2l-182.09,39.71c-151.44,33.03-247.77,183.1-214.76,334.53,16,73.36,59.6,136.1,122.79,176.66,63.18,40.57,138.39,54.09,211.74,38.09l182.09-39.71-119.78-549.28Z"/>
        <rect class="cls-9" x="546.6" y="1636.13" width="1729.64" height="597.18" transform="translate(-379.8 345.13) rotate(-12.3)"/>
        <g class="cls-5">
          <polygon class="cls-12" points="2204.94 1517.19 2319.98 2042.42 2332.5 2039.71 2204.94 1457.3 510.61 1825.14 523.13 1882.31 2204.94 1517.19"/>
        </g>
        <g class="cls-1">
          <polygon class="cls-8" points="2281.27 1864.6 591.33 2233.11 624.19 2383.83 621.05 2369.41 2305 2002.2 2275.28 1865.91 2281.27 1864.6 2320 2042.2 630.06 2410.71 630.06 2410.71 2320 2042.2 2281.27 1864.6"/>
        </g>
        <path class="cls-8" d="m630.07,2428.03c-3.29,0-6.54-.94-9.36-2.75-3.86-2.48-6.59-6.4-7.56-10.88l-127.23-583.47c-2.04-9.35,3.89-18.58,13.23-20.62l1689.93-368.51c3-.66,6.13-.5,9.06.45l.66.21c6.2,2.02,10.74,7.35,11.75,13.79,1.01,6.45-1.69,12.91-6.98,16.72-29.78,21.48-43.96,58.55-36.13,94.45,3.82,17.5,12.53,33.36,25.21,45.87,7.47,7.37,11.58,17.54,11.31,27.9-.27,10.38-4.73,19.92-12.54,26.87-29.21,25.94-42.19,65.76-33.88,103.92,8.32,38.16,36.71,68.97,74.08,80.42,10,3.06,18.02,9.88,22.59,19.21,4.56,9.31,5.04,20.26,1.33,30.07-6.31,16.66-7.64,34.71-3.82,52.21,7.82,35.87,36.15,63.7,72.16,70.9,6.6,1.32,11.83,6.33,13.43,12.86,1.6,6.53-.72,13.4-5.96,17.62l-.08.06c-2.16,1.77-4.9,3.2-7.57,3.78l-1689.93,368.51c-1.22.27-2.46.4-3.69.4Zm-106.62-587.56l119.85,549.62,1622.92-353.9c-24.17-17.95-41.7-44.3-48.37-74.91-5.25-24.07-3.42-48.92,5.28-71.88.43-1.14.21-2.01-.04-2.54-.33-.66-.85-1.1-1.63-1.33-49.33-15.11-86.8-55.79-97.78-106.17-10.98-50.38,6.15-102.95,44.72-137.21.6-.53.9-1.14.92-1.88.01-.59-.15-1.46-1.02-2.32-17.46-17.24-29.47-39.08-34.72-63.14-6.68-30.62-1.71-61.88,12.81-88.25l-1622.94,353.9Z"/>
        <path class="cls-15" d="m2702.58,1699.78l-82.44,73.81-168.92,151.16-130.74,117.04c-41.45-8.28-76.11-40.26-85.69-84.2-4.69-21.51-2.71-42.88,4.56-62.04,2.86-7.52,1.11-15.52-3.86-20.97-2.28-2.52-5.32-4.51-8.94-5.61-41.99-12.86-75.92-47.35-85.93-93.29-10.01-45.89,6.47-91.42,39.3-120.55,8.81-7.85,8.96-21.21.57-29.5-14.58-14.39-25.28-33-29.97-54.51-9.58-43.94,8.62-87.44,42.91-112.19l167.54,51.94,216.48,67.17,105.74,32.78c14.95,4.61,25.83,14.9,31.7,27.31,9.37,19.77,6.28,44.96-12.31,61.63Z"/>
        <g class="cls-6">
          <path class="cls-12" d="m2710.8,1690.5c-.05-.2-.15-.4-.25-.6-5.84-12.38-16.72-22.71-31.69-27.3l-105.71-32.79-216.51-67.13-167.55-51.96c-18.62,13.43-32.49,32.39-39.73,53.95-6.59-41.68,11.48-82.2,44.07-105.71l167.55,51.91,216.46,67.18,105.76,32.79c14.92,4.59,25.8,14.87,31.69,27.3,7.79,16.37,6.99,36.48-4.09,52.36Z"/>
        </g>
        <g class="cls-1">
          <path class="cls-8" d="m2250.7,1995.12c11.95,8.05,25.44,13.8,39.77,16.67l130.74-117.04,179.39-147.46,71.97-77.52c4.89-4.38,8.68-9.37,11.48-14.68l1.25-.69-306.09,168.34c-40.91,22.51-84.83,38.98-130.47,48.94l-13.27,2.89c4.97,5.45,6.71,13.45,3.86,20.97-7.26,19.16-9.24,40.53-4.55,62.04,3.75,17.22,11.4,32.56,21.76,45.4-2.05-2.54-4.02-5.14-5.84-7.87Z"/>
        </g>
        <path class="cls-8" d="m2702.58,1699.78l-82.44,73.81c-22.76-20.99-41.1-53.31-49.47-91.69-8.36-38.33-5.13-75.3,6.78-103.85l105.74,32.78c38.84,12.02,49.69,61.8,19.4,88.95Z"/>
        <path class="cls-8" d="m2320.47,2059.12c-1.13,0-2.27-.11-3.39-.34-49.52-9.89-88.46-48.16-99.22-97.49-5.25-24.07-3.42-48.92,5.28-71.88.43-1.14.21-2.01-.04-2.54-.33-.66-.85-1.1-1.63-1.33-49.33-15.11-86.8-55.79-97.78-106.17-10.98-50.38,6.15-102.95,44.72-137.21.6-.53.9-1.14.92-1.88.01-.59-.15-1.46-1.02-2.32-17.46-17.24-29.47-39.08-34.72-63.14-10.77-49.38,8.75-100.37,49.7-129.93,4.41-3.18,10.06-4.1,15.27-2.5l489.76,151.89c24.26,7.5,41.98,26.8,47.41,51.62,5.43,24.84-2.64,49.8-21.59,66.77,0,0,0,0,0,0l-382.11,342.01c-3.2,2.87-7.33,4.42-11.55,4.42Zm-123.47-580.92c-25.25,21.95-36.8,56.1-29.57,89.25,3.82,17.5,12.53,33.36,25.21,45.87,7.47,7.37,11.59,17.54,11.31,27.9-.27,10.38-4.73,19.92-12.54,26.87-29.21,25.94-42.19,65.76-33.88,103.92,8.32,38.16,36.71,68.97,74.08,80.42,10,3.06,18.02,9.88,22.59,19.21,4.56,9.31,5.04,20.26,1.33,30.07-6.31,16.66-7.64,34.71-3.82,52.21,7.22,33.12,31.92,59.39,64.02,68.89l375.3-335.92h0c9.53-8.53,13.58-21.08,10.85-33.56-2.72-12.46-11.63-22.15-23.81-25.92l-481.06-149.19Zm505.58,221.59h.05-.05Z"/>
        <path class="cls-14" d="m590.27,2466.75c-63.78,13.91-125.13-16.89-138.21-69.41-16.55-66.5-38.78-158.12-56.85-241.01-18.08-82.89-36.02-175.45-48.65-242.8-9.98-53.2,32.98-106.74,96.76-120.65h0c66.01-14.39,128.89,19.07,139.23,74.12,12.58,66.91,30.11,157.1,47.76,238.07,17.66,80.97,39.27,170.27,55.69,236.34,13.51,54.36-29.73,110.96-95.74,125.35h0Z"/>
        <g class="cls-4">
          <path class="cls-12" d="m587.79,1894.64c-20.51-28.35-57.45-45.72-98.67-45.72-10.53,0-21.36,1.1-32.24,3.49-56.7,12.38-97.73,54.55-102.72,101.07-2.7-14.08-5.24-27.45-7.59-39.98-9.98-53.2,32.94-106.71,96.73-120.63,10.38-2.25,20.71-3.34,30.75-3.34,53.75,0,99.82,31.09,108.51,77.46,1.65,8.83,3.39,18.07,5.24,27.65Z"/>
        </g>
        <g>
          <g class="cls-1">
            <path class="cls-8" d="m391.23,2132.15c.27,1.16.55,2.31.82,3.46-.28-1.15-.55-2.31-.82-3.46Z"/>
          </g>
          <g class="cls-1">
            <path class="cls-8" d="m387.65,2117.05s0,.02,0,.04c0-.01,0-.03,0-.04Z"/>
          </g>
          <g class="cls-1">
            <path class="cls-8" d="m383.34,2098.69c.25,1.06.5,2.11.74,3.17-.25-1.06-.49-2.11-.74-3.17Z"/>
          </g>
          <g class="cls-1">
            <path class="cls-8" d="m399.1,2165.09c.24,1.01.49,2.01.73,3.02-.24-1-.48-2.01-.73-3.02Z"/>
          </g>
          <g class="cls-1">
            <path class="cls-8" d="m675.54,2298.99c-6.07-24.84-12.52-51.58-18.99-79.03h0c6.46,27.45,12.92,54.19,18.99,79.03Z"/>
          </g>
          <g class="cls-1">
            <path class="cls-8" d="m452.07,2397.32c-.36-1.44-.73-2.94-1.1-4.41.36,1.46.74,2.97,1.1,4.41,4.03,16.25,12.71,30.41,24.64,41.82-11.93-11.41-20.61-25.57-24.64-41.82Z"/>
          </g>
          <g class="cls-1">
            <path class="cls-8" d="m406.91,2197.32c.11.46.22.92.34,1.39-.11-.46-.22-.92-.34-1.39Z"/>
          </g>
          <g class="cls-1">
            <path class="cls-8" d="m442.54,2358.8c13.84,51.6,74.57,81.72,137.73,67.94,65.98-14.39,109.27-70.98,95.73-125.34-5.98-24.09-12.67-51.31-19.58-80.05,0-.11.02-.23.03-.34-2.85,45.52-42.33,87.75-97.98,99.88-63.78,13.91-125.16-16.89-138.2-69.43-3-12.05-6.19-24.93-9.51-38.43-.15-.53-.36-1.04-.49-1.57-7.74-31.05-16.7-67.61-25.91-106.17-1.54-7.32-3.06-14.65-4.59-21.99,0,0,0,0,0-.01,5.11,24.58,10.27,49.2,15.46,73,14.87,68.18,32.5,142.25,47.53,203.39-.07-.3-.14-.58-.22-.88Z"/>
          </g>
          <g class="cls-1">
            <path class="cls-8" d="m536.11,2467.95c17.09,3.01,35.51,2.86,54.16-1.21,14.43-3.15,27.78-8.31,39.69-15.04-11.9,6.72-25.25,11.89-39.69,15.04-18.65,4.07-37.07,4.21-54.16,1.21Z"/>
          </g>
          <g class="cls-1">
            <path class="cls-8" d="m514.97,2462.34c-4.41-1.6-8.73-3.34-12.83-5.4,4.1,2.06,8.42,3.8,12.83,5.4Z"/>
          </g>
          <g class="cls-1">
            <path class="cls-8" d="m639.8,2445.58c-3.16,2.16-6.44,4.21-9.84,6.13,3.4-1.92,6.68-3.97,9.84-6.13Z"/>
          </g>
          <g class="cls-1">
            <path class="cls-8" d="m446.5,2374.87c-.44-1.78-.88-3.55-1.32-5.35.44,1.8.88,3.57,1.32,5.35Z"/>
          </g>
          <g class="cls-1">
            <path class="cls-8" d="m648.88,2438.75c-2.9,2.39-5.93,4.66-9.08,6.83,3.16-2.16,6.19-4.44,9.08-6.83Z"/>
          </g>
          <g class="cls-1">
            <path class="cls-8" d="m449.43,2386.72c-.42-1.7-.85-3.42-1.27-5.14.43,1.72.85,3.44,1.27,5.14Z"/>
          </g>
          <g class="cls-1">
            <path class="cls-8" d="m477.06,2439.5c3.49,3.3,7.33,6.28,11.34,9.1-4-2.82-7.85-5.79-11.34-9.1Z"/>
          </g>
        </g>
        <g class="cls-2">
          <path class="cls-8" d="m582.06,1864.52c.18.83.3,1.62.48,2.45,8.88,47.26,20.21,106.04,32.35,164.99-5.69-24.45-11.2-49-16.39-72.8-8.2-37.6-16.36-77.14-23.99-115.43,3.4,6.46,5.94,13.42,7.54,20.78Z"/>
        </g>
        <g class="cls-2">
          <path class="cls-8" d="m654.18,2195.5c2.03,8.14,2.8,16.35,2.37,24.46-9-37.99-18.04-77.34-26.24-114.94-5.2-23.85-10.41-48.46-15.42-73.06,13.52,58.71,27.69,116.92,39.29,163.53Z"/>
        </g>
        <path class="cls-8" d="m559.1,2485.15c-58.58,0-108.88-33.1-121.6-84.19-15.83-63.59-38.56-157.1-56.95-241.44-18.41-84.44-36.67-178.88-48.74-243.24-11.57-61.66,36.01-122.3,108.3-138.07,39.69-8.66,80.15-1.9,110.99,18.54,24.68,16.35,41.08,40.31,46.18,67.47,11.81,62.84,29.67,155.08,47.68,237.64,17.99,82.51,40.16,173.84,55.59,235.92,6.67,26.82,1.73,55.43-13.9,80.57-19.54,31.42-53.51,54.4-93.2,63.06h0c-11.61,2.53-23.14,3.75-34.36,3.75Zm31.16-18.4h.05-.05Zm-116.13-662.24c-9.1,0-18.37.99-27.62,3.01-55.4,12.09-93.63,58.39-85.21,103.24,12.04,64.16,30.22,158.29,48.56,242.37,18.32,83.99,40.97,177.19,56.75,240.59,11.03,44.27,65.05,70.45,120.46,58.38h0c31.82-6.94,58.83-25.01,74.11-49.59,11.47-18.45,15.02-38.34,10.26-57.49-15.48-62.28-37.72-153.91-55.79-236.77-18.08-82.91-36-175.45-47.85-238.49-3.65-19.4-15.15-36-33.27-48-17.11-11.33-38.23-17.24-60.41-17.24Z"/>
      </g>
      <path class="cls-12" d="m1945.09,883c79.68,59.72,152.7,344.08,134.25,513.6-18.46,169.51-318.09,182.21-489.45,176.71-171.36-5.5-170.77-392.95-168.52-496.74,3.51-162.07,405.65-282.06,523.73-193.57Z"/>
      <g class="cls-2">
        <path class="cls-8" d="m1589.88,1573.31c171.36,5.5,470.98-7.22,489.47-176.72,2.4-22.2,3.26-46.35,2.71-71.72-47.32,37.21-113.26,4.09-121.21-41.4-49.09-280.83-153.67-388.6-204.26-425.49-154.16,21.61-332.91,110.76-335.21,218.6-2.28,103.78-2.86,491.23,168.5,496.73Z"/>
      </g>
      <path class="cls-8" d="m1649.67,1591.62c-20.36,0-40.52-.36-60.35-.99-170.78-5.48-189.39-324.66-185.28-514.43,1.41-65.3,57.48-128.17,157.87-177.04,126.42-61.54,312.83-90.52,393.57-30.01h0c91.13,68.3,158.91,365.55,141.08,529.34-17.02,156.27-240.21,193.14-446.88,193.14Zm173.82-721.49c-73.73,0-165.92,21-246.42,60.18-86.85,42.28-137.29,95.72-138.39,146.64-2.41,111.16,1.43,474.23,151.76,479.05,169.04,5.42,455.02-8.32,471.67-161.27,17.79-163.41-53.66-442.59-127.42-497.86h0c-24.11-18.07-63.86-26.74-111.21-26.74Z"/>
      <path class="cls-12" d="m1928.26,1167.42l76.05-30.32c17.19-6.85,36.53,2.88,41.18,20.79,15.98,61.63,40.58,189.37-21.43,215.52-75.16,31.69-101.8-55-115-174.12-1.52-13.72,6.39-26.76,19.21-31.87Z"/>
      <g class="cls-2">
        <path class="cls-8" d="m1909.21,1199.1c12.93,119.14,39.38,205.92,114.6,174.38,30.9-12.91,40.39-51.1,40.14-93.77-6.27,12.21-15.25,21.67-27.83,26.92-67.35,28.21-95.63-38.39-110.03-138.22-11.46,5.59-18.32,17.86-16.88,30.69Z"/>
      </g>
      <path class="cls-8" d="m1994.82,1397.35c-12.04,0-23.25-3.04-33.54-9.11-36.67-21.63-57.4-77.64-69.31-187.27-2.32-21.38,10.07-41.87,30.13-49.81l76.12-30.14c12.84-5.09,27.27-4.41,39.58,1.86,12.28,6.25,21.28,17.49,24.71,30.82,23.53,91.58,37.07,206.82-32.01,235.76-12.56,5.26-24.48,7.89-35.67,7.89Zm21.11-245.08c-1.51,0-3.18.26-4.96.97l-76.12,30.15c-5.62,2.22-9.09,7.92-8.44,13.85,3.74,34.41,15.11,139.13,52.46,161.16,10.09,5.95,22.6,5.66,38.23-.89,41.25-17.29,33.16-112.16,11.84-195.18-1.3-5.07-4.87-7.54-6.88-8.57-1.3-.66-3.46-1.48-6.14-1.48Zm-87.46,15h.05-.05Z"/>
      <path class="cls-8" d="m1969.19,916.46c-18.57,5.59-37.28,11.51-55.82,17.58-18.55,6.09-37.03,12.4-55.27,19.17h-.03c-4.5,1.68-9.49-.61-11.16-5.11-1.52-4.09.24-8.59,3.96-10.63,17.38-9.55,34.95-18.61,52.61-27.46,17.69-8.84,35.37-17.46,53.37-25.92,8.68-4.08,19.03-.36,23.11,8.32,4.08,8.68.36,19.03-8.33,23.12-.75.35-1.52.65-2.29.89l-.15.04Z"/>
      <path class="cls-12" d="m1054.37,1042.12l-24.03-136.87c11.66,46.55,19.36,92.49,24.03,136.87Z"/>
      <path class="cls-12" d="m1206.29,1274.2c-77.08-23.42,188.46,244.15,115.35,277.58-25.32,11.58-49.8,26.83-70.04,46.9-73.98,73.37-76.06,220.7-25.83,280.41,19.81,23.54,41.11,49.69,41.11,49.69-14.07,20.17-111.01,183.74-33.01,248.77,68.31,56.95,194.39,47.6,260.82-41.96,43.9-59.2,52.81-127.49,50.32-179.69-2.92-61.03-13.84-119.22,16.58-164.9,34.65-52.04,169.74-71.48,236.97-148.51,102.78-117.77,81.79-485.53-176.44-777.52"/>
      <path class="cls-12" d="m1555.52,1537.88c-77.08-23.42-160.77-19.52-233.88,13.91-25.32,11.58-49.8,26.83-70.04,46.9-73.98,73.37-76.06,220.7-25.83,280.41,19.81,23.54,41.11,49.69,41.11,49.69-14.07,20.17-111.01,183.74-33.01,248.77,68.31,56.95,194.39,47.6,260.82-41.96,43.9-59.2,52.81-127.49,50.32-179.69-2.92-61.03-13.84-119.22,16.58-164.9,34.65-52.04,169.74-71.48,236.97-148.51,102.78-117.77,81.79-485.53-176.44-777.52l-66.6,672.9Z"/>
      <g class="cls-2">
        <path class="cls-8" d="m1798.58,1642.5c-67.23,77.01-202.34,96.48-236.98,148.53-30.39,45.67-19.51,103.86-16.57,164.85,2.5,52.21-6.44,120.54-50.31,179.73-66.43,89.54-192.51,98.87-260.83,41.93-12.38-10.28-20.31-23.01-24.91-37.28,76.36,40.93,201.89,47.91,259.88-30.35,43.87-59.19,23.66-135.81,21.16-188.01-2.95-61.04-25.2-148.52,17.39-198.21,68.16-79.52,168.92-38.17,236.15-115.23,95.38-109.26,84.2-433.92-124.38-713.48l2.94-30c258.19,291.98,279.2,659.72,176.44,777.51Z"/>
      </g>
      <path class="cls-8" d="m1553.84,1543.4c-14.3-1.63-28.29-3.34-42.27-4.26-14-.72-27.85-1.39-41.66-.92-13.79.38-27.5,1.24-41.07,2.97-13.56,1.71-27.05,3.79-40.23,7.19-6.64,1.48-13.11,3.56-19.67,5.31-6.42,2.21-12.93,4.11-19.2,6.7-12.68,4.72-25.11,10.29-36.95,16.64-11.87,6.31-23.12,13.51-33.53,21.58-5.2,4.05-10.16,8.33-14.85,12.86-2.21,2.31-4.49,4.55-6.65,6.92-2.06,2.48-4.28,4.8-6.24,7.38-16.05,20.33-27.26,45.03-34.28,70.93-6.89,25.98-9.48,53.35-7.92,80.21,1.57,26.75,7.44,53.58,19.39,75.69,3.02,5.46,6.44,10.52,10.16,15.11l13.79,16.68,27.66,33.43,8.23,9.94-7.45,10.91c-2.46,3.6-5.24,8.15-7.81,12.48-2.58,4.43-5.14,8.9-7.59,13.45-4.93,9.08-9.58,18.33-13.94,27.7-8.74,18.72-16.19,37.96-21.81,57.4-5.48,19.41-9.16,39.24-8.66,58.07.27,18.87,5.35,36.25,16.16,48.8l1.99,2.39c.7.77,1.53,1.43,2.28,2.16,1.63,1.4,2.8,2.93,4.88,4.27,3.84,2.68,7.44,5.68,11.41,8.19,4.14,2.27,8.17,4.73,12.36,6.94l13.12,5.65c17.99,6.56,37.44,9.64,56.88,9.5,19.46-.14,38.93-3.48,57.4-9.75,18.56-6.11,35.67-16.01,50.94-27.94,30.77-23.59,52.35-59.1,65.34-96.71,6.24-18.99,10.58-38.74,12.48-58.87,1.08-10.04,1.5-20.18,1.53-30.31.05-5.07-.15-10.14-.32-15.21l-.91-15.73c-1.33-21.08-3.32-42.69-3.39-65.19-.1-11.22.57-22.76,2.11-34.39,1.5-11.62,4.3-23.47,8.75-34.91,1.05-2.88,2.18-5.73,3.6-8.49,1.4-2.76,2.56-5.63,4.18-8.27l4.79-7.97c1.87-2.66,3.93-5.65,6.09-8.08,8.71-10.08,18.52-17.51,28.31-23.89,19.69-12.55,39.69-21.57,59.3-30.54,39.17-17.68,77.78-34.33,110.61-57.75,16.21-11.67,31.09-25.08,42.09-40.4,11.24-15.52,19.72-33.71,26.19-52.73,6.46-19.06,10.96-39.03,14.18-59.3,2.9-20.36,4.55-40.98,5.06-61.72.76-41.5-2.96-83.27-9.86-124.52-14.33-82.49-41.69-162.84-79.08-238.03-18.67-37.7-41.64-72.96-64.31-108.25-22.83-35.32-46.65-69.74-67.61-107.93l-.02-.04c-1.57-2.86-.52-6.45,2.34-8.02,2.08-1.14,4.54-.9,6.34.41,35.58,26.07,64.29,59.43,89.37,95.04,25.23,35.62,45.54,74.41,64.98,113.36,38.7,78.05,67.2,161.4,82.17,247.63,7.22,43.15,11.16,86.99,10.35,131.09-.53,22.05-2.29,44.14-5.44,66.15-3.48,21.99-8.39,43.91-15.67,65.38-7.31,21.42-16.99,42.55-30.87,61.77-14.08,19.5-31.56,34.96-49.99,48.27-37.09,26.38-77.83,43.61-116.48,61.15-19.28,8.78-38.37,17.56-54.79,28.08-8.13,5.26-15.42,11.07-20.71,17.22-1.4,1.55-2.34,3.03-3.57,4.71l-3.47,5.79c-1.21,1.9-2,4.05-3.04,6.05-1.06,1.99-1.89,4.12-2.66,6.27-6.71,16.98-8.52,36.6-8.55,56.83.04,20.32,1.93,41.38,3.32,63l.94,16.32c.2,5.62.41,11.24.36,16.87-.03,11.26-.5,22.53-1.7,33.77-2.14,22.49-6.99,44.82-14.12,66.46-7.39,21.57-17.35,42.39-29.89,61.59-3.35,4.67-6.37,9.48-10.04,14.01l-11.15,13.48c-3.82,4.4-8.24,8.27-12.35,12.4-4.03,4.24-8.7,7.77-13.29,11.38-18.34,14.36-38.92,26.12-61.05,33.47-22.05,7.5-45.24,11.5-68.56,11.66-23.3.15-46.79-3.52-69.05-11.64l-16.36-7.03c-5.28-2.75-10.43-5.82-15.63-8.76-5.06-3.19-9.78-6.99-14.65-10.51-2.42-1.6-4.8-4.16-7.18-6.29-1.17-1.13-2.4-2.2-3.51-3.4l-3.18-3.74c-8.49-9.97-14.74-21.78-18.6-33.87-3.95-12.13-5.41-24.46-5.73-36.42-.56-24.03,3.89-46.75,9.98-68.45,6.27-21.67,14.36-42.45,23.71-62.5,4.67-10.04,9.64-19.9,14.92-29.63,2.62-4.87,5.38-9.69,8.19-14.5,2.9-4.86,5.67-9.47,9.24-14.71l.78,20.85-27.43-33.15-13.74-16.63c-5.38-6.57-10-13.51-13.95-20.67-15.44-28.8-21.69-59.74-23.6-90.31-1.77-30.64,1.18-61.34,8.97-91.07,7.67-29.71,20.36-58.69,39.58-84.03,19.49-25.73,44.84-44.87,71.74-59.67,13.5-7.32,27.46-13.52,41.82-18.7,14.35-5.16,29.03-9.44,43.97-12.3,59.46-12.34,122.8-6.54,176.37,19.15,2.91,1.4,4.14,4.88,2.74,7.79-1.1,2.3-3.52,3.55-5.92,3.28l-.18-.02Z"/>
      <path class="cls-8" d="m1543.42,1851.82c-.58,0-1.17-.04-1.75-.12-7.11-.96-12.1-7.5-11.14-14.61,18.7-138.33-62.23-203.13-97.9-224.57-56.87-34.19-126.69-38.5-166.02-10.26-5.84,4.19-13.96,2.85-18.13-2.97-4.18-5.83-2.85-13.95,2.97-18.13,48.14-34.57,128.15-30.84,194.56,9.09,40.07,24.09,131.03,96.7,110.26,250.32-.88,6.52-6.46,11.25-12.86,11.25Z"/>
      <path class="cls-8" d="m1265.35,1899.98l7.25,4.91,7.89,5.08c5.38,3.24,10.74,6.53,16.32,9.37,11.03,5.93,22.49,10.88,34.33,14.28,5.92,1.76,11.93,3.09,18.04,3.93,6.11.9,12.32,1.51,18.66,1.54,12.8.55,25.86-1.5,40.4-4.17-9.23,11.45-22.31,20.03-36.94,24.85-14.64,4.95-30.62,5.72-45.94,3.95-15.39-1.82-30.27-6.22-44.11-12.47-6.87-3.23-13.62-6.71-19.97-10.84-3.18-2.06-6.34-4.15-9.36-6.5-3.16-2.39-5.82-4.53-9.24-7.73-6.97-6.54-7.33-17.49-.79-24.47,5.9-6.3,15.4-7.2,22.33-2.5l1.14.78Z"/>
      <path class="cls-12" d="m1602.38,922.81c360.64-153.08,400.73-310.02,510.38-312.37,109.65-2.35,161.49,101.43,97.37,242.55-105.49,232.16-504.92,257.41-504.92,257.41"/>
      <g class="cls-2">
        <path class="cls-8" d="m2210.14,853.01c-105.51,232.14-504.95,257.39-504.95,257.39h0c-9.6-17.5.41-39.33,19.96-43.37,119.5-24.69,330.46-88.86,418.51-243.41,36.04-63.24,49.86-133.56,44.97-192.66,53.46,36.73,68.03,119.54,21.51,222.05Z"/>
      </g>
      <path class="cls-8" d="m1600.12,917.5c25.4-20.73,52.93-35.5,80.44-50.35,27.39-15.02,55.25-29,82.49-44.16,27.26-15.13,53.5-31.98,79.06-49.73,25.55-17.78,50.39-36.55,74.49-56.4,24.19-19.76,47.56-40.56,71.85-61.37,12.17-10.38,24.69-20.74,38.35-30.43,13.6-9.66,28.76-18.64,45.88-24.62,8.46-3.15,17.53-5.03,26.58-6.31,4.52-.55,9.12-.74,13.63-.99,4.37.09,8.72-.07,13.11.26,17.49,1.06,35.36,4.45,52.02,12.01,16.73,7.24,31.94,18.57,43.97,32.49,11.86,14.07,20.59,30.47,25.75,47.52,5.37,17.03,7.59,34.58,7.62,51.79.07,17.23-1.93,34.19-5.35,50.67-3.42,16.48-8.27,32.49-14.07,48.02l-4.54,11.56-4.91,11.37c-3.6,7.52-7.52,14.99-11.29,22.47-16.26,29.38-37.42,55.72-61.39,78.55-24,22.86-50.7,42.35-78.69,59.17-56.12,33.58-117.02,56.86-178.92,74.25-15.5,4.32-31.08,8.33-46.75,11.88-15.65,3.63-31.24,7.55-46.98,10.85-15.75,3.24-31.74,5.21-47.86,5.96-16.16.46-32.45-.51-49.04-5.78-3.26-1.04-5.06-4.52-4.03-7.78.52-1.64,1.66-2.91,3.07-3.63l.23-.12c14.93-7.62,30.06-12.26,45.21-16.05,15.2-3.56,30.42-6.57,45.77-8.98,15.33-2.49,30.74-4.74,45.88-8.28,15.17-3.36,30.2-7.29,45.15-11.44,59.68-16.73,117.92-39.14,170.42-70.58,26.18-15.73,50.82-33.77,72.62-54.55,21.78-20.76,40.62-44.31,55-70.28,3.31-6.64,6.76-13.17,9.99-19.89l4.49-10.39,4.12-10.51c5.26-14.07,9.58-28.4,12.58-42.87,3-14.46,4.69-29.06,4.63-43.44,0-14.38-1.88-28.53-6.04-41.66-3.98-13.21-10.52-25.19-19-35.32-8.68-9.95-19.37-18.02-31.67-23.34-12.17-5.58-25.89-8.23-39.86-9.1-3.49-.29-7.06-.12-10.59-.22-3.37.23-6.69.34-10,.74-6.57.99-13.09,2.23-19.44,4.64-25.59,8.88-49.47,28.69-73.18,48.72-23.71,20.31-47.58,41.55-72.35,61.79-24.7,20.34-50.34,39.72-76.67,58.04-26.34,18.33-53.5,35.39-80.79,52.21-27.32,16.77-55.39,32.35-84.58,45.49-7.34,3.2-14.6,6.54-22.01,9.57-7.44,2.95-14.98,5.67-22.61,8.17-7.6,2.56-15.33,4.79-23.24,6.55-7.87,1.87-15.82,3.5-24.03,4.45-3.3.39-6.29-1.97-6.68-5.26-.25-2.1.66-4.11,2.17-5.37Z"/>
      <g>
        <path class="cls-12" d="m782.83,837.32c403.25,597.53,1252.88,67.26,928.72-546.65-398.28-621.46-1275.99-72.5-928.72,546.65Z"/>
        <path class="cls-12" d="m782.83,837.32c403.25,597.53,1252.88,67.26,928.72-546.65-398.28-621.46-1275.99-72.5-928.72,546.65Z"/>
        <g class="cls-2">
          <path class="cls-8" d="m1725.61,863.69c-13.78,25.06-29.55,48.81-47.07,71.22-13.28,17.12-27.6,33.39-42.82,48.76-131.32,132.81-328.36,199.74-516.13,152.43-20.76-5.24-41.48-11.88-61.94-20.01-98.57-39.03-192.16-112.1-269.37-226.49-39.03-69.63-62.59-138.3-73.07-204.58,68.58,48.91,154.08,146.19,319.38,241.87-1.4-7.19-2.8-14.37-4.24-21.61l591.79-40.28c10.43,11.78,20.41,23.66,30.05,35.64,26-12.18,50.41-24.51,73.42-36.93Z"/>
        </g>
        <path class="cls-12" d="m782.83,837.32c403.25,597.53,1252.88,67.26,928.72-546.65-398.28-621.46-1275.99-72.5-928.72,546.65Z"/>
        <path class="cls-8" d="m1237.18,1111.36c-32.61,0-65.15-3.03-97.24-9.17-145.17-27.76-272.2-116.96-367.35-257.96l-.54-.87c-82.66-147.37-102.72-301.25-58.02-445.02,39.89-128.27,128.5-238.91,249.51-311.54C1084.31,14.32,1222.76-11.18,1353.35,15c147.28,29.52,274.73,122.55,368.59,269.01l.52.9c77.28,146.34,94.14,298.25,48.76,439.31-40.58,126.16-128.39,234.86-247.26,306.07-89.1,53.38-188.25,81.07-286.79,81.07Zm-443.83-280.53c202.16,299.13,506.21,305.11,717.93,178.27,206.87-123.93,354.36-399.62,189.58-712.21C1502.28-12.5,1186.08-17.96,976.25,107.97c-211.9,127.18-359.43,407.6-182.9,722.86Z"/>
        <g class="cls-2">
          <path class="cls-8" d="m782.83,837.3c339.31,522.17,1104.7,191.33,987.11-395.53-24.78,193.61-90.55,205.04-186.06,308.32-291.98,337.71-792.08,129.99-875.55-253.67-14,120.53,13.65,240.25,74.5,340.88Z"/>
        </g>
        <path class="cls-7" d="m1237.18,1116.33c-32.92,0-65.76-3.06-98.17-9.25-146.5-28.02-274.63-117.94-370.55-260.06l-.75-1.22c-83.34-148.59-103.55-303.83-58.43-448.93,40.24-129.44,129.63-241.07,251.69-314.33,121.83-73.12,261.51-98.83,393.34-72.41,148.62,29.79,277.19,123.57,371.8,271.2l.73,1.26c77.91,147.55,94.89,300.79,49.1,443.16-40.95,127.31-129.53,236.98-249.43,308.81-89.87,53.84-189.92,81.77-289.35,81.77Zm-439.59-288.11c200.34,296.26,501.46,302.23,711.13,176.61,204.88-122.74,350.96-395.78,187.84-705.43C1499.77-7.03,1186.61-12.49,978.81,112.24c-209.86,125.96-355.98,403.69-181.22,715.98Z"/>
        <path class="cls-8" d="m1237.18,1116.33c-32.92,0-65.76-3.06-98.17-9.25-146.5-28.02-274.63-117.94-370.55-260.06l-.75-1.22c-83.34-148.59-103.55-303.83-58.43-448.93,40.24-129.44,129.63-241.07,251.69-314.33,121.83-73.12,261.51-98.83,393.34-72.41,148.62,29.79,277.19,123.57,371.8,271.2l.73,1.26c77.91,147.55,94.89,300.79,49.1,443.16-40.95,127.31-129.53,236.98-249.43,308.81-89.87,53.84-189.92,81.77-289.35,81.77Zm-439.59-288.11c200.34,296.26,501.46,302.23,711.13,176.61,204.88-122.74,350.96-395.78,187.84-705.43C1499.77-7.03,1186.61-12.49,978.81,112.24c-209.86,125.96-355.98,403.69-181.22,715.98Z"/>
        <path class="cls-8" d="m868.83,945.35c545.1,321.63,1007.85-314.44,594.39-683.39C975-123.16,426.97,477.08,868.83,945.35Z"/>
        <path class="cls-10" d="m723.12,570.53c-2.38,572.04,815.7,619.69,903.71,97.06-262.11,307.91-750.39,179.74-903.71-97.06Z"/>
        <path class="cls-8" d="m1191.94,1100.06c-38.42,0-76.59-4.8-113.67-14.52-121.62-31.87-228.15-114.91-308.09-240.15l-.06-.1c-130.73-208.31-108.21-547.89,133.67-721.39l2.19-1.3c131.2-63.75,290.27-68.08,436.46-11.86,145.67,56.02,260.32,165.08,314.55,299.21,49.17,131.22,47.16,264.09-5.68,384.59-47.89,109.23-134.02,199.23-242.52,253.43-69.04,34.49-143.37,52.08-216.86,52.08Zm-396.43-270.75c175.59,275.07,432.89,275.25,599.88,191.83,191.95-95.88,333.85-332.87,233.65-600.3-50.98-126.1-159.42-229.05-297.37-282.1-138.02-53.07-287.9-49.32-411.43,10.28-227.19,163.89-248.01,483.81-124.74,680.28Z"/>
        <path class="cls-8" d="m1167.23,1050.69c-101.21,0-205.77-30.57-307.2-90.42l-2.11-1.25-1.68-1.78c-106.67-113.05-164.42-242.15-166.99-373.33-2.3-117.51,40.07-229.91,119.31-316.49,77.45-84.62,182.42-135.94,295.6-144.53,125.79-9.52,253.66,33.85,369.8,125.47l.81.68c97.07,86.62,153.5,193.44,163.21,308.91,8.79,104.57-21.82,210.68-86.19,298.81-69.69,95.41-171.86,160.86-287.69,184.3-31.78,6.43-64.15,9.62-96.86,9.62Zm-287.48-119.01c277.89,162.78,523.58,69.6,644.05-95.35,109.34-149.7,129.5-381.2-71.72-561.09-242.34-190.9-484.96-129.76-617.97,15.57-136.67,149.34-175.34,405.19,45.64,640.87Z"/>
        <path class="cls-12" d="m1854.71,668.82c-34.43,251.84-289.73,238.53-281.1-5.21,26.4-265.28,299.31-251.08,281.1,5.21Z"/>
        <g class="cls-3">
          <path class="cls-8" d="m1695.3,852.77c-76.56-3.43-133.1-96.25-120.56-201.93,49.18,110.12,163.64-73.52,171.29-125.9,196.97,47.66,89.75,337.14-50.73,327.83Z"/>
        </g>
        <path class="cls-8" d="m1701.56,869.43c-3.55,0-7.07-.15-10.56-.45-70.46-6.05-139.44-72.09-134.7-205.99l.08-1.1c14.49-145.62,102.29-215.01,181.47-208.2,71.58,6.1,144.08,76.41,134.14,216.35l-.12,1.12c-18.87,137.97-99.43,198.27-170.32,198.27Zm-110.65-204.66c-3.75,110.78,49.02,165.05,103.06,169.69,57.29,4.97,126.63-45.39,143.51-167.43,8.07-116.16-47.47-174.12-102.56-178.81-62.13-5.37-131.58,53.63-144,176.56Zm263.8,4.04h.05-.05Z"/>
        <path class="cls-12" d="m1864.74,682.74c-28.12,204.06-219.55,197.32-212.59.17,20.62-217.48,228.65-209.92,212.59-.17Z"/>
        <path class="cls-8" d="m1746.36,848.28c-2.57,0-5.12-.11-7.65-.33-53.3-4.6-105.37-57.58-101.56-165.57l.06-.89c11.46-120.92,79.79-178.85,141.5-173.56,54.77,4.69,109.73,61.75,100.98,175.95l-.1.9c-15.66,113.71-78.52,163.5-133.23,163.5Zm-79.24-164.39c-2.97,88.01,35.08,130.8,74.17,134.17,42.59,3.75,94.7-37.61,108.52-136.92,7.02-93.53-33.23-139.85-73.67-143.31-46.62-4.08-99.29,44.86-109.03,146.05Zm197.62-1.15h.05-.05Z"/>
        <g class="cls-6">
          <path class="cls-12" d="m1523.39,554.54c-27.87,103.31-145.79,73.46-136.75-19.92,18.05-117.11,157.6-84.17,136.75,19.92Z"/>
        </g>
        <g class="cls-6">
          <path class="cls-12" d="m1462.73,716.95c-12.94,38.9-64.76,26.83-54.62-16.73,12.94-38.89,64.76-26.83,54.62,16.73Z"/>
        </g>
        <g class="cls-6">
          <path class="cls-12" d="m779.66,610.47c-75.9-401.77,340.96-462.12,469.27-378.99-267.47,23.53-382.89,191.18-469.27,378.99Z"/>
        </g>
        <g class="cls-2">
          <path class="cls-8" d="m1642.74,729.24c-4.21-28.67-.58-58.59,9.03-86.07,38.87,136.98,176.21,73.66,206.49-25.69,34.35,203.02-170.82,302-215.52,111.76Z"/>
        </g>
        <path class="cls-8" d="m1584.78,514.48c-5.13,0-9.47-1.25-12.93-2.88-22.88-10.71-25.35-46.07-25.57-56.65-.2-9.57,7.4-17.48,16.97-17.67.12,0,.24,0,.36,0,9.39,0,17.1,7.51,17.31,16.94.23,9.37,2.67,20.63,5.24,25.02,1.14-.55,2.92-1.59,5.4-3.56,7.47-5.99,18.37-4.77,24.35,2.71,5.98,7.47,4.77,18.37-2.71,24.35-11.08,8.87-20.65,11.75-28.42,11.75Z"/>
      </g>
      <g>
        <circle class="cls-12" cx="1071.94" cy="1331.35" r="58.66" transform="translate(-627.45 1147.92) rotate(-45)"/>
        <g class="cls-3">
          <path class="cls-8" d="m1013.45,1335.75c2.43,32.31,30.58,56.55,62.89,54.12,32.31-2.43,56.55-30.63,54.12-62.93-.67-8.93-3.31-17.28-7.51-24.59-7.9,20.46-27.04,35.7-50.38,37.45-23.34,1.76-44.54-10.44-55.37-29.49-3.06,7.85-4.41,16.51-3.74,25.43Z"/>
        </g>
        <path class="cls-8" d="m1071.89,1405.02c-38.13,0-70.5-29.5-73.4-68.13-1.48-19.62,4.77-38.65,17.6-53.56,12.83-14.92,30.7-23.95,50.32-25.42,19.61-1.48,38.65,4.77,53.56,17.6,14.92,12.83,23.95,30.7,25.42,50.32,3.05,40.51-27.42,75.94-67.92,78.99-1.88.14-3.74.21-5.59.21Zm.08-117.33c-1.09,0-2.2.04-3.31.12-11.63.88-22.23,6.23-29.83,15.07-7.61,8.84-11.31,20.12-10.43,31.75h0c1.81,24,22.84,42.06,46.82,40.26,24.01-1.81,42.07-22.81,40.26-46.82-1.72-22.9-20.91-40.39-43.52-40.39Z"/>
        <path class="cls-12" d="m1143.85,1471.88l310.09-4.89c36.7-.57,66.29-31.08,65.72-67.83l-2.61-165.02c-.51-32.17-23.97-58.83-54.46-64.57-4.32-.84-8.79-1.21-13.36-1.14l-310.05,4.89c-36.75.57-66.33,31.08-65.72,67.83l2.04,130.7.53,34.32c.57,36.75,31.13,66.28,67.83,65.72Z"/>
        <g class="cls-2">
          <path class="cls-8" d="m1143.85,1471.88l310.09-4.89c36.7-.57,66.29-31.08,65.72-67.83l-2.61-165.02c-.51-32.17-23.97-58.83-54.46-64.57-17.42,11.97-28.49,19.63-28.49,19.63-13.01,132.7-5.64,230.8-211.37,220.42-70.93-3.58-118.72-23.66-147.23-37.78l.53,34.32c.57,36.75,31.13,66.28,67.83,65.72Z"/>
        </g>
        <path class="cls-8" d="m1142.79,1486.9c-44.51,0-81.05-35.84-81.76-80.49l-2.6-165.04c-.71-45.08,35.39-82.34,80.48-83.06l310.08-4.88c44.84-.71,82.34,35.4,83.06,80.48l2.6,165.04c.34,21.77-7.86,42.42-23.1,58.14-15.23,15.72-35.62,24.58-57.39,24.92l-310.07,4.88c-.43,0-.87,0-1.3,0Zm307.5-303.49c-.27,0-.55,0-.83,0l-310.07,4.88c-13.75.21-26.65,5.83-36.31,15.8-9.66,9.97-14.86,23.04-14.64,36.79l2.6,165.05c.21,13.75,5.83,26.65,15.8,36.31,9.97,9.66,23.03,14.82,36.79,14.64l310.07-4.88c13.75-.21,26.65-5.83,36.31-15.8,9.66-9.97,14.86-23.04,14.64-36.79l-2.6-165.04c-.44-28.27-23.59-50.97-51.76-50.97Z"/>
        <path class="cls-12" d="m1131.38,1470.86c4.03.77,8.17,1.11,12.47,1.02l310.09-4.89c26.89-.44,49.96-16.9,60.13-40.2,3.71-8.46,5.72-17.82,5.54-27.63l-1.13-73.31-.37-24.19-1.06-67.52c-.57-36.75-31.13-66.28-67.83-65.72l-67,1.07c30.98,5.33,54.92,32.19,55.45,64.69l1.43,89.14,1.18,75.93c.57,36.7-29.01,67.26-65.72,67.83l-243.19,3.78Z"/>
        <g class="cls-2">
          <path class="cls-8" d="m1131.38,1470.86c4.03.77,8.17,1.11,12.47,1.02l310.09-4.89c36.7-.57,66.29-31.08,65.67-67.82l-1.5-97.5c-7.53,17.35-21.21,38.72-43.59,41.29-12.28,1.44-24.53-7.22-35.42-19.63l1.18,75.93c.57,36.7-29.01,67.26-65.72,67.83l-243.19,3.78Z"/>
        </g>
        <path class="cls-8" d="m1142.49,1486.89c-4.58,0-9.25-.42-13.83-1.27l2.48-29.75,243.21-3.81c13.74-.21,26.63-5.81,36.28-15.78,9.67-9.98,14.86-23.04,14.64-36.8l-2.6-165.04c-.39-24.83-18.47-45.94-42.99-50.18l2.32-29.78,66.98-1.07c21.77-.25,42.43,7.88,58.15,23.11,15.73,15.24,24.58,35.62,24.91,57.39l2.6,165.01c.36,21.77-7.84,42.43-23.09,58.16-15.24,15.73-35.62,24.58-57.37,24.91l-310.09,4.88c-.53,0-1.06.01-1.6.01Zm291.79-303.24c11.3,13.85,18.09,31.4,18.39,50.32l2.6,165.03c.32,19.58-6.28,38.26-18.72,53.27l17.16-.27c13.75-.21,26.63-5.82,36.29-15.79,9.66-9.98,14.86-23.04,14.63-36.79h0s-2.6-165.05-2.6-165.05c-.21-13.75-5.81-26.65-15.79-36.31-9.78-9.48-22.54-14.67-36.01-14.67-.27,0-.53,0-.8,0l-15.16.24Z"/>
        <path class="cls-11" d="m1316.73,1319.99c.13,6.1,9.77,55.17,9.77,55.17,0,0,15.6-.34,34.76-.75,23.94-.51,42.81-25.72,42.15-56.29-.66-30.57-20.6-54.94-44.53-54.43-16.15.35-34.76.75-34.76.75,0,0-7.6,45.6-7.39,55.54Z"/>
        <g class="cls-3">
          <path class="cls-8" d="m1316.73,1319.99c.13,6.1,9.77,55.17,9.77,55.17,0,0,15.6-.34,34.76-.75,23.94-.51,42.81-25.72,42.15-56.29-.66-30.57-20.6-54.94-44.53-54.43-16.15.35-34.76.75-34.76.75,0,0-7.6,45.6-7.39,55.54Z"/>
        </g>
        <path class="cls-8" d="m1318.3,1385.34l-1.62-8.25c-2.3-11.71-9.81-50.43-9.95-56.89-.22-10.37,6.23-49.63,7.52-57.4l1.36-8.17,43.04-.93c.32,0,.63,0,.95,0,28.99,0,53.04,28.57,53.81,64.22.77,36.04-22.53,65.87-51.94,66.5l-43.17.92Zm8.42-65.59c.17,3.46,3.96,24.39,7.98,45.23l26.34-.57c18.38-.39,32.91-21.06,32.37-46.07-.54-25.01-15.92-45.07-34.32-44.64l-26.45.57c-2.75,17.22-6.03,39.83-5.92,45.49Z"/>
        <ellipse class="cls-11" cx="1325.31" cy="1319.8" rx="43.35" ry="55.37" transform="translate(-28.05 28.78) rotate(-1.23)"/>
        <g class="cls-3">
          <path class="cls-8" d="m1368.65,1318.88c.67,30.56-18.21,55.77-42.14,56.29-23.97.52-43.9-23.86-44.54-54.45-.1-4.13.18-8.18.79-12.08,6.61,20.87,22.79,35.49,41.38,35.06,20.67-.44,37.59-19.3,41.35-44.18,1.91,6.01,2.99,12.52,3.16,19.36Z"/>
        </g>
        <path class="cls-12" d="m1368.65,1318.88c.05,2.08,0,4.13-.16,6.16-5.27-23.85-22.66-41.2-42.88-40.75-22.3.5-40.24,22.42-41.97,50.16-.99-4.41-1.55-8.99-1.66-13.74-.67-30.56,18.21-55.77,42.14-56.29,23.93-.48,43.87,23.86,44.54,54.45Z"/>
        <path class="cls-8" d="m1325.72,1385.17c-14.35,0-27.79-6.8-37.96-19.23-9.82-12-15.43-27.98-15.8-44.99-.78-36.04,22.52-65.87,51.94-66.51,14.7-.28,28.55,6.52,38.95,19.22,9.82,12.01,15.43,27.98,15.8,44.99.37,17.01-4.55,33.22-13.85,45.62-9.84,13.15-23.37,20.56-38.09,20.88-.33,0-.66,0-.99,0Zm-.87-110.74c-.17,0-.35,0-.52,0-18.39.4-32.91,21.07-32.37,46.08h0c.27,12.56,4.27,24.19,11.27,32.75,6.42,7.85,14.55,12.17,23.04,11.88,8.44-.18,16.44-4.75,22.51-12.87,6.63-8.85,10.13-20.64,9.86-33.21-.27-12.56-4.27-24.19-11.27-32.75-6.29-7.69-14.27-11.9-22.52-11.9Z"/>
        <path class="cls-8" d="m1240.22,1479.17c-5.34,0-9.78-4.22-9.99-9.6l-4.3-109.04-49.04-29.76c-2.92-1.78-4.74-4.93-4.81-8.36l-2.87-149.43c-.1-5.52,4.29-10.08,9.81-10.19h.2c5.43,0,9.89,4.35,10,9.81l2.76,143.93,48.93,29.69c2.87,1.74,4.67,4.8,4.8,8.15l4.51,114.41c.22,5.52-4.08,10.17-9.59,10.39-.14,0-.27,0-.4,0Z"/>
        <path class="cls-12" d="m1832.16,1193.87s32.77,20.03,33.44,56.77c.77,42.47-29.16,63.23-29.16,63.23,0,0-101.62,73.95-337.34,59.45,0,0-59.59-62.59,9.3-109.9,0,0,215.42,35.33,323.76-69.56Z"/>
        <g class="cls-2">
          <path class="cls-8" d="m1865.58,1249.81s0,0,0,0c1.17,43.02-29.16,64.07-29.16,64.07,0,0-101.6,73.94-337.33,59.45,0,0-45.53-47.85-10.99-91.48.04.26.08.52.13.78,4.44,26.5,27.53,46.01,54.39,46.82,213.45,6.48,306.06-60.9,306.06-60.9,0,0,8.95-6.2,16.9-18.75Z"/>
        </g>
        <path class="cls-8" d="m1559.43,1390.22c-19.35,0-39.76-.61-61.26-1.93l-5.88-.36-4.06-4.27c-1.3-1.37-31.8-33.91-27.68-73.37,2.41-23.03,15.65-42.95,39.36-59.23l4.97-3.41,5.95.97c2.07.34,209.32,32.81,310.9-65.53l8.34-8.08,9.91,6.06c1.63.99,39.81,24.83,40.62,69.29.91,49.93-34.12,74.8-35.61,75.83-3.68,2.68-90.43,64.02-285.55,64.02Zm-53-31.5c221.83,12.21,320.24-56.32,321.22-57.01,1.09-.78,23.56-17.35,22.95-50.8-.32-17.22-10.26-30.04-17.83-37.34-104.93,89.72-284.03,70.6-320.51,65.59-13.17,10.21-20.52,21.67-21.86,34.11-2.08,19.18,9.83,37.42,16.03,45.45Z"/>
      </g>
      <path class="cls-8" d="m2067.85,1016.18c-.49,0-.99-.03-1.48-.08-85.12-9.68-151.93-93.22-193.2-241.59-.74-2.68-1.27-4.64-1.63-5.78-2.06-4.43-1.52-9.84,1.83-13.83,4.61-5.51,12.82-6.21,18.3-1.6,3.35,2.81,3.96,5.01,6.53,14.24,37.65,135.37,98.42,214.47,171.11,222.73,7.13.81,12.25,7.25,11.44,14.38-.76,6.63-6.38,11.52-12.9,11.52Zm-192.91-242.99s.01,0,.02,0c0,0-.01,0-.02,0Zm-.01-.01s0,0,0,0c0,0,0,0,0,0Z"/>
      <path class="cls-8" d="m816.89,1633.15c4.42,4.54,7.8,8.5,11.43,12.84,3.54,4.27,6.92,8.62,10.22,13.01,6.58,8.81,12.64,17.96,18.26,27.36,5.66,9.37,10.72,19.11,15.2,29.09,4.64,9.9,8.19,20.33,11.45,30.74,1.43,4.57-1.11,9.43-5.68,10.86-4.17,1.31-8.59-.71-10.41-4.55l-.19-.4c-4.32-9.09-8.8-18.05-14.29-26.49-5.33-8.5-11.14-16.7-17.47-24.49-6.28-7.82-12.91-15.35-19.94-22.45-3.52-3.54-7.09-7.02-10.75-10.35-3.57-3.26-7.56-6.73-10.86-9.27-7.61-5.84-9.04-16.75-3.2-24.35,5.84-7.61,16.75-9.04,24.35-3.2.64.49,1.31,1.1,1.86,1.66Z"/>
    </g>
  </g>
</svg>