<?xml version="1.0" encoding="UTF-8"?>
<svg id="Layer_2" data-name="Layer 2" xmlns="http://www.w3.org/2000/svg" viewBox="0 0 2666.05 3215.34">
  <defs>
    <style>
      .cls-1 {
        opacity: .2;
      }

      .cls-2 {
        opacity: .26;
      }

      .cls-3 {
        opacity: .25;
      }

      .cls-4 {
        opacity: .4;
      }

      .cls-5 {
        opacity: .35;
      }

      .cls-6 {
        opacity: .5;
      }

      .cls-7 {
        opacity: .7;
      }

      .cls-8 {
        fill: #2784d8;
      }

      .cls-8, .cls-9, .cls-10, .cls-11, .cls-12, .cls-13, .cls-14, .cls-15, .cls-16 {
        stroke-width: 0px;
      }

      .cls-9 {
        fill: #371a45;
      }

      .cls-10 {
        fill: #220f2d;
      }

      .cls-11 {
        fill: #22a7f0;
      }

      .cls-12 {
        fill: #d1d1d1;
      }

      .cls-13 {
        fill: #bfbfbf;
      }

      .cls-14 {
        fill: #b2b2b2;
      }

      .cls-15 {
        fill: #fff;
      }

      .cls-16 {
        fill: #00b1ff;
      }
    </style>
  </defs>
  <g id="Layer_1-2" data-name="Layer 1">
    <g>
      <g>
        <g class="cls-1">
          <ellipse class="cls-9" cx="1227.36" cy="3126.84" rx="874.92" ry="88.5"/>
        </g>
        <path class="cls-16" d="m772.09,517.49s68.74-258.5,145.84-356.88c106.11-135.38,642.37-104.88,372.94-59.11-69.01,20.67-150.18,39.12-201.86,94.3-73.83,78.82-172.67,358.78-172.67,358.78l-144.25-37.09Z"/>
        <path class="cls-8" d="m916.34,554.57s98.85-279.96,172.67-358.78c51.68-55.18,132.85-73.63,201.86-94.3,10.65-1.81,20.04-3.6,28.25-5.35-111.69-2.25-308.91,21.29-368.85,97.77-63.03,80.42-120.46,267.81-139.33,333.56l105.4,27.1Z"/>
        <path class="cls-9" d="m916.35,572.99c-1.52,0-3.06-.19-4.59-.58l-144.24-37.09c-4.76-1.22-8.83-4.29-11.31-8.53-2.48-4.24-3.16-9.29-1.9-14.04,2.85-10.71,70.61-263.31,149.15-363.51,86.46-110.32,409.98-116.31,462.56-94.88,17.98,7.33,18.6,20.18,18.03,25.37-1.82,16.56-16.11,27.27-88.96,39.73-7.47,2.23-15.07,4.44-22.76,6.67-62.66,18.18-127.45,36.97-169.86,82.26-70.35,75.11-167.78,349.56-168.75,352.32-2.65,7.5-9.72,12.29-17.35,12.29Zm-121.47-68.66l109.82,28.24c22.41-61.33,104.79-278.8,170.87-349.36,49.33-52.66,122.19-73.8,186.48-92.45,7.96-2.31,15.83-4.59,23.54-6.9.72-.22,1.46-.39,2.2-.52,3.43-.58,6.67-1.15,9.75-1.71-35.95-1.32-85.77.03-140.11,6.8-112.33,13.98-194.34,44.43-225,83.54-62.38,79.59-120.55,272.64-137.56,332.36Z"/>
        <ellipse class="cls-13" cx="818.28" cy="740.43" rx="296.89" ry="232.67" transform="translate(-109.89 1337.34) rotate(-74.89)"/>
        <g class="cls-6">
          <path class="cls-15" d="m615.67,704.77c42.75-158.3,177.98-259.46,302.03-225.95,32.02,8.65,60.13,25.48,83.54,48.33-26.88-35.7-62.75-61.79-105.54-73.34-124.06-33.5-259.28,67.66-302.03,225.96-31.72,117.43-3.59,233.27,63.67,298.95-51.04-67.78-69.66-170.26-41.66-273.94Z"/>
        </g>
        <g class="cls-3">
          <path class="cls-9" d="m1042.89,801.1c-42.76,158.3-177.95,259.46-302.02,225.95-123.14-33.26-188.99-186.68-148.13-343.74,19.04,26.43,43.73,45.07,73.04,52.97,99.42,26.84,214.65-79.71,257.41-238.01,2.82-10.42,5.24-20.84,7.29-31.16,101.17,50.76,150.96,191.25,112.41,333.99Z"/>
        </g>
        <path class="cls-9" d="m788.92,1051.82c-17.66,0-35.36-2.27-52.85-7-133.66-36.1-205.52-202.02-160.19-369.87,45.33-167.85,190.96-275.05,324.61-238.93,133.66,36.1,205.52,202.02,160.19,369.87l-17.78-4.8,17.78,4.8c-39.4,145.87-154.55,245.93-271.76,245.93Zm58.32-586.01c-100.77,0-200.83,89.27-235.8,218.75-40.04,148.24,20.18,293.9,134.23,324.71,14.43,3.9,29.06,5.77,43.66,5.77,100.77,0,200.83-89.27,235.8-218.75,40.04-148.24-20.18-293.9-134.23-324.71-14.43-3.9-29.06-5.77-43.66-5.77Z"/>
        <path class="cls-15" d="m1283.47,1007.39l-34.29,160.4-66.32,309.97-17.55,82.07c-2.67,3.49-5.39,6.93-8.16,10.32-84.85,105.58-191.61,171.03-305.25,205.11-265.83,79.82-569.23-11.91-717.83-163.17-114.36-116.41-69.96-294.78,37.62-362.22,47.99-30.13,108.56-38.19,173.28-8.78,132.84,60.36,295.8,224.77,510.92,133.86,38.75-16.37,79.25-41.06,121.54-76.17,34.54-28.64,70.27-64.26,107.33-107.94,6.83-8.01,13.4-15.71,19.81-23.05,126.42-144.59,178.88-160.4,178.88-160.4Z"/>
        <g class="cls-3">
          <path class="cls-9" d="m1182.87,1477.76l-17.55,82.07c-2.67,3.49-5.39,6.93-8.16,10.32-84.85,105.58-191.61,171.03-305.25,205.11-265.83,79.82-569.23-11.91-717.83-163.17-114.36-116.41-69.96-294.78,37.62-362.22,70.37,43.63,234.72,147.57,234.72,147.57,0,0-43.32,161.38,44.71,248.99,99.01,98.6,377.78,49.79,467.19-163.94l264.55-4.72Z"/>
        </g>
        <path class="cls-9" d="m645.04,1823.45c-215.24,0-416.2-88.62-524.1-198.46-97.34-99.1-86.19-239.69-24.86-327.35,61.25-87.53,161.93-116.32,256.53-73.32,31.58,14.35,64.22,34.05,98.78,54.9,112.7,68,240.45,145.07,397.35,78.77,38.58-16.3,77.93-40.99,116.95-73.38,34.41-28.53,69.75-64.09,105.05-105.69,6.9-8.1,13.53-15.85,19.99-23.25,126.26-144.41,181.54-164.14,187.43-165.91l29.83-8.99-125.54,586.96-2.5,3.29c-2.79,3.66-5.64,7.26-8.54,10.81-82.06,102.11-187.81,173.17-314.21,211.08-70.4,21.13-142.05,30.55-212.15,30.55Zm-380.57-582.36c-60.49,0-108.96,35.84-138.22,77.67-52.61,75.19-62.3,195.66,20.96,280.42,135.49,137.93,426.67,240.33,699.39,158.44,119.14-35.73,218.78-102.69,296.19-199.01,1.86-2.27,3.64-4.49,5.38-6.72l108.39-506.75c-27.29,20.23-72.42,59.64-138.12,134.77-6.36,7.28-12.89,14.92-19.66,22.87-36.66,43.21-73.54,80.29-109.59,110.18-41.78,34.68-84.22,61.25-126.13,78.95-47.31,20-92.29,28.23-134.97,28.23-114.45,0-212.5-59.16-295.74-109.38-33.62-20.28-65.37-39.44-95-52.91-25.74-11.7-50.17-16.76-72.9-16.76Z"/>
        <g>
          <path class="cls-15" d="m200.85,2373.17c10.9,248.05,412.68,376.98,502.17,289.83,97.66-95.06,91.85-263.44,155.06-278.7,111.41-26.92,379.69,88.68,527.88-178.89,11.57-20.84,22.35-44.03,32.32-69.78l-304.4-21.63c-123.27-82.56-330.8-191.94-515.8-91.34-103.12,56.05-154.7,232.62-157.87,328.99-.49,15.08.17,28.15,2.04,38.55,0,0-250.24-218.25-241.4-17.03Z"/>
          <g class="cls-3">
            <path class="cls-9" d="m200.85,2373.17c10.9,248.05,412.68,376.98,502.17,289.83,97.66-95.06,91.85-263.44,155.06-278.7,111.41-26.92,379.69,88.68,527.88-178.89-48.66,50.57-143.76,121.49-289.21,112.34-171.03-10.77-271.64-74.38-332.23-13.9-50.18,50.03-37.8,198.33-116.51,222.51-71.54,21.98-183.81-138.82-207.8-174.71-.49,15.08.17,28.15,2.04,38.55,0,0-250.24-218.25-241.4-17.03Z"/>
          </g>
          <path class="cls-9" d="m1108.76,2121.64c-34.07-21.11-68.68-41.19-104.57-58.39-35.75-17.39-72.51-32.54-110.26-43.62-37.76-10.81-76.3-18.69-114.98-19.97-38.6-1.48-77.18,2.91-113.45,14.63-18.15,5.73-35.88,12.82-52.66,21.88-2.09,1.1-4.29,2.16-6.3,3.28l-5.73,3.48c-3.9,2.15-7.44,5.03-11.15,7.57-3.67,2.63-7.07,5.73-10.63,8.55-3.34,3.15-6.76,6.22-10.03,9.49-26.09,26.44-45.92,59.97-62.16,94.98-16.11,35.21-28.21,72.65-36.63,110.71-4.3,19.01-7.57,38.24-9.58,57.38-.98,9.56-1.65,19.12-1.72,28.46-.15,9.31.13,18.64,1.46,26.86l8.38,51.85-38.61-34.72h-.01c-15.01-12.83-31.35-25.5-47.71-37.26-16.45-11.79-33.34-22.88-50.65-32.71-17.28-9.74-35.15-18.36-52.87-23.59-8.81-2.53-17.58-4.15-25.39-4.12-7.79.14-14.2,1.76-18.7,5.17-4.59,3.31-8.32,8.86-10.96,16.33-2.55,7.5-3.96,16.34-4.48,25.54-.97,18.63.79,38.18,5.03,56.72,8.43,37.36,27,72.37,51.93,102.63,24.88,30.37,55.5,56.45,88.93,78.31,33.43,21.94,69.78,39.74,107.47,53.49,37.69,13.61,77.04,23.25,116.27,26.36,19.54,1.41,39.14,1.22,57.45-2.03,9.12-1.63,17.87-4.07,25.67-7.49,3.97-1.63,7.49-3.7,10.85-5.82,1.58-1.14,3.19-2.25,4.62-3.47,1.37-1.25,2.73-2.33,4.49-4.25,27.09-27,46.56-61.76,61.76-98.83,7.66-18.57,14.36-37.76,20.9-57.35,6.63-19.58,12.89-39.54,21.1-59.84,4.18-10.15,8.8-20.42,15.13-30.69,6.39-10.08,14.5-20.94,27.63-28.61,3.37-1.74,6.67-3.6,10.41-4.65,1.76-.56,3.82-1.28,5.35-1.61l4.36-.85,8.71-1.64,8.51-.95c11.35-1.23,22.29-1.37,33.14-1.36,21.62.2,42.55,1.71,63.29,3.05,20.72,1.38,41.22,2.69,61.6,3.41,40.67,1.29,81.06.04,119.9-7.64,38.86-7.42,75.82-21.74,108.48-43.01,32.37-21.67,60.58-49.66,83.3-82.14,22.77-32.47,40.78-68.59,55.48-106.15l.05-.14c3.71-9.47,14.39-14.14,23.86-10.44,9.47,3.71,14.14,14.39,10.44,23.86-15.55,39.74-34.79,78.52-59.75,114.11-24.88,35.58-56.48,67.21-93.18,91.69-36.96,24.13-78.91,40.22-121.61,48.36-42.75,8.43-85.96,9.63-128.21,8.3-21.13-.75-42.09-2.1-62.8-3.47-20.7-1.35-41.22-2.8-61.14-2.97-9.91,0-19.77.14-29.07,1.17l-6.97.75-6.59,1.26-3.29.61c-1,.22-1.36.49-2.09.68-1.33.23-2.5,1.11-3.78,1.66-5,2.77-10.19,8.78-14.75,16.15-4.58,7.41-8.6,16.11-12.3,25.15-7.39,18.2-13.62,37.89-20.29,57.65-6.62,19.8-13.59,39.85-21.77,59.68-16.25,39.53-37.84,78.95-69.79,110.84-1.75,1.92-4.34,4.22-6.85,6.41-2.52,2.13-5.17,4.02-7.82,5.87-5.37,3.47-10.9,6.58-16.53,8.93-11.24,4.91-22.66,7.97-33.96,10.01-22.64,3.99-44.9,4.06-66.73,2.51-43.63-3.49-85.67-13.92-126.04-28.46-40.31-14.71-79.07-33.67-115.1-57.31-36.01-23.57-69.45-51.89-97.27-85.82-27.81-33.75-49.46-73.99-59.33-117.81-4.95-21.95-7.04-44.15-5.87-66.99.69-11.49,2.34-23.39,6.49-35.57,2.27-6.09,4.91-12.24,8.95-18.13,3.98-5.86,9.07-11.41,15.15-15.84,6.05-4.47,13.01-7.62,19.87-9.48,6.88-1.89,13.68-2.63,20.19-2.71,13-.02,24.81,2.41,35.94,5.58,22.15,6.59,41.86,16.32,60.73,26.91,18.81,10.68,36.67,22.44,53.97,34.84,17.35,12.49,33.88,25.27,50.45,39.42l.02.02-30.23,17.12c-2.18-11.67-2.7-22.59-2.85-33.43-.09-10.83.51-21.43,1.42-31.95,1.88-21.02,5.1-41.69,9.39-62.1,8.93-40.72,21.69-80.53,39.07-118.75,8.68-19.11,18.71-37.74,30.41-55.52,11.68-17.79,24.98-34.81,40.52-50.18,3.9-3.82,8.03-7.46,12.09-11.15,4.36-3.42,8.51-7.05,13.06-10.26,4.62-3.13,9.02-6.53,13.98-9.25l7.27-4.27c2.4-1.31,4.77-2.42,7.15-3.64,18.89-9.81,38.81-17.75,59.28-23.64,40.93-12.06,83.87-15.76,125.78-13.05,42.01,2.57,83.03,11.78,122.23,24.95,39.22,13.24,76.74,30.36,112.75,49.81,35.88,19.71,70.34,41.62,103.34,65.35,4.13,2.97,5.07,8.73,2.1,12.86-2.84,3.95-8.27,4.96-12.35,2.44Z"/>
          <path class="cls-15" d="m220.88,2258.02s50.3-108.27,175.62-74.28c116.17,31.5,139.76,167.51,164.26,208.13l-339.88-133.85Z"/>
          <path class="cls-9" d="m204.18,2250.26c1.61-3.47,2.77-5.64,4.22-8.29,1.39-2.51,2.84-4.95,4.33-7.35,2.99-4.79,6.29-9.34,9.72-13.79,6.89-8.87,14.58-17.16,23.14-24.65,17.05-14.96,37.71-26.66,60.03-32.85,22.28-6.45,45.73-7.21,67.84-4.09,11.12,1.59,21.83,3.86,32.48,7.25,10.75,3.17,21.1,7.76,31.09,12.86,9.97,5.2,19.34,11.46,28.1,18.36,8.75,6.93,16.66,14.72,24.03,22.82,7.42,8.09,13.88,16.86,19.84,25.8,5.97,8.95,11.35,18.17,16.14,27.58,9.63,18.82,17.27,38.2,23.92,57.53,3.36,9.65,6.35,19.34,9.5,28.79,3.16,9.41,6.32,18.8,10.09,26.86l.2.42c2.16,4.61.17,10.1-4.44,12.25-4.16,1.94-9.02.52-11.52-3.16-6.38-9.38-10.81-18.74-15.19-28l-12.78-27.41c-8.4-18.05-17.11-35.6-27.19-51.96-19.79-32.82-45.54-60.9-77.75-76.42-8.07-3.78-16.32-7.19-25-9.43-4.21-1.36-8.82-2.12-13.22-3.24-4.45-.76-8.91-1.71-13.35-2.15-17.78-2.09-35.46-1.26-51.97,3.5-16.51,4.71-31.92,13.02-45.41,24.32-6.8,5.57-13.07,11.93-18.76,18.81-2.84,3.43-5.53,7.01-8.07,10.65-1.26,1.82-2.49,3.65-3.65,5.48-1.09,1.71-2.37,3.95-2.96,5.01l-.67,1.19c-4.96,8.86-16.17,12.03-25.03,7.06-8.43-4.72-11.67-15.15-7.71-23.77Z"/>
          <path class="cls-14" d="m703.02,2663.01c-19.31,24.15-39.29,41.13-59.25,45.36-101.15,21.31-330.04-77.36-417.91-256.31-37.66-76.75-32.73-144.4-4.98-194.04,60.64-41.8,159.41-30.39,224.77,106.21,87.52,182.95,154.93,266.37,257.37,298.79Z"/>
          <g class="cls-5">
            <path class="cls-9" d="m703.02,2663.01c-19.31,24.15-39.29,41.13-59.25,45.36-101.15,21.31-330.04-77.36-417.91-256.31-17.15-34.98-25.46-68.04-26.82-98.39,29.59,113.69,126.11,189.49,214.85,195.03,60.97,3.81,97.57-20.92,95.18-63.96,60.47,101.4,117.42,154.06,193.95,178.29Z"/>
          </g>
          <path class="cls-9" d="m614.11,2729.57c-118.84,0-322.15-101.13-404.78-269.4-36.95-75.29-38.55-150.28-4.53-211.14l2.09-3.74,3.53-2.43c34.07-23.48,74.84-30.54,114.83-19.89,38.29,10.21,93.13,41.62,137,133.31,87.92,183.77,152.38,259.45,246.32,289.17l25.59,8.1-16.76,20.96c-24.03,30.05-46.87,47.02-69.82,51.88-10.13,2.13-21.38,3.18-33.48,3.18Zm-379.22-458.74c-25.77,49.35-23.15,110.62,7.51,173.11,86.34,175.82,309.53,265,397.58,246.4,6.96-1.47,17.38-6.25,31.15-19.43-91.06-38.32-157.07-121.01-242.09-298.74-37.81-79.03-82.47-105.41-113.27-113.62-28.03-7.47-56.58-3.1-80.89,12.28Z"/>
          <path class="cls-9" d="m858.09,2402.71c-10.09,0-18.32-8.14-18.41-18.25-.02-2.42-3.34-243.34-101.13-332.74-26.4-24.13-56.57-34.44-92.36-31.57-10.12.88-19.02-6.74-19.83-16.88-.82-10.14,6.73-19.02,16.88-19.83,45.86-3.7,86.32,10.14,120.2,41.13,109.6,100.25,112.98,349.03,113.07,359.58.09,10.17-8.08,18.48-18.25,18.57h-.17Z"/>
          <path class="cls-9" d="m498.03,2659.82c-42.02,0-92.74-8.76-149.32-35.83-9.17-4.39-13.05-15.39-8.66-24.56,4.38-9.17,15.38-13.06,24.56-8.66,139.52,66.76,238.28,8.52,239.26,7.93,8.7-5.29,20.02-2.52,25.3,6.18,5.28,8.69,2.51,20.02-6.18,25.3-3.01,1.83-50.15,29.65-124.96,29.65Z"/>
          <path class="cls-9" d="m416.26,2539.45c-59.63,0-131.08-8.54-183.7-41.72-8.6-5.42-11.18-16.8-5.75-25.4,5.42-8.6,16.79-11.18,25.4-5.75,93.86,59.2,268.53,27.43,270.28,27.1,10-1.88,19.62,4.72,21.49,14.71,1.88,10-4.7,19.61-14.7,21.49-3.9.73-52.34,9.58-113.02,9.58Z"/>
          <path class="cls-9" d="m323.03,2396.13c-43.35,0-91.95-10.89-135.55-46.29-7.9-6.41-9.1-18.01-2.69-25.9s18.01-9.1,25.9-2.69c93,75.49,220.13,14.5,221.4,13.88,9.14-4.48,20.16-.71,24.65,8.42,4.48,9.13.71,20.17-8.42,24.65-3.69,1.81-58.19,27.94-125.3,27.94Z"/>
        </g>
        <g>
          <path class="cls-15" d="m1904.92,1526.82c83.28,105.71,79.69,502.47-3.4,717.41-83.08,214.94-478.79,127.26-700.66,60.46-221.86-66.8-86.27-572.57-47.23-707.32,60.97-210.43,627.88-227.19,751.28-70.54Z"/>
          <g class="cls-3">
            <path class="cls-9" d="m1200.86,2304.69c221.86,66.81,617.56,154.46,700.69-60.47,10.86-28.16,20.39-59.39,28.49-92.72-74.74,32.12-149.33-34.06-143.89-96.23,17.5-199.85-.97-343.66-30.21-444.89-33.84-117.16-146.07-195.09-267.57-184.6-158.25,13.67-305.33,70.09-334.71,171.6-39.08,134.73-174.66,640.5,47.2,707.3Z"/>
          </g>
          <path class="cls-9" d="m1622.83,2399.04c-132.82,0-288.59-34.96-427.27-76.72-103.76-31.24-149.02-148.04-134.52-347.15,10-137.36,46.26-284.06,74.91-382.93,24.02-82.89,117.75-144.24,263.92-172.75,185.08-36.09,436.32-9.68,519.52,95.94h0c59.73,75.82,65.1,255.51,64.63,329.25-.95,150.98-25.37,302.82-65.32,406.19-42.38,109.64-156.48,148.17-295.87,148.17Zm-57.08-958.41c-52.43,0-106.5,4.81-158.83,15.01-130.03,25.36-215.9,78.88-235.59,146.85-42.14,145.44-164.18,624.63,34.84,684.57,220.47,66.39,601.75,148.22,678.17-49.47,80.54-208.36,83.97-600.53,6.11-699.37-48.05-60.99-180.11-97.59-324.7-97.59Z"/>
          <path class="cls-15" d="m1783.98,1892.38l109.86-13.13c24.83-2.97,46.71,16.47,46.54,41.48-.58,86.04-12.9,261.41-102.98,273.98-109.17,15.23-113.79-107.25-89.6-267.39,2.79-18.45,17.65-32.73,36.18-34.94Z"/>
          <g class="cls-3">
            <path class="cls-9" d="m1748.07,1927.12c-24.58,160.08-20.23,282.61,88.98,267.59,44.84-6.11,70.52-52.68,85.05-108.49-12.43,13.77-27.46,22.99-45.71,25.47-97.76,13.4-111.52-83.41-95.59-218.78-16.91,3.32-30.13,16.95-32.73,34.21Z"/>
          </g>
          <path class="cls-9" d="m1819.77,2214.38c-27.05,0-49.17-8.58-65.96-25.64-39.13-39.76-46.3-118.83-23.96-264.4,4.06-26.51,25.58-47.22,52.32-50.36l109.89-12.88c17.13-2.01,34.31,3.45,47.12,14.96,12.79,11.48,20.03,27.91,19.88,45.08-.93,102.99-17.69,277.85-119.51,291.83-6.86.94-13.45,1.41-19.78,1.41Zm-33.32-303.81c-10.33,1.21-18.64,9.17-20.2,19.36-7.19,46.86-29.06,189.42,13.81,232.98,12.28,12.48,30.11,16.94,54.48,13.58,53.53-7.34,86.31-102.92,87.69-255.67.06-6.69-2.66-12.85-7.66-17.34-5.03-4.52-11.5-6.58-18.23-5.79l-109.89,12.88Z"/>
          <path class="cls-9" d="m1922.27,1581.45c-12.75-.44-25.91-.63-38.9-.7-13.03-.05-26.06.06-39.09.34-26.04.6-52.06,1.9-77.81,4.69h-.08c-5.06.56-9.61-3.1-10.16-8.17-.51-4.7,2.61-8.96,7.11-9.98,26.08-5.96,52.36-10.37,78.7-14.07,13.17-1.83,26.36-3.49,39.57-4.98,13.26-1.49,26.35-2.83,39.88-3.95,10.15-.84,19.06,6.72,19.9,16.87.84,10.15-6.72,19.07-16.87,19.9-.69.06-1.37.07-2.05.06h-.2Z"/>
        </g>
        <g class="cls-2">
          <path class="cls-9" d="m888.97,2229.18c80.46,117.42,212.86,147.83,309.11,160.27,98.49,12.74,423.13-16.85,491.87-229.72-133.36,160.62-422.78,183.82-520.76,171.18-84.17-10.86-191.95-33.56-280.23-101.73Z"/>
        </g>
        <path class="cls-15" d="m1706.16,2038.31c-.1,24.79-1.95,50.05-5.9,76.27-.41,2.72-.87,5.49-1.33,8.26-41.27,246.32-396.92,280.05-500.86,266.6-103.94-13.45-249.1-48.25-327.22-189.91-11.24-20.43-19.92-45.48-26.18-74.63-9.34-43.73-13.14-96.65-11.65-156.65,1.44-58.21,7.8-123.14,18.89-192.99,11.5-72.68,28.08-150.65,49.43-231.85,8.32-31.62,17.96-64.83,28.08-97.93,15.81-51.48,32.85-102.6,48.04-146.7,26.18-75.97,47.07-130.99,47.07-130.99h554.91c-1.44,52.05-.97,100.55,1.03,145.98,4.16,94.39,14.94,175.44,28.54,247.3,18.73,99.22,42.86,180.93,62.36,255.87,1.85,7.03,3.64,14.01,5.39,20.94,10.83,43.17,19.81,84.38,24.89,125.81,3.08,24.64,4.72,49.38,4.52,74.63Z"/>
        <g class="cls-3">
          <path class="cls-9" d="m1704.77,2074.35c-1.18,15.86-3.08,31.98-5.85,48.51-41.27,246.32-396.92,280.05-500.86,266.6-103.94-13.45-249.1-48.25-327.22-189.91-13.14-23.87-22.84-54.15-29.15-89.88,95.42,103.84,229.44,134.02,330.35,147.06,100.71,13.04,509.74,45.5,532.74-182.37Z"/>
        </g>
        <path class="cls-9" d="m1588.61,1168.04c1.49,14.11,2.42,28.18,3.28,42.22.83,14.05,2.07,28.06,2.68,42.07l5.34,83.86c3.68,55.82,9.3,111.47,18.29,166.64,8.84,55.19,20.32,109.92,34.04,164.31,6.76,27.22,14.04,54.36,21.44,81.6,7.26,27.27,14.72,54.58,21.67,82.23,13.87,55.21,26.02,111.99,29.55,170.42,1.69,29.17,1.14,58.6-1.79,87.75l-1.06,10.94-1.56,10.87c-1.15,7.28-1.82,14.39-3.63,21.9l-2.38,11.13c-.75,3.72-1.58,7.42-2.81,11.04l-3.36,10.91c-1.15,3.63-2.13,7.31-3.69,10.8-10.6,28.59-26.37,55.26-45.78,78.48-19.39,23.29-42.24,43.21-66.74,60.04-49.2,33.65-104.37,55.51-160.39,70.51-56.22,14.79-113.68,23.06-171.81,24.69-14.55.4-29.18.17-43.98-.68-7.33-.43-15.07-1.19-22.37-2.15-7.13-1.04-14.27-1.94-21.4-3.11-28.53-4.49-57.05-10.45-85.1-18.72-55.93-16.58-110.65-42.68-155.87-82-22.4-19.75-42.46-42.18-59.44-66.75-4.19-6.17-7.89-12.64-11.84-18.96l-5.82-9.56-5.32-10.34c-6.67-13.91-11.84-28.18-16.17-42.52-8.27-28.75-13.23-57.82-15.92-86.81-2.78-28.99-3.7-57.92-3.43-86.73.46-57.63,6.11-114.72,14.19-171.24,8.1-56.53,18.54-112.61,32-167.92,6.72-27.67,14.28-55.06,22.5-82.33l6.32-20.44,6.86-20.13c4.58-13.41,9.38-26.76,14.33-40.06,1.78-4.78,7.1-7.22,11.88-5.44,4.29,1.59,6.69,6.04,5.86,10.39-2.64,13.91-5.43,27.78-8.43,41.58l-4.51,20.7-4.25,20.6c-5.63,27.51-11.35,55.05-16.69,82.59-10.76,55.07-20.98,110.19-28.17,165.63-7.21,55.42-11.98,111.09-12.78,166.5-.3,27.69.56,55.32,3.13,82.58,2.54,27.26,6.87,54.17,14.07,79.79,3.74,12.72,8.16,25.11,13.61,36.73l4.3,8.53,5.16,8.57c3.51,5.67,6.75,11.53,10.45,17.07,14.99,22.07,32.78,42.04,52.66,59.76,40.19,35.16,89.53,59.37,141.71,74.84,26.19,7.62,53.11,13.18,80.4,17.39,6.81,1.09,13.7,1.93,20.55,2.92,6.7.85,13.03,1.45,19.8,1.84,13.4.72,27.04.91,40.74.49,54.81-1.7,109.94-9.8,162.94-23.96,52.89-14.31,104.21-35.1,148.34-65.54,21.99-15.21,42.03-32.89,58.75-53.1,16.74-20.18,30.04-42.9,39.02-67.33,1.35-2.96,2.14-6.14,3.11-9.25l2.85-9.35c1.07-3.08,1.76-6.27,2.38-9.49l2.02-9.6c1.55-6.23,2.2-13.23,3.23-19.9l1.44-10.1.96-10.15c2.7-27.06,3.2-54.31,1.6-81.55-3.33-54.53-14.86-108.81-28.56-163.08-13.86-54.28-29.43-108.8-42.67-164.17-13.55-55.28-24.92-111.34-33.57-167.81-8.68-56.47-14.46-113.39-17.25-170.39-1.31-28.5-1.57-57.05-.5-85.54.27-7.12.59-14.24,1.04-21.36.5-7.11.63-14.23,1.42-21.33,1.34-14.2,2.75-28.38,4.72-42.52.7-5.07,5.38-8.6,10.45-7.9,4.3.6,7.5,4.06,7.94,8.2l.02.22Z"/>
        <circle class="cls-15" cx="822.29" cy="1885.14" r="70.88" transform="translate(-1092.15 1133.59) rotate(-45)"/>
        <g class="cls-3">
          <path class="cls-9" d="m752.02,1875.98c-5.05,38.82,22.29,74.41,61.11,79.46,38.82,5.05,74.42-22.35,79.47-61.16,1.4-10.72.32-21.26-2.85-30.93-14.37,22.27-40.76,35.59-68.79,31.94-28.04-3.65-50.13-23.28-58.27-48.48-5.54,8.54-9.27,18.44-10.67,29.17Z"/>
        </g>
        <path class="cls-9" d="m822.48,1974.44c-3.89,0-7.8-.25-11.71-.76-23.65-3.08-44.69-15.19-59.24-34.08-14.55-18.9-20.86-42.34-17.78-65.99h0c6.36-48.83,51.26-83.38,100.07-77.02,23.65,3.08,44.69,15.19,59.24,34.08,14.55,18.9,20.86,42.34,17.78,65.99-3.08,23.65-15.19,44.69-34.09,59.23-15.77,12.14-34.7,18.54-54.27,18.54Zm-52.21-96.08c-1.81,13.9,1.9,27.66,10.45,38.77,8.54,11.1,20.91,18.21,34.8,20.02,13.91,1.8,27.66-1.9,38.77-10.45,11.1-8.54,18.21-20.9,20.02-34.8,1.81-13.9-1.9-27.66-10.45-38.77-8.54-11.1-20.91-18.21-34.8-20.02-13.88-1.79-27.67,1.9-38.76,10.45-11.11,8.54-18.22,20.9-20.03,34.8h0Z"/>
        <g class="cls-5">
          <path class="cls-9" d="m798.29,1935.57c18.66-86.25,26.2-166.82,27-238.91-4.36,41.39-11.01,84.7-20.75,129.61-11.37,52.68-17.3,108.04-15.76,162.87,2.5-18.04,5.72-35.96,9.5-53.57Z"/>
        </g>
        <path class="cls-15" d="m863.61,2090.41l403.72,46.03c47.78,5.46,91.37-29.18,96.84-77.03l24.48-214.84c4.78-41.89-21.21-80.48-59.86-93.1-5.47-1.83-11.21-3.05-17.17-3.74l-403.66-46.02c-47.84-5.47-91.44,29.18-96.84,77.03l-19.43,170.16-5.11,44.68c-5.47,47.84,29.24,91.38,77.03,96.84Z"/>
        <path class="cls-15" d="m1705.45,1893.03s46.19,19.5,41.07,81.38c-4.01,48.49-27.74,67.27-27.74,67.27,0,0-167.42,45.22-374.75-23.18,0,0-38.51-19.82-37.88-77.8.24-22.15,15.66-54.91,47.04-60.29,0,0,189.36,49.97,352.26,12.63Z"/>
        <path class="cls-15" d="m863.61,2090.41l403.72,46.03c47.78,5.46,91.37-29.18,96.84-77.03l24.48-214.84c4.78-41.89-21.21-80.48-59.86-93.1-5.47-1.83-11.21-3.05-17.17-3.74l-403.66-46.02c-47.84-5.47-91.44,29.18-96.84,77.03l-19.43,170.16-5.11,44.68c-5.47,47.84,29.24,91.38,77.03,96.84Z"/>
        <path class="cls-15" d="m1705.45,1893.03s46.19,19.5,41.07,81.38c-4.01,48.49-27.74,67.27-27.74,67.27,0,0-167.42,45.22-374.75-23.18,0,0-38.51-19.82-37.88-77.8.24-22.15,15.66-54.91,47.04-60.29,0,0,189.36,49.97,352.26,12.63Z"/>
        <path class="cls-15" d="m863.61,2090.41l403.72,46.03c47.78,5.46,91.37-29.18,96.84-77.03l24.48-214.84c4.78-41.89-21.21-80.48-59.86-93.1-5.47-1.83-11.21-3.05-17.17-3.74l-403.66-46.02c-47.84-5.47-91.44,29.18-96.84,77.03l-19.43,170.16-5.11,44.68c-5.47,47.84,29.24,91.38,77.03,96.84Z"/>
        <g class="cls-3">
          <path class="cls-9" d="m1700.26,2114.59c-61.85,7.49-170.46,11.39-296.01-25.41l-3.8,33.47c-5.44,47.84-49.07,82.48-96.8,77.04l-403.75-46.04c-22.12-2.57-41.42-13.24-55.23-28.74-9.34-43.73-13.14-96.65-11.65-156.65l14.42-126.27c5.39-47.89,48.97-82.54,96.81-77.04l403.7,46.04c5.95.67,11.7,1.9,17.14,3.75,38.65,12.58,64.62,51.17,59.85,93.06l-4.88,42.76c53.64,10.93,169.69,29.41,281.59,13.14,6.06,48.81,6.62,97.93-1.39,150.91Z"/>
        </g>
        <path class="cls-15" d="m863.61,2090.41l403.72,46.03c47.78,5.46,91.37-29.18,96.84-77.03l24.48-214.84c4.78-41.89-21.21-80.48-59.86-93.1-5.47-1.83-11.21-3.05-17.17-3.74l-403.66-46.02c-47.84-5.47-91.44,29.18-96.84,77.03l-19.43,170.16-5.11,44.68c-5.47,47.84,29.24,91.38,77.03,96.84Z"/>
        <g class="cls-3">
          <path class="cls-9" d="m863.6,2090.41l403.72,46.03c47.78,5.46,91.38-29.18,96.84-77.03l24.48-214.84c4.78-41.89-21.21-80.48-59.86-93.1-24.66,12.61-40.33,20.69-40.33,20.69-39.32,170.21-98.23,250.61-312.77,229.69-92.61-9.05-149.35-29.8-184-52.97l-5.11,44.68c-5.47,47.84,29.24,91.38,77.03,96.84Z"/>
        </g>
        <path class="cls-9" d="m1290.62,2157.05c-3.45,0-6.91-.2-10.39-.6l-433.74-49.46c-24.02-2.73-45.58-14.72-60.71-33.75-15.13-19.02-21.95-42.73-19.21-66.74l27.93-244.92c2.74-24.02,14.72-45.58,33.75-60.71,19.02-15.13,42.71-21.96,66.74-19.21l433.74,49.46c49.74,5.67,85.59,50.75,79.92,100.49l-27.93,244.92c-2.73,24.02-14.72,45.58-33.75,60.7-16.27,12.94-35.97,19.8-56.36,19.81Zm-405.96-439.14c-27.04,0-50.43,20.36-53.57,47.85l-27.93,244.92c-1.62,14.24,2.45,28.32,11.45,39.65,9.01,11.32,21.81,18.45,36.05,20.08l433.74,49.46c14.26,1.63,28.33-2.45,39.65-11.45,11.32-9.01,18.45-21.81,20.08-36.05l27.93-244.92c3.37-29.57-17.94-56.36-47.5-59.73l-433.74-49.46c-2.07-.23-4.13-.35-6.16-.35Z"/>
        <path class="cls-15" d="m847.58,2086.97c5.11,1.68,10.43,2.83,16.02,3.44l403.72,46.03c35.02,3.98,67.77-13.52,84.92-42.07,6.25-10.37,10.44-22.19,11.86-34.96l10.92-95.44,3.6-31.49,10.02-87.91c5.47-47.84-29.24-91.38-77.03-96.84l-87.24-9.92c39.35,12.16,65.92,51.1,61.12,93.41l-13.2,116.05-11.29,98.85c-5.46,47.78-49.06,82.49-96.84,77.03l-316.6-36.17Z"/>
        <g class="cls-3">
          <path class="cls-9" d="m847.58,2086.97c5.11,1.68,10.43,2.83,16.02,3.44l403.72,46.03c47.78,5.46,91.38-29.18,96.78-77.03l14.52-126.93c-12.71,21.27-34.09,46.72-63.61,46.28-16.2-.2-30.65-13.53-42.7-31.49l-11.29,98.85c-5.46,47.78-49.06,82.49-96.84,77.03l-316.6-36.17Z"/>
        </g>
        <path class="cls-9" d="m1277.37,2155.44c-4.03,0-8.09-.23-12.14-.7l-403.72-46.04c-6.59-.71-13.22-2.12-19.6-4.18l7.73-35.83,316.64,36.13c18.19,2.09,36.22-3.12,50.72-14.64,14.5-11.53,23.63-27.93,25.69-46.16l24.5-214.88c3.75-32.92-16.53-63.96-48.24-73.79l7.54-35.88,87.2,9.93c28.03,3.21,53.17,17.2,70.82,39.38,17.66,22.2,25.62,49.86,22.41,77.87l-24.5,214.86c-3.18,28.02-17.16,53.17-39.37,70.83-18.98,15.09-41.94,23.1-65.69,23.1Zm-33.01-40.15l25.04,2.86c18.23,2.09,36.23-3.11,50.73-14.64,14.5-11.53,23.63-27.93,25.69-46.16h0s24.5-214.88,24.5-214.88c2.09-18.24-3.11-36.26-14.64-50.76-11.53-14.5-27.93-23.63-46.18-25.72l-22.31-2.54c13.13,20.09,19.47,44.61,16.59,69.86l-24.5,214.87c-2.96,26.1-15.3,49.72-34.93,67.11Z"/>
        <path class="cls-11" d="m1113.88,1922.26c-.86,7.95,3.37,73.34,3.37,73.34,0,0,20.33,2.2,45.29,4.9,31.19,3.37,59.97-26.18,64.28-66.02,4.31-39.83-17.48-74.86-48.67-78.24-21.05-2.28-45.29-4.9-45.29-4.9,0,0-17.58,57.97-18.98,70.92Z"/>
        <g class="cls-5">
          <path class="cls-9" d="m1113.88,1922.26c-.86,7.95,3.37,73.34,3.37,73.34,0,0,20.33,2.2,45.29,4.9,31.19,3.37,59.97-26.18,64.28-66.02,4.31-39.83-17.48-74.86-48.67-78.24-21.05-2.28-45.29-4.9-45.29-4.9,0,0-17.58,57.97-18.98,70.92Z"/>
        </g>
        <path class="cls-9" d="m1167.33,2014.57c-2.08,0-4.17-.11-6.27-.34l-31.46-3.4c-14.76-1.59-26.11-13.49-27-28.29-3.28-54.12-2.68-59.67-2.45-61.76h0c.84-7.75,6.06-27.97,15.52-60.11,4.15-14.08,17.74-23.21,32.34-21.58l31.63,3.42c19.4,2.09,36.41,13.42,47.89,31.88,10.82,17.39,15.44,39.25,13.02,61.57-4.84,44.77-37,78.6-73.22,78.6Zm-39.72-90.87c-.23,3.08.3,19.87,2.56,57.18.08,1.3,1.08,2.35,2.39,2.49l31.46,3.4c23.58,2.54,45.58-21.57,49.06-53.77,1.75-16.21-1.45-31.84-9.02-44.01-6.9-11.09-16.64-17.84-27.4-19.01l-31.63-3.42c-1.3-.14-2.5.66-2.87,1.92-9.96,33.83-14.05,50.69-14.56,55.22Z"/>
        <ellipse class="cls-11" cx="1125.05" cy="1923.47" rx="72.55" ry="56.8" transform="translate(-908.29 2835.06) rotate(-83.82)"/>
        <g class="cls-7">
          <path class="cls-15" d="m1068.19,1932.31c8.91-32.17,34.25-54.28,61.44-51.33,27.3,2.96,47.35,30.07,49.09,63.49,1.33-4.75,2.27-9.73,2.83-14.89,4.26-39.84-17.53-74.87-48.71-78.23-31.19-3.37-59.95,26.15-64.27,65.99-.56,5.1-.67,10.11-.38,14.97Z"/>
        </g>
        <g class="cls-5">
          <path class="cls-9" d="m1117.23,1995.57c31.18,3.42,60-26.15,64.32-65.99.97-9.16.59-18.02-.97-26.37-11.05,26.2-33.72,43.16-57.75,40.53-24.03-2.63-42.48-23.95-47.69-51.86-3.32,7.74-5.61,16.35-6.57,25.46-4.32,39.84,17.47,74.86,48.66,78.23Z"/>
        </g>
        <path class="cls-9" d="m1122.04,2009.67c-2.08,0-4.17-.11-6.27-.34-19.4-2.09-36.41-13.42-47.89-31.88-10.82-17.39-15.44-39.25-13.02-61.57,5.12-47.34,40.82-82.5,79.49-78.26,38.71,4.18,66.04,46.11,60.91,93.45-4.84,44.77-37,78.6-73.22,78.6Zm5.91-144.78c-22.24,0-42.32,23.33-45.63,53.96-1.75,16.22,1.45,31.84,9.02,44.01,6.9,11.09,16.63,17.84,27.4,19.01,23.63,2.53,45.58-21.57,49.06-53.77,3.48-32.2-12.86-60.47-36.42-63.02-1.15-.12-2.29-.19-3.43-.19Z"/>
        <path class="cls-9" d="m989.3,2116.98c-.41,0-.83-.02-1.25-.06-7.6-.68-13.2-7.4-12.51-15l9.82-108.97c1.87-20.69-6.71-40.8-22.93-53.78-24.05-19.24-36.39-49-33.01-79.62l16.94-153.3c.84-7.58,7.56-13,15.25-12.21,7.58.84,13.05,7.67,12.21,15.25l-16.94,153.29c-2.34,21.16,6.19,41.73,22.81,55.02,23.48,18.79,35.88,47.88,33.18,77.83l-9.82,108.97c-.64,7.17-6.67,12.57-13.74,12.57Z"/>
        <path class="cls-15" d="m1539.39,3096.96c-227.74-50.61-131.86-265.88-128.58-272.96v-.05c.05-.1.05-.15.05-.15-269.22-162.92-250.64-441.58-186.99-589.76l464.67-72.63c-20.33,49.22-33.06,92.75-39.83,131.61-40.34,230.31,126.68,297.4,155.63,410.27,42.91,166.92,15.14,455.9-264.96,393.69Z"/>
        <g class="cls-3">
          <path class="cls-9" d="m1539.39,3096.96c-227.74-50.61-131.86-265.88-128.58-272.96,51.59,18.94,137.61,40.5,217.68,13.96-3.95,1.49-145.72,56.31-113.69,122.16,49.84,102.35,225.74,35.31,250.12-58.87,24.33-94.19,8.62-217.38-58.67-286.21-59.59-60.98-102.09-212.34-57.54-322.03-40.34,230.31,126.68,297.4,155.63,410.27,42.91,166.92,15.14,455.9-264.96,393.69Z"/>
        </g>
        <path class="cls-9" d="m1232.35,2237.67c-14.8,53.65-25.2,107.45-28.18,161.89-1.39,27.18-.94,54.39,1.71,81.36,2.85,26.94,7.77,53.64,15.28,79.6,7.5,25.97,17.71,51.11,30.3,75.01,12.66,23.87,27.93,46.33,45.14,67.2,17.24,20.86,36.44,40.16,57.18,57.77,20.94,17.4,43.32,33.13,66.59,47.53h0s13.8,8.85,13.8,8.85l-6.64,14.68c-1.22,2.7-2.74,6.49-4.01,9.88-1.32,3.48-2.56,7.04-3.73,10.61-2.39,7.14-4.38,14.43-6.19,21.74-3.51,14.64-5.91,29.49-6.81,44.27-1.86,29.5,2.72,58.86,16.09,83.45,6.66,12.28,15.46,23.28,25.9,32.79,10.41,9.52,22.35,17.74,35.55,24.14,26.03,13.48,55.99,20.78,86.2,25.45,30.09,4.44,60.48,4.51,88.88-2.02,28.54-6.13,54.23-20.36,74.92-40.3,10.24-10.14,19.11-21.74,26.98-34.13,7.39-12.74,14.17-25.99,19.25-40.17,1.46-3.44,2.53-7.08,3.71-10.66,1.12-3.61,2.43-7.14,3.4-10.81,1.89-7.35,4.05-14.62,5.45-22.14,3.38-14.87,5.3-30.15,6.95-45.43,2.68-30.69,2.7-61.83-.3-92.71-1.34-15.46-3.67-30.8-6.31-46.06-1.58-7.56-2.9-15.21-4.81-22.67-.94-3.64-1.69-7.75-2.77-11.01-1.1-3.34-1.9-6.74-3.19-10.05-9.61-26.75-28.22-51.67-47.46-76.72-19.43-25.08-40.24-50.59-58.03-78.98-8.93-14.14-17.25-28.88-24.21-44.38-3.73-7.63-6.64-15.65-9.8-23.56-1.47-4-2.71-8.09-4.06-12.13-1.36-4.04-2.68-8.1-3.66-12.26-8.94-32.95-12.62-67.27-11.08-100.94,1.44-33.69,7-66.82,15.4-98.86,8.46-32.04,19.48-63.09,31.73-93.51,3.8-9.43,14.52-14,23.96-10.21,9.43,3.8,14,14.53,10.21,23.96l-.12.3c-11.72,29.13-22.19,58.67-30.13,88.72-7.88,30.04-12.94,60.6-14.25,91.06-1.4,30.47,1.96,60.72,9.79,89.72.85,3.66,2.02,7.23,3.23,10.8,1.2,3.56,2.27,7.17,3.57,10.7,2.82,6.99,5.35,14.08,8.69,20.88,6.18,13.79,13.67,27.08,21.87,40.07,16.31,26.08,36.13,50.47,56.01,76.09,9.92,12.85,19.88,26.05,29.12,40.25,9.23,14.17,17.73,29.53,23.83,46.43,1.6,4.17,2.73,8.59,4.09,12.88,1.37,4.39,2.05,8.2,3.1,12.33,2.06,8.09,3.48,16.28,5.18,24.43,2.84,16.36,5.32,32.78,6.76,49.31,3.2,33.01,3.21,66.34.3,99.59-1.78,16.61-3.89,33.23-7.6,49.69-1.56,8.27-3.93,16.41-6.06,24.59-1.08,4.09-2.55,8.1-3.81,12.15-1.32,4.04-2.54,8.11-4.2,12.06-5.78,16.06-13.59,31.53-22.34,46.51-9.29,14.73-20,28.75-32.61,41.21-25.38,24.7-58.07,42.52-92.37,49.86-34.25,7.86-69.17,7.48-102.48,2.6-33.05-5.14-66.4-13.04-97.6-29.06-31.17-15.27-59.85-40.17-77.19-72.27-17.43-32.12-22.61-68.8-20.45-103.12,1.05-17.27,3.81-34.22,7.79-50.78,2.04-8.27,4.3-16.47,7-24.55,1.33-4.05,2.73-8.08,4.25-12.1,1.56-4.13,2.99-7.8,5.08-12.41l7.16,23.52h0c-24.78-15.32-48.72-32.14-71.25-50.87-22.34-18.96-43.15-39.85-61.89-62.53-37.56-45.32-66.11-98.36-83.25-154.79-17.41-56.36-23.56-116.01-18.62-174.36,4.84-58.24,19.79-116.15,49.13-166.6,2.57-4.43,8.25-5.93,12.68-3.36,3.72,2.16,5.38,6.51,4.28,10.48l-.04.15Z"/>
        <path class="cls-9" d="m1379.71,2640.99c-65.11,0-128.02-19.5-186.47-58.36-8.47-5.63-10.77-17.06-5.14-25.53,5.63-8.48,17.08-10.76,25.53-5.14,93.89,62.42,196.49,69.26,305,20.35,82.7-37.29,138.04-94.56,138.58-95.14,7.03-7.34,18.68-7.62,26.04-.59,7.35,7.02,7.63,18.66.62,26.02-2.41,2.53-60.07,62.41-148.98,102.78-52.34,23.76-104.42,35.62-155.17,35.62Z"/>
        <path class="cls-9" d="m1638.45,2843.89c-9.84,4.58-18.97,7.57-28.67,10.46-9.62,2.65-19.34,4.99-29.19,6.56-19.67,3.29-39.69,4.8-59.71,4.21-5.01-.02-9.99-.57-15-.84l-7.51-.51c-2.5-.24-4.97-.63-7.46-.94l-14.93-1.99-14.76-2.96c-9.95-1.7-19.46-4.88-29.22-7.42-9.63-2.87-18.99-6.52-28.54-9.79-9.63-3.3-14.77-13.79-11.47-23.42,3.3-9.64,13.79-14.77,23.42-11.47.43.15.85.31,1.26.48l1.53.66c8.33,3.58,16.54,7.61,25.03,10.89,8.58,2.94,17.01,6.61,25.84,8.82l13.15,3.77,13.37,2.87c2.24.46,4.46,1.01,6.71,1.41l6.77,1c4.52.6,9.03,1.49,13.59,1.87,18.19,2.01,36.6,2.1,54.9.54,9.17-.7,18.24-2.15,27.26-3.86,8.83-1.83,18.14-4.21,25.94-7.08l.62-.23c4.76-1.76,10.05.68,11.81,5.45,1.67,4.52-.47,9.51-4.75,11.52Z"/>
        <path class="cls-15" d="m2482.24,1776.69c-89.62,81.56-484.38,254.38-805.49,61.18-18.27-10.98-36.34-23.15-54.1-36.65l-87.26-217.73-118.93-296.73,163.99,27,67.19,11.04s59.49,70.47,156.7,124.83c109.74,61.34,267.37,102.09,441.63-2.46,7.03-4.21,14.12-8.67,21.2-13.4,85.46-56.67,119.65-198.74,212.76-151.62,214.35,108.51,225.84,291.08,2.31,494.55Z"/>
        <g class="cls-3">
          <path class="cls-9" d="m2482.24,1776.69c-89.62,81.56-484.38,254.38-805.49,61.18,10.83,43.17,19.81,84.38,24.89,125.81,3.08,24.64,4.72,49.38,4.52,74.63l-65.44-16.27-18.07-220.81s18.02,6.62,48.71,15.71c118.36,34.9,425.56,106.25,620.3-23.15,175.85-116.87-56.1-183.86-49.48-283.69,1.44-21.46,2.67-42.76,3.8-62.93,7.03-4.21,14.12-8.67,21.2-13.4,85.46-56.67,119.65-198.74,212.76-151.62,214.35,108.51,225.84,291.08,2.31,494.55Z"/>
        </g>
        <path class="cls-9" d="m1628.2,1793.89c12.02,5.44,23.38,11.52,34.52,17.8,11.64,5.5,22.73,11.72,34,17.57,5.72,2.77,11.43,5.55,17.07,8.44,5.72,2.74,11.13,6.07,17,8.48l17.27,7.93,8.63,3.97c2.91,1.24,5.89,2.32,8.84,3.49,46.97,19.03,96.41,31.87,146.73,38.9,50.33,7.24,101.59,7.77,152.45,4.06,50.92-3.68,101.48-12.73,151-25.6,24.73-6.53,49.27-13.9,73.33-22.59,24.11-8.52,47.86-18.05,70.95-28.82,23.1-10.71,45.72-22.45,67.03-35.64,5.34-3.29,10.62-6.63,15.65-10.19,5.21-3.42,10.01-7.11,14.84-10.78,2.51-1.79,4.6-3.76,6.86-5.64,2.23-1.9,4.44-3.7,6.8-6.02l13.95-13.15c36.7-35.42,70.46-73.9,96.48-116.39,12.97-21.21,23.86-43.44,31.5-66.38,7.59-22.92,11.87-46.6,11.34-69.97-.78-23.33-6.06-46.26-16.02-67.43-10.12-21.11-24.4-40.49-41.42-57.71-17.02-17.24-36.68-32.35-57.72-45.64-10.58-6.58-21.36-12.91-32.54-18.67-5.85-3.18-10.43-5.43-15.14-7.11-2.36-.83-4.7-1.69-6.99-2.07-2.31-.68-4.55-.87-6.77-1.1-2.24-.34-4.37-.04-6.55-.1-2.12.4-4.29.37-6.39,1.08-4.26.84-8.51,2.85-12.82,5.13-8.6,4.95-17.17,12.31-25.32,20.99-16.35,17.46-31.38,38.69-47.77,59.67-16.42,20.99-34.2,42.43-56.9,60.58-2.81,2.28-5.69,4.5-8.74,6.57l-4.5,3.17-4.34,2.7-17.33,10.68c-11.34,7.45-23.68,13.32-35.69,19.73-3.03,1.55-6,3.22-9.08,4.66l-9.4,4.08-18.81,8.12c-6.28,2.67-12.88,4.62-19.31,6.96-6.51,2.12-12.84,4.77-19.5,6.42-13.3,3.39-26.4,7.52-40.01,9.61-6.76,1.19-13.48,2.68-20.28,3.59l-20.49,2.27c-27.36,2.31-55,2.55-82.25-.76l-10.23-1.05c-3.4-.43-6.76-1.09-10.14-1.62-6.74-1.19-13.53-2.14-20.22-3.54l-19.98-4.62c-6.68-1.46-13.13-3.7-19.71-5.52-52.35-15.53-101.25-40.18-146.14-69.92-22.43-14.95-43.84-31.31-64.23-48.84-10.26-8.69-20.1-17.88-29.81-27.22-4.82-4.72-9.59-9.49-14.28-14.38-4.74-5.02-9.17-9.69-14.03-15.41h0s11.08,6.28,11.08,6.28l-231.21-38.03c-10.04-1.65-16.83-11.12-15.18-21.16,1.65-10.04,11.12-16.83,21.16-15.18l231.21,38.03,6.57,1.08,4.51,5.21h0c3.65,4.21,8.24,9.01,12.53,13.45,4.4,4.5,8.92,8.93,13.49,13.31,9.23,8.68,18.59,17.26,28.37,25.36,19.42,16.36,39.81,31.58,61.02,45.43,42.36,27.7,88.06,50.32,136.14,64.25,6.03,1.62,11.97,3.68,18.08,4.95l18.26,4.12c6.11,1.24,12.28,2.04,18.42,3.1,3.07.47,6.14,1.06,9.22,1.44l9.28.88c24.71,2.89,49.64,2.47,74.31.26l18.47-2.14c6.14-.85,12.19-2.27,18.3-3.37,12.28-1.9,24.13-5.8,36.16-8.89,6.03-1.51,11.78-4.01,17.69-5.96,5.84-2.17,11.82-3.93,17.54-6.42l17.15-7.54,8.58-3.74c2.83-1.32,5.56-2.88,8.35-4.31,11.04-5.93,22.39-11.26,32.9-18.23l16.06-9.9,3.99-2.47,3.5-2.49c2.37-1.59,4.66-3.37,6.92-5.21,18.25-14.55,34.32-33.54,50.01-53.69,15.82-20.18,30.92-41.88,50.29-62.69,9.75-10.32,20.96-20.51,35.05-28.63,13.98-8.02,32.16-13.1,49.42-11.32,4.29.4,8.55.92,12.56,1.98,4.16.81,7.99,2.12,11.8,3.46,7.6,2.69,14.75,6.33,20.38,9.39,12.07,6.22,23.86,13.11,35.48,20.34,23.15,14.61,45.29,31.49,65.04,51.45,19.72,19.92,37.02,43.09,49.51,69.18,12.36,26.13,19.12,55.17,20.02,84.08.69,28.97-4.58,57.47-13.38,84.12-8.82,26.72-21.32,51.64-35.71,74.94-28.91,46.65-65.03,87.15-103.64,124.11l-14.65,13.68c-2.31,2.26-5.15,4.61-7.91,6.94-2.76,2.29-5.49,4.76-8.31,6.77-5.6,4.23-11.2,8.46-16.94,12.19-5.67,3.96-11.45,7.58-17.26,11.12-23.22,14.22-47.16,26.48-71.54,37.64-24.36,11.21-49.24,21.06-74.47,29.84-25.17,8.95-50.8,16.53-76.64,23.22-51.73,13.19-104.58,22.4-158.01,26.02-53.37,3.65-107.31,2.83-160.52-5.05-53.19-7.68-105.65-21.54-155.51-42.02-3.12-1.26-6.29-2.43-9.38-3.77l-9.17-4.26-18.33-8.53c-6.16-2.74-11.95-6.23-17.83-9.52-5.87-3.3-11.67-6.73-17.46-10.16-11.3-7.33-22.16-15.35-32.81-23.5-10.3-8.67-20.16-17.89-29.47-27.55-3.57-3.7-3.46-9.59.24-13.16,2.82-2.72,6.91-3.3,10.28-1.79l.62.28Z"/>
        <g>
          <g class="cls-3">
            <path class="cls-9" d="m1804.35,1449.63c-59.54,48.66-125.7,85.82-195.35,111.43-24.18,8.88-48.71,16.37-73.61,22.43-107.94,26.49-221.48,26.69-330.04.26-12.73-3.08-25.36-6.57-37.98-10.37-3.39-1.03-6.83-2.1-10.21-3.23-30.95-9.96-61.34-22.12-90.95-36.6-27.2-13.29-53.79-28.44-79.46-45.58-19.66-13.04-38.8-27.2-57.33-42.5-9.55-7.9-18.94-16.12-28.18-24.59-8.93-8.32-17.66-16.73-26.02-25.36-6.62-6.78-13.04-13.6-19.3-20.58,38.75-16.37,79.25-41.06,121.54-76.17,26.18-75.97,47.07-130.99,47.07-130.99h80.07c126.42-144.59,178.88-160.4,178.88-160.4l-34.29,160.4h330.25c-1.44,52.05-.97,100.55,1.03,145.98l67.19,11.04s59.49,70.47,156.7,124.83Z"/>
          </g>
          <g>
            <path class="cls-15" d="m680.39,949.37c17.25,111.58,62.82,219.51,136.25,312.63,14.98,18.98,31.05,37.33,48.29,54.95,8.36,8.6,17.09,17.03,26.04,25.35,27.1,24.95,55.68,47.3,85.49,67.09,25.65,17.12,52.24,32.29,79.45,45.58,32.85,16.07,66.72,29.31,101.2,39.83,12.59,3.8,25.24,7.25,37.95,10.37,232.78,56.58,488.3-9,662.88-193.57,257.23-271.84,241.29-698.86-35.48-953.76-53.34-49.06-112.47-88.28-175.04-117.44-7.28-3.48-14.69-6.76-22.16-9.88-19.92-8.49-40.13-16-60.57-22.52-47.29-15.06-95.86-24.86-144.72-29.49-48.83-4.68-98.07-4.17-146.67,1.5-15.45,1.79-30.84,4.09-46.19,6.94-22.99,4.28-45.77,9.66-68.33,16.32-112.42,32.82-217.62,94.7-303.29,185.29-147.98,156.37-205.53,364.06-175.11,560.82Z"/>
            <path class="cls-9" d="m1359.13,1526.7c-54.76,0-109.97-6.46-164.5-19.71-12.73-3.13-25.54-6.63-38.05-10.4-34.95-10.67-69.09-24.1-101.48-39.94-27.69-13.52-54.49-28.9-79.67-45.7-30.09-19.98-58.93-42.61-85.71-67.27-9.81-9.14-18.35-17.45-26.11-25.43-16.92-17.29-33.21-35.83-48.42-55.09-71.74-90.98-118.99-199.38-136.63-313.5-31.82-205.85,32.18-410.83,175.59-562.38,82.92-87.67,188.09-151.92,304.13-185.79,21.95-6.48,45-11.98,68.51-16.36,15.05-2.8,30.63-5.14,46.31-6.96,48.72-5.68,98.2-6.18,147.06-1.5,49.32,4.67,98.14,14.62,145.1,29.58,20.44,6.51,40.87,14.11,60.74,22.58,7.82,3.27,15.31,6.61,22.24,9.91,63.85,29.76,122.9,69.38,175.5,117.75,134.77,124.12,212.42,292.36,218.65,473.74,6.19,179.94-58.84,351.35-183.09,482.66-130.58,138.05-312.67,213.81-500.17,213.81Zm-676.9-577.61c17.54,113.48,64.53,221.29,135.88,311.77,15.13,19.16,31.33,37.6,48.16,54.8,7.72,7.93,16.22,16.21,25.98,25.29,26.63,24.52,55.31,47.03,85.24,66.91,25.04,16.71,51.71,32,79.25,45.45,32.21,15.75,66.17,29.12,100.93,39.73,12.44,3.75,25.18,7.23,37.85,10.34,240.01,58.32,493.3-15.64,661.09-193.05,123.56-130.58,188.23-301.05,182.08-479.98-6.2-180.38-83.43-347.7-217.46-471.14-52.31-48.11-111.05-87.52-174.57-117.13-6.89-3.29-14.32-6.6-22.09-9.85-19.77-8.43-40.1-15.98-60.42-22.46-46.71-14.87-95.27-24.77-144.33-29.41-48.6-4.66-97.82-4.16-146.28,1.49-15.6,1.81-31.1,4.14-46.06,6.92-23.38,4.36-46.31,9.83-68.14,16.27-115.41,33.69-220,97.58-302.47,184.78-142.62,150.71-206.26,354.55-174.62,559.26Z"/>
          </g>
          <g class="cls-3">
            <path class="cls-9" d="m1857.96,1311.59c-174.57,184.61-430.13,250.18-662.89,193.57-12.72-3.1-25.36-6.55-37.93-10.36-34.5-10.51-68.35-23.78-101.21-39.82-27.2-13.31-53.82-28.47-79.45-45.57-29.83-19.79-58.4-42.14-85.52-67.1-8.91-8.35-17.65-16.76-26.04-25.34-17.24-17.64-33.27-36.01-48.27-54.98-73.44-93.13-119.03-201.03-136.26-312.64-9.49-61.3-10.43-123.7-2.75-185.25,18.92,106.13,63.63,208.41,133.69,297.26,14.96,19.02,31.03,37.34,48.27,54.98,8.35,8.59,17.08,16.99,26.04,25.34,27.12,24.96,55.69,47.31,85.47,67.1,25.68,17.1,52.25,32.26,79.45,45.57,32.86,16.04,66.76,29.31,101.21,39.82,12.61,3.8,25.25,7.25,37.97,10.35,232.76,56.61,488.28-8.96,662.89-193.57,101.89-107.66,160.87-239.68,177.8-375.66,36.01,201.32-20.64,415.86-172.48,576.3Z"/>
          </g>
          <path class="cls-9" d="m1359.11,1539.12c-55.74,0-111.91-6.57-167.42-20.06-12.97-3.19-25.98-6.74-38.7-10.58-35.62-10.87-70.38-24.55-103.35-40.68-28.18-13.76-55.47-29.42-81.11-46.53-30.62-20.33-59.97-43.37-87.23-68.46-10.02-9.32-18.7-17.78-26.61-25.9-17.2-17.58-33.78-36.45-49.26-56.06-73.07-92.66-121.19-203.07-139.16-319.3h0c-32.41-209.67,32.77-418.45,178.84-572.81,84.43-89.27,191.52-154.69,309.67-189.17,22.32-6.59,45.79-12.19,69.72-16.65,15.33-2.85,31.19-5.23,47.15-7.08,49.58-5.78,99.95-6.29,149.68-1.53,50.19,4.76,99.88,14.89,147.69,30.1,20.81,6.63,41.62,14.37,61.84,22.99,7.93,3.32,15.61,6.74,22.72,10.13,64.9,30.25,125.02,70.58,178.55,119.82,137.24,126.39,216.31,297.73,222.66,482.45,6.3,183.28-59.93,357.88-186.48,491.62-132.94,140.55-318.34,217.69-509.21,217.69Zm-664.61-591.92c17.22,111.37,63.34,217.18,133.36,305.97,14.85,18.81,30.76,36.92,47.29,53.81,7.6,7.81,15.95,15.94,25.56,24.89,26.09,24.03,54.26,46.13,83.65,65.65,24.61,16.42,50.79,31.44,77.83,44.64,31.63,15.47,64.97,28.59,99.1,39.01,12.2,3.68,24.73,7.1,37.19,10.16,235.65,57.28,484.38-15.35,649.11-189.52,121.26-128.15,184.72-295.43,178.69-471.02-6.09-177.03-81.89-341.26-213.46-462.43-51.37-47.24-109.04-85.94-171.4-115-6.81-3.25-14.05-6.48-21.64-9.65-19.49-8.31-39.45-15.73-59.4-22.09-45.86-14.6-93.55-24.32-141.73-28.88-47.74-4.57-96.07-4.08-143.67,1.46-15.33,1.78-30.54,4.06-45.23,6.79-22.96,4.28-45.47,9.65-66.9,15.97-113.33,33.08-216.01,95.81-296.96,181.4-139.96,147.9-202.42,347.94-171.37,548.83h0Z"/>
          <path class="cls-9" d="m1359.11,1543.26c-56.06,0-112.55-6.61-168.39-20.18-13.05-3.21-26.13-6.78-38.92-10.63-35.84-10.94-70.81-24.7-103.97-40.92-28.34-13.84-55.8-29.59-81.59-46.8-30.79-20.44-60.32-43.62-87.73-68.86-10.08-9.38-18.81-17.89-26.76-26.06-17.29-17.68-33.98-36.66-49.55-56.38-73.52-93.22-121.92-204.3-140-321.23h0c-32.61-210.94,32.97-421,179.93-576.29,84.94-89.8,192.66-155.61,311.51-190.3,22.45-6.62,46.06-12.26,70.12-16.75,15.42-2.86,31.38-5.26,47.44-7.12,49.88-5.81,100.54-6.33,150.55-1.54,50.47,4.78,100.46,14.97,148.54,30.28,20.94,6.67,41.87,14.45,62.21,23.12,7.97,3.33,15.7,6.78,22.88,10.21,65.25,30.41,125.73,70.98,179.58,120.51,138.06,127.15,217.61,299.52,223.99,485.36,6.34,184.4-60.29,360.06-187.61,494.61-133.73,141.38-320.23,218.99-512.22,218.99Zm-660.52-596.7c17.11,110.67,62.93,215.8,132.52,304.04,14.76,18.69,30.57,36.69,46.99,53.47,7.56,7.77,15.86,15.85,25.42,24.75,25.92,23.86,53.92,45.83,83.12,65.23,24.46,16.33,50.48,31.25,77.35,44.37,31.44,15.37,64.57,28.42,98.5,38.77,12.11,3.65,24.57,7.06,36.96,10.1,234.18,56.93,481.39-15.25,645.11-188.34,120.5-127.34,183.55-293.56,177.55-468.03-6.05-175.91-81.38-339.11-212.12-459.52-51.05-46.95-108.37-85.41-170.35-114.3-6.78-3.24-13.96-6.44-21.48-9.58-19.4-8.27-39.23-15.64-59.06-21.96-45.58-14.51-92.98-24.17-140.86-28.71-47.47-4.55-95.5-4.06-142.8,1.45-15.24,1.77-30.36,4.04-44.96,6.75-22.82,4.25-45.19,9.59-66.48,15.88-112.64,32.88-214.67,95.21-295.13,180.27-139.08,146.97-201.14,345.74-170.29,545.35h0Z"/>
          <path class="cls-9" d="m728.84,1115.77c282.5,394.91,863.18,394.04,1053.77-44.22,129.66-298.16-66.83-654.9-365.75-760.68-217.56-76.99-463.68-58.45-675.61,241.34,0,0-72.97,147.09-68.02,264.24,4.95,117.14,29.81,230.34,29.81,230.34l25.81,68.98Z"/>
          <path class="cls-10" d="m1782.59,1071.55c-190.57,438.25-771.26,439.11-1053.76,44.24l-5.22-13.99c388.44,221.9,891.36,125.67,1092.42-313.87,15.54,94.03,6.55,191.6-33.45,283.62Z"/>
          <path class="cls-9" d="m1276.81,1494.33c-103.56,0-209.19-22.86-308.03-68.18l-2.51-1.4c-30.83-20.47-60.36-43.64-87.77-68.89-10.08-9.38-18.81-17.89-26.76-26.06-17.29-17.68-33.98-36.66-49.55-56.38-73.52-93.23-121.92-204.3-140-321.23h0c-32.61-210.95,32.97-421,179.93-576.29,84.94-89.8,192.66-155.61,311.51-190.3l1.82-.53,1.88-.15c90.14-7.17,186.53,7.13,286.5,42.51,179.93,63.67,334.5,210.11,413.48,391.72,71.13,163.56,74.1,336.88,8.36,488.02-71.56,164.49-193.55,283.63-352.78,344.53-74.5,28.49-154.65,42.64-236.08,42.64Zm-291.36-101.06c167.29,76.3,354.66,85.07,514.29,24.03,149.79-57.29,264.65-169.61,332.16-324.82,61.62-141.67,58.65-304.55-8.36-458.64-74.98-172.41-221.51-311.35-391.99-371.68-94.37-33.39-184.99-47.09-269.41-40.66-111.87,33-213.24,95.12-293.26,179.72-139.08,146.97-201.14,345.74-170.29,545.35h0c17.11,110.67,62.93,215.8,132.52,304.04,14.76,18.69,30.57,36.69,46.99,53.47,7.56,7.77,15.86,15.85,25.42,24.75,25.57,23.54,53.15,45.23,81.93,64.43Z"/>
          <path class="cls-9" d="m1272.62,1424.8c-214.82,0-424.35-110.43-558.75-298.32l-1.42-1.98-27.4-73.76c-1.03-4.69-25.26-116.11-30.21-233.51-5.09-120.48,66.86-267.02,69.92-273.2l1.46-2.45c185.61-262.55,420.05-346.01,696.79-248.07,160.6,56.83,298.56,187.52,369.05,349.59,63.51,146.03,66.16,300.8,7.45,435.79-85.08,195.62-253.24,320.45-461.39,342.46-21.83,2.31-43.71,3.45-65.5,3.45Zm-527.38-317.78c140.43,194.93,365.92,301.32,589.01,277.71,194.58-20.58,351.85-137.4,431.48-320.52,54.59-125.52,51.94-269.86-7.45-406.42-66.48-152.87-196.41-276.07-347.55-329.56-258.89-91.62-478.78-13.09-653.56,233.39-6.86,14.25-69.99,148.59-65.53,254.05,4.55,107.74,26.45,213.35,29.13,225.93l24.48,65.42Z"/>
          <g class="cls-6">
            <path class="cls-15" d="m1530.83,503.06s-258.61-127.16-470.7-22.47c-.22.11-.45.22-.67.33-44.62,22.07-118.36,101.81-145.44,143.15-35.82,54.67-45.36,96.72-58.44,135.03-39.72,116.54-36.2,183.57-36.2,183.57-46.33-84.16-60.43-166.79-28.32-264.19,3.19-9.59,6.84-19.37,10.91-29.28.93-2.29,1.9-4.53,2.92-6.78-.04-.04,0-.08.08-.13,9.68-19.5,29.89-68.36,47.75-95.44,53.81-81.73,138.74-162.49,271.27-178.43,247.81-29.79,420.74,125.74,406.84,134.64Z"/>
          </g>
          <g class="cls-6">
            <ellipse class="cls-15" cx="1631.31" cy="834.17" rx="98.75" ry="85.97" transform="translate(709.03 2417.35) rotate(-86.86)"/>
          </g>
          <g class="cls-6">
            <ellipse class="cls-15" cx="1630" cy="1041.28" rx="35.49" ry="40.79" transform="translate(-38.63 63.1) rotate(-2.19)"/>
          </g>
        </g>
        <path class="cls-15" d="m2643.21,1533.86c-20.33,151.93-96.03,151.62-154.4,121.8-34.54-17.66-230-148.9-249.66-207.31-4.11-12.27-3.95-28.13-.57-45.48,12.93-65.08,72.12-151.73,125.5-154.29,69.45-3.34,263.52,71.09,280.1,231.9,1.75,16.84,1.54,34.65-.97,53.38Z"/>
        <g class="cls-3">
          <path class="cls-9" d="m2643.21,1533.86c-20.33,151.93-96.03,151.62-154.4,121.8-34.54-17.66-230-148.9-249.66-207.31-4.11-12.27-3.95-28.13-.57-45.48,68.58,66.88,282.87,251.15,405.6,77.61,1.75,16.84,1.54,34.65-.97,53.38Z"/>
        </g>
        <path class="cls-9" d="m2545.55,1689.65c-20.25,0-42.21-5.88-65.14-17.59-24.93-12.74-235.54-148.91-258.71-217.82h0c-14.15-42.08,10.42-106.16,41.05-150.99,30.63-44.85,67.25-71.49,100.43-73.08,53.45-2.58,165.09,34.66,235.43,111.25,50.76,55.27,72.49,122.65,62.84,194.87-10,74.83-34.49,122.95-72.81,143.03-13.14,6.89-27.62,10.33-43.09,10.33Zm-288.94-247.15c16.15,48.04,200.56,176.33,240.55,196.75,20.46,10.45,49.98,20.23,74.38,7.45,26.73-14.01,45.2-53.88,53.4-115.29,8.27-61.91-9.71-117.45-53.46-165.08-61.91-67.4-161.61-101.63-206.54-99.37-20.92,1-48.43,22.87-71.79,57.06-29.18,42.72-44.89,93.65-36.55,118.48h0Z"/>
        <path class="cls-15" d="m2238.05,1406.04s140.29,49.16,133.15,136.72c-7.14,87.56-160.42,25.2-186.68-17.88-16.67-27.34-12.81-107.53,53.53-118.84Z"/>
        <g class="cls-3">
          <path class="cls-9" d="m2371.22,1542.74c-7.13,87.57-160.45,25.2-186.68-17.86-12.16-19.97-13.4-68.16,12.68-97.06-1.85,18.89,1.54,36.8,7.85,47.17,20.84,34.24,121.9,80.59,166.1,54.3.41,4.36.41,8.88.05,13.45Z"/>
        </g>
        <path class="cls-9" d="m2317.96,1605.26c-54.76,0-128.19-36.41-149.16-70.8-12.24-20.07-16.7-60.18-.87-94.98,12.78-28.09,36.59-46.41,67.03-51.6l4.69-.8,4.49,1.57c6.28,2.2,153.61,55.02,145.42,155.6-2.51,30.86-19.98,51.67-49.18,58.6-6.93,1.65-14.48,2.41-22.41,2.41Zm-81.34-180.13c-16.21,3.99-28.03,13.93-35.17,29.62-10.49,23.05-7.38,50.43-1.21,60.54,14.98,24.57,91.38,61.32,131.63,51.73,13.5-3.2,19.77-10.9,20.98-25.75,4.69-57.52-78.26-101.62-116.23-116.13Z"/>
        <path class="cls-15" d="m424.44,1376.59c-19.51,58.41-214.81,189.91-249.35,207.62-58.31,29.87-134.07,30.34-154.55-121.6-2.77-20.58-2.77-39.98-.46-58.26,19.71-157.48,210.45-230.62,279.23-227.44,56.97,2.67,120.72,101.27,127.6,167.12,1.28,12.27.62,23.41-2.46,32.54Z"/>
        <g class="cls-3">
          <path class="cls-9" d="m424.44,1376.59c-19.51,58.41-214.81,189.91-249.35,207.62-58.31,29.87-134.07,30.34-154.55-121.6-2.77-20.58-2.77-39.98-.46-58.26,16.17,37.42,51.53,79.97,128.78,74.79,102.19-6.83,222.97-74.94,278.04-135.1,1.28,12.27.62,23.41-2.46,32.54Z"/>
        </g>
        <path class="cls-9" d="m118.25,1618.27c-15.42,0-29.85-3.41-42.97-10.26-38.34-20.03-62.9-68.12-73-142.94-9.75-72.2,11.89-139.62,62.59-194.96,70.23-76.67,181.63-114.06,235.28-111.56,33.19,1.55,69.83,28.13,100.53,72.93,30.68,44.79,55.34,108.83,41.25,150.94h0c-23.08,68.94-233.5,205.39-258.42,218.16-22.97,11.77-44.97,17.68-65.25,17.68Zm176.12-423.02c-46.8,0-142.32,34.21-202.34,99.73-43.69,47.69-61.6,103.25-53.24,165.15,8.29,61.4,26.81,101.25,53.56,115.22,24.4,12.75,53.91,2.93,74.37-7.55,39.96-20.48,224.19-149.01,240.28-197.07,8.32-24.84-7.47-75.75-36.7-118.43-23.4-34.16-50.94-55.98-71.86-56.96-1.3-.06-2.66-.09-4.06-.09Zm130.09,181.33h.05-.05Z"/>
        <path class="cls-15" d="m486.86,1443.06c-.46,7.03-1.33,12.78-2.36,16.68-6.06,23.15-184.68,98.96-191.97,11.39-1.95-23.3,6.57-43.89,20.17-61.54,37.26-48.76,112.82-75.35,112.82-75.35,55.23,9.34,63.54,74.07,61.34,108.82Z"/>
        <g class="cls-3">
          <path class="cls-9" d="m486.86,1443.06c-.46,7.03-1.33,12.78-2.36,16.68-6.06,23.15-184.68,98.96-191.97,11.39-1.95-23.3,6.57-43.89,20.17-61.54,9.7,23.51,32.7,51.79,87.1,53.84,41.83,1.64,69.34-8.57,87.05-20.38Z"/>
        </g>
        <path class="cls-9" d="m347,1530.67c-3.5,0-6.86-.14-10.1-.42-37.09-3.22-59.94-24.21-62.71-57.59-8.33-100.57,138.94-153.58,145.21-155.79l4.49-1.58,4.69.79c23.8,4.03,43.4,17.02,56.69,37.58,24.49,37.89,21.94,91.91,17.02,110.73-7.6,29.04-97.4,66.27-155.29,66.27Zm79.92-177.31c-37.97,14.58-120.78,58.78-116.02,116.26,1.01,12.13,6.14,18.47,17.72,21.89,41.57,12.25,124.96-24.22,138.52-38.51,3.02-14.99,3.42-54.24-12.8-79.34-6.88-10.64-15.88-17.31-27.42-20.3Z"/>
        <path class="cls-13" d="m2150.87,987.73c-2.21,16.12-5.44,32.39-9.86,48.71-42.76,158.3-177.95,259.46-302.02,226-124.06-33.52-189.97-188.99-147.21-347.29,1.95-7.24,4.11-14.37,6.47-21.35,28.33-84.95,83.77-151.21,148.49-185.45,44.19-23.3,92.75-31.72,139.97-20.94,2.36.51,4.72,1.13,7.08,1.74,111.28,30.08,175.75,158.24,157.06,298.58Z"/>
        <g class="cls-6">
          <path class="cls-15" d="m1712.45,948c1.95-7.24,4.11-14.37,6.47-21.35,28.33-84.95,83.77-151.21,148.49-185.45,44.19-23.3,92.75-31.72,139.97-20.94,2.36.51,4.72,1.13,7.08,1.75,37.83,10.23,70.23,31.81,95.82,61.33-27.74-43.8-67.59-75.97-116.48-89.19-2.36-.62-4.72-1.23-7.08-1.74-47.22-10.78-95.78-2.36-139.97,20.94-64.72,34.24-120.16,100.5-148.49,185.45-2.36,6.98-4.52,14.11-6.47,21.35-29.74,110.1-6.87,218.79,51.53,286.07-42.71-67.35-56.79-162.24-30.87-258.22Z"/>
        </g>
        <g class="cls-3">
          <path class="cls-9" d="m2006.94,883.12l-133.15,20.63-27.05-195.41c44.19-23.3,92.75-31.72,139.97-20.94l20.22,195.71Z"/>
        </g>
        <g class="cls-3">
          <path class="cls-9" d="m2150.87,987.73c-2.21,16.12-5.44,32.39-9.86,48.71-42.76,158.3-177.95,259.46-302.02,226-124.06-33.52-189.97-188.99-147.21-347.29,1.95-7.24,4.11-14.37,6.47-21.35,21.25,82.48,55.59,151.78,140.54,11.65l312.08,82.28Z"/>
        </g>
        <path class="cls-9" d="m1887.03,1287.19c-17.66,0-35.36-2.27-52.85-7-133.66-36.1-205.52-202.02-160.19-369.87,45.33-167.85,190.97-275.05,324.61-238.93,133.66,36.1,205.52,202.02,160.19,369.87l-17.78-4.8,17.78,4.8c-39.4,145.87-154.55,245.93-271.76,245.93Zm58.32-586.01c-100.77,0-200.83,89.27-235.8,218.75-40.04,148.24,20.18,293.9,134.23,324.71,14.43,3.9,29.06,5.77,43.66,5.77,100.77,0,200.83-89.27,235.8-218.75,40.04-148.24-20.18-293.9-134.23-324.71-14.43-3.9-29.06-5.77-43.66-5.77Z"/>
        <path class="cls-16" d="m2051.6,965.25l-146.23-.92s52.1-186.27,21.04-389.27c-7.9-51.74-21.2-104.61-42.14-155.73-101.68-248.02-545.21-340.72-782.55-324.29-32.03,2.21-60.31,6.42-83.51,12.47-67.96,17.76-107.99,64.47-111.59,68.73,4.47-6.47,78.58-110.25,236.73-147.93,125.96-30.03,566.15.26,793.79,226.15,38.8,38.44,71.45,82.64,95.27,133.15,24.84,52.61,41.27,112.46,49.07,180.78,12.42,109.12,2.77,239.86-29.87,396.87Z"/>
        <g class="cls-4">
          <path class="cls-15" d="m1937.13,254.45c-193.4-121.13-476.43-197.41-653.66-197.41-82.64,0-141.05,16.94-181.75,37.98-32.03,2.21-60.31,6.42-83.51,12.47-67.96,17.76-107.99,64.47-111.59,68.73,4.47-6.47,78.58-110.25,236.73-147.93,125.96-30.03,566.15.26,793.79,226.15Z"/>
        </g>
        <path class="cls-8" d="m2051.6,965.25l-146.23-.92s52.1-186.27,21.04-389.27c26.59,21.51,58.72,37.26,94.75,34.85,24.59-1.64,44.6-19.15,60.31-41.52,12.42,109.12,2.77,239.86-29.87,396.87Z"/>
        <path class="cls-9" d="m2051.61,983.69c-1.25,0-2.5-.13-3.77-.39-9.96-2.07-16.35-11.82-14.28-21.78,51.32-246.78,45.49-431.93-17.8-566.05C1853,50.55,1277.3,15.3,1147.61,46.2c-37.19,8.86-69.58,21.62-97.31,35.88,112.23-17.83,283.84-3.12,435.64,38.86,124.65,34.48,344.37,118.18,415.36,291.4,104.32,254.57,25.21,544.73,21.79,556.96-2.74,9.79-12.92,15.5-22.69,12.78-9.79-2.73-15.52-12.89-12.79-22.69.81-2.88,79.03-290.43-20.4-533.08-65.03-158.67-272.94-237.19-391.09-269.87-182.76-50.55-366.37-53.93-453.26-31.14-64.58,16.93-101.71,62.32-102.08,62.77-6.19,7.69-17.34,9.13-25.28,3.27-7.94-5.86-9.85-16.93-4.34-25.11,3.17-4.71,79.65-115.75,247.91-155.85,82.33-19.63,267.21-13.5,447.6,36.52,160.26,44.44,370.57,138.25,462.4,332.85,66.83,141.62,73.55,334.37,20.55,589.27-1.81,8.69-9.47,14.67-18.01,14.67Z"/>
        <path class="cls-9" d="m1976.94,1261.39c-14.82,0-29.57-1.93-44.06-5.85-109.5-29.57-168.48-165.11-131.47-302.13,17.71-65.59,54.57-121.98,103.77-158.78,50.55-37.82,108.06-50.63,161.93-36.08,109.5,29.57,168.48,165.11,131.47,302.13h0c-17.71,65.58-54.57,121.98-103.77,158.78-36.95,27.64-77.62,41.93-117.87,41.93Zm46.28-471.82c-32.42,0-65.56,11.78-95.99,34.55-42.64,31.9-74.7,81.23-90.27,138.9-31.71,117.41,15.62,232.69,105.52,256.97,42.73,11.53,88.98.87,130.27-30.01,42.64-31.9,74.7-81.23,90.27-138.9,31.71-117.41-15.62-232.69-105.52-256.97-11.24-3.03-22.71-4.53-34.28-4.53Zm157.58,266.31h.05-.05Z"/>
        <ellipse class="cls-16" cx="1999.99" cy="1007.04" rx="238.99" ry="187.29" transform="translate(506.3 2675.27) rotate(-74.89)"/>
        <path class="cls-8" d="m1991.03,1094.95c7.08,3.18,14.42,5.8,22.07,7.85,50.2,13.6,102.66-.26,146.8-33.52-20.99,54.05-70.01,86.85-115.28,74.63-24.18-6.52-42.86-24.69-53.59-48.97Z"/>
        <path class="cls-8" d="m2182.28,1050.04c-.46,1.95-.97,3.9-1.49,5.85-34.39,127.4-143.26,208.85-243.09,181.86-99.89-26.95-152.96-152.14-118.52-279.53,14.06-52.2,40.65-96.65,73.96-129.09-19.4,77.66-6.47,153.93,29.56,207.06-2.16,67.6,31.57,126.42,86.23,141.15,65.44,17.71,136.58-34.13,161.17-116.26,4.16-3.49,8.21-7.19,12.16-11.04Z"/>
        <path class="cls-15" d="m2092.41,868.47c-66.87-18.04-139.72,36.45-162.76,121.79-23.04,85.28,12.49,169.06,79.31,187.09,66.87,18.09,139.72-36.45,162.76-121.73,23.04-85.28-12.49-169.06-79.31-187.15Zm72.58,185.32c-17.01,63.15-70.96,103.48-120.39,90.13-49.48-13.35-75.75-75.38-58.74-138.48,17.07-63.15,70.96-103.48,120.44-90.13,49.48,13.41,75.75,75.38,58.69,138.48Z"/>
        <path class="cls-15" d="m2092.4,868.49c-66.88-18.07-139.72,36.44-162.76,121.75-4.21,15.5-6.47,30.9-6.93,45.94,17.61,25.97,40.75,46.45,68.32,58.77-11.24-25.36-13.86-57.28-5.18-89.52,17.09-63.13,70.99-103.48,120.47-90.13,49.48,13.4,75.76,75.4,58.67,138.48-1.44,5.34-3.13,10.52-5.08,15.5,3.49-2.62,6.88-5.34,10.21-8.21.56-1.8,1.08-3.59,1.59-5.44,23.05-85.31-12.47-169.08-79.3-187.14Z"/>
        <g class="cls-3">
          <path class="cls-9" d="m2170.11,1061.08c-24.59,82.13-95.73,133.97-161.17,116.26-54.66-14.73-88.39-73.55-86.23-141.15,17.61,25.97,40.75,46.45,68.32,58.77,10.73,24.28,29.41,42.45,53.59,48.97,45.27,12.22,94.29-20.58,115.28-74.63,3.49-2.62,6.88-5.34,10.21-8.21Z"/>
        </g>
        <path class="cls-9" d="m1976.94,1261.39c-14.82,0-29.57-1.93-44.06-5.85-109.5-29.57-168.48-165.11-131.47-302.13,17.71-65.59,54.57-121.98,103.77-158.78,50.55-37.82,108.06-50.63,161.93-36.08,109.5,29.57,168.48,165.11,131.47,302.13h0c-17.71,65.58-54.57,121.98-103.77,158.78-36.95,27.64-77.62,41.93-117.87,41.93Zm46.28-471.82c-32.42,0-65.56,11.78-95.99,34.55-42.64,31.9-74.7,81.23-90.27,138.9-31.71,117.41,15.62,232.69,105.52,256.97,42.73,11.53,88.98.87,130.27-30.01,42.64-31.9,74.7-81.23,90.27-138.9,31.71-117.41-15.62-232.69-105.52-256.97-11.24-3.03-22.71-4.53-34.28-4.53Zm157.58,266.31h.05-.05Z"/>
        <g>
          <line class="cls-12" x1="1314.96" y1="1828.52" x2="1390.44" y2="1836.97"/>
          <path class="cls-9" d="m1390.47,1855.39c-.69,0-1.38-.04-2.08-.12l-75.48-8.46c-10.11-1.13-17.38-10.24-16.25-20.35,1.13-10.11,10.29-17.36,20.35-16.25l75.48,8.46c10.11,1.13,17.38,10.24,16.25,20.35-1.05,9.41-9.03,16.37-18.28,16.37Z"/>
        </g>
        <path class="cls-9" d="m1399.41,1851.25c-3.28,0-6.71-.18-10.33-.53-7.59-.76-13.13-7.52-12.38-15.11.76-7.58,7.43-13.1,15.11-12.38,33.21,3.29,40.58-12.23,56.82-57.63,17.99-50.32,42.64-119.22,139.59-169.16,65.44-33.71,140.25-35.66,206.25-37.38,75.06-1.96,139.88-3.65,175.62-47.7,35.92-44.27,41.26-131.86,16.32-267.78-1.38-7.5,3.59-14.7,11.09-16.08,7.53-1.39,14.7,3.59,16.08,11.09,26.86,146.34,19.85,238.54-22.03,290.17-43.75,53.92-117.88,55.86-196.35,57.91-66.12,1.73-134.5,3.52-194.33,34.33-87.26,44.95-108.87,105.36-126.23,153.91-14.01,39.19-27.3,76.35-75.23,76.35Z"/>
        <path class="cls-9" d="m2086.71,1940.48c-6.21,0-12.26-3.13-15.73-8.82-123.08-201.45-33.7-419.53-29.83-428.72,3.94-9.37,14.74-13.78,24.12-9.83,9.37,3.94,13.77,14.73,9.84,24.1h0c-.87,2.08-85.74,210.22,27.3,395.25,5.3,8.68,2.57,20.01-6.11,25.31-2.99,1.83-6.31,2.71-9.58,2.71Z"/>
        <path class="cls-9" d="m582.74,1820.59c-4.83,0-9.66-1.89-13.27-5.65-7.05-7.33-6.83-18.99.5-26.04,137-131.79,87.69-385.28,87.18-387.83-2.01-9.97,4.44-19.68,14.4-21.7,9.93-2.02,19.68,4.43,21.7,14.41,2.26,11.2,53.67,276.01-97.74,421.66-3.57,3.44-8.17,5.15-12.77,5.15Z"/>
        <g class="cls-4">
          <path class="cls-15" d="m2158.73,959.06c-18.89-43.06-56.05-77.3-104.56-90.39-53.74-14.53-108.56.41-147.83,35.06,34.9-65.08,98.96-102.04,158.55-85.92,56.15,15.14,91.98,72.94,93.83,141.26Z"/>
        </g>
        <path class="cls-15" d="m1705.45,1893.03s46.19,19.5,41.07,81.38c-4.01,48.49-27.74,67.27-27.74,67.27,0,0-167.42,45.22-374.75-23.18,0,0-38.51-19.82-37.88-77.8.24-22.15,15.66-54.91,47.04-60.29,0,0,189.36,49.97,352.26,12.63Z"/>
        <g class="cls-3">
          <path class="cls-9" d="m1306.16,1940.72c-.65,57.95,37.87,77.78,37.87,77.78,207.32,68.38,374.77,23.16,374.77,23.16,0,0,23.72-18.74,27.73-67.25,1.2-14.69-.47-26.98-3.77-37.22-7.84,32.37-24.28,45.33-24.28,45.33,0,0-167.45,45.22-374.77-23.16,0,0-22.14-11.41-32.52-42.15-3.33,8.07-4.94,16.36-5.03,23.51Z"/>
        </g>
        <path class="cls-9" d="m1579.67,2074.93c-65.84,0-149.61-8.67-241.42-38.95l-2.66-1.11c-1.98-1.03-48.61-25.82-47.87-94.38.3-28.1,19.84-70.95,62.34-78.24l3.94-.68,3.87,1.02c1.86.49,187.04,48.34,343.45,12.49l5.8-1.33,5.48,2.31c2.39,1.01,58.42,25.54,52.27,99.86-4.54,54.86-31.59,77.76-34.66,80.19l-2.97,2.35-3.66.99c-3.97,1.07-59.03,15.48-143.91,15.48Zm-228.08-73.34c180.09,58.89,330.56,29.58,357.97,23.36,4.83-5.51,16.07-21.39,18.6-52.07,3.09-37.3-16.05-54.35-25.43-60.4-151.79,32.52-319.91-5.77-349.82-13.16-19.73,5.69-28.22,29.35-28.35,41.56-.44,40.82,22.29,57.64,27.04,60.7Z"/>
      </g>
      <g>
        <path class="cls-15" d="m2433.23,924.27c3.74.79,7.48,2.21,11.22,2.25,15.13.15,27.34-6.14,35.97-18.5,5.17-7.41,5.31-16.24,4.86-24.97-.78-15.3-6.54-29.29-11.38-43.53-2.06-6.06-4.24-12.08-6.47-18.43-3.88.91-7.64,1.96-11.46,2.65-36.28,6.62-66.77-4.67-92.07-30.64-16.96-17.41-27.01-38.5-30.07-62.66-2.58-20.36,1.53-39.81,9.2-58.6,7.99-19.58,19.31-37.19,32.24-53.83,6.36-8.19,12.74-16.36,19.25-24.43,1.66-2.05,2.01-3.71,1.06-6.31-9.05-24.85-15.34-50.26-14.9-76.96.33-20.2,3.22-39.82,12.6-58.06,3.97-7.72,9.5-14.08,16.43-19.27,6.93-5.19,10.74-5.18,16.88.83,10.85,10.62,18.87,23.27,23.91,37.47,19.96,56.21,12.7,108.47-23.47,156.35-.86,1.14-1.31,3.24-.9,4.57,3.82,12.64,7.91,25.2,11.82,37.81.62,2,1.41,2.78,3.66,2.36,29.3-5.45,51.64,5.93,66.82,30.3,16.7,26.8,18.88,55.21,3.44,83.71-5.97,11.01-15.06,19.16-25.97,25.2-2.58,1.43-3.06,2.84-2.19,5.55,5.08,15.74,10.17,31.47,14.91,47.31,2.77,9.24,4.6,18.77,3.75,28.48-1.84,20.96-12.72,36-31.79,44.23-23.23,10.03-45.77,8.13-65.65-8.36-15.76-13.07-18.13-37.4-6.24-54.1,14.19-19.93,41.94-17.65,52.57,4.47,9.66,20.1-.62,38.36-16.63,43.34-.43.13-.82.38-1.23.57-.06.39-.11.78-.17,1.17Zm-20.48-280.61c-1.31,1.25-2.21,1.91-2.86,2.75-9.45,12.17-19.3,24.06-28.17,36.64-9.03,12.81-15.2,27.07-17.82,42.71-3.18,18.98-.86,36.84,9.93,53.23,18.31,27.82,54.52,38.46,84.73,27.6,3.28-1.18,4.14-2.17,3.04-5.67-7.92-25.19-15.61-50.45-23.37-75.69-.86-2.78-1.75-5.54-2.76-8.74-7.26,4.12-12.34,9.58-16.18,16.14-6.47,11.05-6.62,22.11.1,33.3,4.49,7.46,10.5,12.6,18.92,14.98,3.5.99,5.54,4.07,4.99,6.84-.56,2.81-4.07,4.74-7.67,4.24-24.93-3.48-46.23-27.59-45.87-52.46.36-25.11,10.4-45.33,31.48-59.64.87-.59,1.88-2.22,1.65-3.02-3.18-10.87-6.57-21.69-10.13-33.21Zm-4.45-65.28c2.39-2.71,4.06-4.34,5.42-6.19,12.26-16.69,21.31-34.89,25.46-55.31,2.04-10.04,2.3-20.05-1.1-29.93-2.68-7.79-8.71-10.2-16.01-6.22-5.1,2.79-8.52,7.25-10.66,12.41-8.86,21.41-12.1,43.63-8.19,66.59,1.02,5.97,3.16,11.75,5.08,18.65Zm69.05,219.39c15.21-6.43,23.56-33.52,16.83-53.19-7.19-20.99-26.22-33.69-43.21-31.09,8.81,28.13,17.59,56.19,26.39,84.28Z"/>
        <path class="cls-15" d="m324.57,684.7c-26.81,12.82-53.62,25.63-80.43,38.45-22.13,10.58-44.99,21.53-67.46,32.27-11.71,5.6-17.85,18.68-14.67,31.26,11.53,45.58,23.07,92.2,34.56,137.4.06.23.19.65.25.88.17.61-.09.89-.86,1.03-5.14.92-10.06,2.56-14.78,4.74-16.02,7.42-28.65,18.55-36.77,34.38-4.36,8.49-6.44,17.49-4.69,27.09.02.93.41,1.77.58,2.67,1.73,7.45,6.42,12.69,12.81,16.38,6.51,3.76,13.72,4.96,21.2,4.77,2.61-.07,5.15-.62,7.73-.89.63-.2,1.62-.51,2.24-.7.47-.23,1.01-.23,1.49-.41,1.32-.25,2.56-.87,3.96-.74.61-.23,1.13-.42,1.75-.65.13-.11.28-.12.46-.02l.57-.14c-.02-.34.25-.35.47-.43,9.91-3.45,18.77-8.7,26.56-15.7,8.89-7.98,15.5-17.47,18.65-29.12,1.89-6.99,2.08-13.97.24-21.12-12.79-49.71-25.42-99.46-38.15-149.19-.35-1.37-.17-2,1.17-2.62,14.8-6.87,29.58-13.81,44.36-20.74,23.45-11.01,46.89-22.01,70.31-33.08,1.18-.56,1.31-.22,1.56.79,2.65,10.55,5.34,21.08,8.02,31.62,6.54,25.73,13.07,51.46,19.64,77.18.28,1.09.16,1.5-1.04,1.67-3.84.54-7.59,1.55-11.22,2.89-16.01,5.93-29.02,15.77-38.62,29.94-5.27,7.78-8.73,16.27-9.24,25.78-.72,13.19,6.08,24.07,18.11,28.86,8.34,3.32,16.98,3.48,25.67,1.86,14.11-2.64,26.32-9.16,36.97-18.65,9.14-8.14,16.29-17.7,20.09-29.48,2.25-6.97,2.6-13.94.74-21.2-15.11-59.2-30.45-119.84-45.52-179.28-1.84-7.26-9.86-11.01-16.62-7.78-.04.02-.09.04-.13.06Z"/>
        <path class="cls-15" d="m2393.07,2221.52c.1-1.78.04-3.56-.04-5.35.08-3.25,0-6.64-.26-10.16-.11-2.25-.36-4.49-.73-6.7-2.82-19.9-11.87-43.67-32.55-70.4-2.35-4.5-4.64-9.04-7.11-13.49-2.72-4.89-5.07-9.91-6.61-15.29-2.56-8.93-5.06-17.87-7.63-26.8-1.24-4.31-5.17-6.86-10.2-6.72-4.55.13-7.65,2.71-8.73,7.24-8.54,35.93-17.09,71.86-25.63,107.79-.12-.03-.23-.05-.35-.08-1.53,6.65-2.98,13.32-4.61,19.95-7.26,29.57-14.53,59.13-21.92,88.67-1.03,4.14-3.03,7.97-5.98,11.16-2.6,2.82-5.47,3.36-8.94,1.79-.75-.34-1.46-.76-2.15-1.2-8.47-5.48-17.66-9.21-27.51-11.29-19.93-4.22-39.17-1.3-57.62,6.62-13.62,5.84-24.14,15.48-30.83,28.89-3.68,7.38-5.83,15.21-5.02,23.55,1.12,11.48,7.11,20.26,15.72,27.49,4.95,4.15,10.74,6.75,16.61,9.36,12.54,5.57,25.56,7.37,39.12,6.16,8.25-.74,16.18-2.84,24.08-5.16,10.73-3.15,21.13-7.02,30.48-13.31,11.14-7.5,18.84-17.39,21.99-30.72,7.59-32.08,15.42-64.1,23.11-96.15,4.41-18.36,8.72-36.73,13.09-55.1,2.04-8.57,4.11-17.13,6.17-25.69.65-2.73,1.06-5.54,1.99-8.16.73-2.05,1.82-4.12,3.25-5.74,3.49-3.94,9.52-4.04,14.4-.56.82.59,1.6,1.22,2.33,1.89-.76-.63-1.53-1.27-2.33-1.89,0,0,34.47,42.28,25.33,101.26-1.4,3.79-1.55,7.68.06,11.49,1.05,2.48,2.92,4.04,5.7,3.97,3.01-.07,5.57-1.32,7.28-3.85,0,0,5.43-6.42,9.97-18.18,3.38-8.01,5.54-16.4,6.05-25.28Z"/>
      </g>
    </g>
  </g>
</svg>