<?xml version="1.0" encoding="UTF-8"?>
<svg id="Layer_2" data-name="Layer 2" xmlns="http://www.w3.org/2000/svg" xmlns:xlink="http://www.w3.org/1999/xlink" viewBox="0 0 2954 2517.91">
  <defs>
    <style>
      .cls-1 {
        clip-path: url(#clippath);
      }

      .cls-2 {
        fill: none;
      }

      .cls-2, .cls-3, .cls-4, .cls-5, .cls-6, .cls-7, .cls-8, .cls-9, .cls-10, .cls-11, .cls-12, .cls-13, .cls-14, .cls-15, .cls-16, .cls-17 {
        stroke-width: 0px;
      }

      .cls-3, .cls-18 {
        opacity: .2;
      }

      .cls-3, .cls-5 {
        fill: #371a45;
      }

      .cls-19 {
        opacity: .15;
      }

      .cls-20 {
        opacity: .6;
      }

      .cls-21 {
        opacity: .5;
      }

      .cls-22 {
        opacity: .7;
      }

      .cls-23 {
        opacity: .75;
      }

      .cls-24 {
        isolation: isolate;
      }

      .cls-4 {
        fill: #f9f9f9;
      }

      .cls-6 {
        fill: #1c7aea;
      }

      .cls-7 {
        fill: #080056;
      }

      .cls-8 {
        fill: #220f2d;
      }

      .cls-9 {
        fill: #22a7f0;
      }

      .cls-10 {
        fill: #ccc;
      }

      .cls-11 {
        fill: #db2c2c;
      }

      .cls-12 {
        fill: #fff;
      }

      .cls-13 {
        fill: #e6a75c;
      }

      .cls-14 {
        fill: #ffd243;
      }

      .cls-15 {
        fill: #fcac38;
      }

      .cls-16 {
        fill: #ffd833;
      }

      .cls-17 {
        fill: #fcfcfc;
      }
    </style>
    <clipPath id="clippath">
      <path class="cls-2" d="m1610.77,1268.9c-436.15,304.59-1035.57,91.39-1072.18-430.93-24.91-355.35,308.45-651.96,655.86-651.93,252.85.02,500.26,109.16,609.55,496.27,0,0,21.59,178.6-26.35,297.78-47.94,119.18-115,227-115,227l-51.88,61.81Z"/>
    </clipPath>
  </defs>
  <g id="Layer_1-2" data-name="Layer 1">
    <g>
      <ellipse class="cls-3" cx="1477" cy="2411.69" rx="1477" ry="106.22"/>
      <g>
        <g>
          <path class="cls-4" d="m1840.85,2044.82c4.7,23.7,7.23,50.29,7.23,79.72,0,214.99-98.36,262.49-181.53,262.49h-590.39c-233.89,0-509.39,14.04-569.9-307.87-34.7-184.68,94.33-516.05,163.72-675.74,24.37-56.12,41.41-91.02,41.41-91.02,812.56-82.4,1198.24,387.54,1198.24,387.54h-421.3c8.62,17.81,15.95,36.04,22.2,54.06,23.65,68.05,31.86,133.83,34.7,168.68,1.29,16.21,1.45,25.76,1.45,25.76,38.88-36.19,81.01-60.15,145.8-60.15s127.42,49.67,148.39,156.54Z"/>
          <g class="cls-18">
            <path class="cls-5" d="m1545.22,1922.66h-443.76c-185.4-79.1-355.58-19.93-355.58-19.93v-209.67h650.54l114.1,60.92c23.65,68.05,31.86,133.83,34.7,168.68Z"/>
          </g>
          <g class="cls-18">
            <path class="cls-5" d="m1848.08,2124.53c0,214.99-98.36,262.49-181.53,262.49h-590.39c-233.89,0-509.39,14.04-569.9-307.87-34.7-184.68,94.33-516.05,163.72-675.74l65.93-11.36s-225.68,471.18-146.01,681.47c79.61,210.34,541.86,117.41,541.86,117.41,0,0,38.41,82.97,118.34,82.97s110.18-79.67,118.29-172.6c0,0,21.83,69.62,73.58,77.11,48.38,7,95.82,20.4,138.21,44.76,35.1,20.17,80.93,37.46,134.86,37.46,82.56,0,121.9-108.11,125.82-215.82,4.7,23.7,7.23,50.29,7.23,79.72Z"/>
          </g>
          <path class="cls-5" d="m1020.38,2412.52c-219.6,0-479.61-12.23-539.08-328.69-47.89-254.87,196.83-761.13,207.27-782.56l6.19-12.71,14.07-1.43c426.17-43.24,734.7,66.3,918.48,165.79,200.07,108.32,297.89,225.94,301.95,230.9l34.07,41.5h-436.29c25.59,65.4,36.64,130.55,41.4,173.36,37.58-24.8,76.66-35.81,124.05-35.81,90.08,0,180.97,80.9,180.97,261.63,0,250.52-129.63,287.92-206.89,287.92h-590.4c-9.31,0-18.69.02-28.12.04-9.13.02-18.37.04-27.66.04Zm-292.21-1076.25c-37.79,80.53-237.76,520.99-196.95,738.18,54.18,288.34,289.37,287.79,516.7,287.24,9.47-.02,18.89-.04,28.24-.04h590.4c103.58,0,156.1-79.78,156.1-237.13,0-145.65-65.38-210.84-130.18-210.84-50.6,0-87.84,15.45-128.55,53.33l-41.81,38.91-.88-57.1c-.02-1.25-2.75-128.09-55.81-237.82l-17.62-36.45h402.22c-44.98-42.98-127.96-112.87-249.19-178.18-175.13-94.36-468.01-198.05-872.68-160.08Z"/>
          <ellipse class="cls-10" cx="1729.76" cy="2143.14" rx="118.3" ry="206.62"/>
          <path class="cls-5" d="m1729.76,2370.42c-77.92,0-138.95-99.83-138.95-227.27s61.04-227.27,138.95-227.27,138.95,99.83,138.95,227.27-61.04,227.27-138.95,227.27Zm0-413.23c-52.93,0-97.65,85.16-97.65,185.96s44.72,185.96,97.65,185.96,97.65-85.16,97.65-185.96-44.72-185.96-97.65-185.96Z"/>
          <path class="cls-5" d="m1841.22,2094.4h-222.89c-11.41,0-20.65-9.25-20.65-20.65s9.25-20.65,20.65-20.65h222.89c11.41,0,20.65,9.25,20.65,20.65s-9.25,20.65-20.65,20.65Z"/>
          <path class="cls-5" d="m1839.76,2239.84h-220.02c-11.41,0-20.65-9.25-20.65-20.65s9.25-20.65,20.65-20.65h220.02c11.41,0,20.65,9.25,20.65,20.65s-9.25,20.65-20.65,20.65Z"/>
          <path class="cls-5" d="m1563.27,1960.66c-1.09,1.55-2.76,4.02-4.12,6.22-1.45,2.26-2.82,4.61-4.21,6.96-2.74,4.73-5.31,9.6-7.77,14.53-4.9,9.88-9.06,20.11-12.55,30.48-1.83,5.17-3.34,10.41-4.44,15.75-.77,5.39-1.37,10.81-2.33,16.05-2.9,10.5-6.6,20.31-18.09,31.71l-.26.25c-3.69,3.66-9.65,3.64-13.32-.05-.06-.06-.14-.14-.2-.2-2.88-3.08-4.98-6.29-6.64-9.56-1.81-3.28-3.02-6.61-3.78-9.93-.84-3.33-1.3-6.68-1.57-10.02-.13-3.31.06-6.6.48-9.86.71-6.56,3.35-12.65,5.13-18.88,2.17-6.11,3.67-12.4,5.86-18.46,4.11-12.19,8.96-24.08,14.64-35.55,2.86-5.73,5.85-11.4,9.08-16.98,1.64-2.78,3.27-5.56,5.03-8.33,1.79-2.85,3.42-5.34,5.78-8.65,6.62-9.29,19.51-11.45,28.8-4.84,9.25,6.59,11.44,19.41,4.91,28.69l-.45.64Z"/>
          <g>
            <rect class="cls-4" x="1131.78" y="1770.15" width="424.58" height="265.15" rx="65.28" ry="65.28"/>
            <g class="cls-18">
              <path class="cls-5" d="m1555.9,1977.49c-3.67,32.58-31.29,57.83-64.8,57.83h-294.04c-36.09,0-65.31-29.22-65.31-65.31v-134.6c0-36.04,29.22-65.26,65.31-65.26h23.23c-.31,2.43-.46,4.96-.46,7.49v134.6c0,36.04,29.22,65.26,65.31,65.26h270.75Z"/>
            </g>
            <path class="cls-5" d="m1491.08,2055.96h-294.03c-47.38,0-85.93-38.55-85.93-85.93v-134.59c0-47.38,38.55-85.93,85.93-85.93h294.03c47.38,0,85.93,38.55,85.93,85.93v134.59c0,47.38-38.55,85.93-85.93,85.93Zm-294.03-265.15c-24.6,0-44.62,20.01-44.62,44.62v134.59c0,24.61,20.02,44.62,44.62,44.62h294.03c24.6,0,44.62-20.01,44.62-44.62v-134.59c0-24.61-20.02-44.62-44.62-44.62h-294.03Z"/>
            <path class="cls-5" d="m1483.33,2047.96c-6.98,0-12.65-5.66-12.65-12.65v-88.19c0-11.75-6.22-22.87-16.23-29.02l-6.65-4.08c-17.45-10.72-28.3-30.1-28.3-50.57v-93.31c0-6.98,5.66-12.65,12.65-12.65s12.65,5.66,12.65,12.65v93.31c0,11.75,6.22,22.87,16.24,29.02l6.65,4.08c17.45,10.71,28.3,30.09,28.3,50.57v88.19c0,6.98-5.66,12.65-12.65,12.65Z"/>
          </g>
          <g>
            <path class="cls-9" d="m1257.29,1904.51c.83,28.79,20.41,51.53,43.77,50.86l39.46-1.13-2.99-104.13-39.46,1.13c-23.36.67-41.61,24.53-40.78,53.28Z"/>
            <g class="cls-22">
              <path class="cls-12" d="m1259.41,1886.29c7.44-10.45,18.26-17.21,30.56-17.56l39.44-1.13,2.49,86.88,8.63-.25-2.99-104.14-39.48,1.13c-18.16.52-33.25,15.1-38.66,35.07Z"/>
            </g>
            <path class="cls-6" d="m1257.27,1904.52c.83,28.78,20.43,51.51,43.78,50.84l39.48-1.13-2.99-104.14-21.24.61,1.46,51.07-39.44,1.13c-7.5.21-14.63-2-20.85-6.05-.2,2.51-.28,5.05-.21,7.67Z"/>
            <path class="cls-5" d="m1300.07,1965.82c-28.5,0-52.24-27.06-53.21-61.01h0c-.99-34.46,21.86-63.18,50.92-64.01l39.46-1.13c5.78-.22,10.57,4.37,10.73,10.14l2.99,104.13c.17,5.76-4.37,10.57-10.13,10.73l-39.46,1.13c-.43.01-.86.02-1.29.02Zm-32.34-61.61c.66,22.95,15.4,41.16,33.04,40.72l29.03-.83-2.39-83.26-29.03.83c-17.56.5-31.3,19.59-30.65,42.55h0Z"/>
            <ellipse class="cls-9" cx="1339.03" cy="1902.18" rx="42.25" ry="52.09" transform="translate(-53.96 39.15) rotate(-1.64)"/>
            <g class="cls-22">
              <path class="cls-12" d="m1296.79,1903.39c.09,3.12.41,6.2.93,9.2,2.82-24.43,19.55-43.43,40.36-44.03,20.77-.6,38.56,17.42,42.77,41.64.34-3.02.49-6.11.4-9.23-.82-28.74-20.39-51.51-43.7-50.84-23.35.67-41.58,24.52-40.76,53.26Z"/>
            </g>
            <path class="cls-6" d="m1296.79,1903.39c.83,28.78,20.39,51.55,43.74,50.88,23.31-.67,41.54-24.52,40.72-53.3-.05-1.76-.18-3.47-.38-5.15-6.43,17.11-20.35,29.11-36.79,29.58-21.94.63-40.54-19.43-43.36-45.69-2.76,7.15-4.18,15.2-3.93,23.68Z"/>
            <path class="cls-5" d="m1339.53,1964.7c-28.47,0-52.2-27.06-53.17-61.02h0c-.99-34.46,21.84-63.18,50.88-64.01,14.6-.5,28.17,5.99,38.52,18.02,9.82,11.42,15.48,26.68,15.94,42.97.47,16.29-4.31,31.86-13.46,43.81-9.64,12.61-22.93,19.79-37.42,20.2-.43.01-.86.02-1.29.02Zm-32.3-61.61c.66,22.95,15.55,41.04,33,40.72,8.08-.23,15.69-4.5,21.44-12.01,6.25-8.17,9.5-19.01,9.17-30.54-.33-11.52-4.2-22.16-10.91-29.96-6.17-7.17-14.07-10.99-22.09-10.77-17.54.5-31.27,19.59-30.61,42.55h0Z"/>
          </g>
          <g>
            <path class="cls-4" d="m1368.38,2143.12c0,203.42-105.38,243.9-292.23,243.9l-108.37-177.04-194.13-317.22s198.67-43.73,312.11,43.78c0,0,46.21-49.46,117.56-54.73,74.19-5.47,155.3,50.96,164.24,228.16v.05c.57,10.58.83,21.63.83,33.1Z"/>
            <g class="cls-18">
              <path class="cls-7" d="m1368.38,2143.12c0,203.42-105.38,243.9-292.23,243.9l-108.37-177.04c92.01-4.59,163.98-19.05,163.98-19.05,0,0,38.41,82.97,118.34,82.97s108.22-74.76,117.46-163.88c.57,10.58.83,21.63.83,33.1Z"/>
            </g>
            <ellipse class="cls-10" cx="1250.08" cy="2143.14" rx="118.3" ry="206.62"/>
            <path class="cls-5" d="m1250.08,2370.42c-77.92,0-138.95-99.83-138.95-227.27s61.04-227.27,138.95-227.27,138.95,99.83,138.95,227.27-61.04,227.27-138.95,227.27Zm0-413.23c-52.93,0-97.65,85.16-97.65,185.96s44.72,185.96,97.65,185.96,97.65-85.16,97.65-185.96-44.72-185.96-97.65-185.96Z"/>
            <path class="cls-5" d="m1076.16,2407.69c-11.41,0-20.65-9.25-20.65-20.65s9.25-20.65,20.65-20.65c180.11,0,271.57-34.52,271.57-223.24,0-127.04-34.41-185.66-63.29-212.48-28.12-26.12-58.82-29.78-79.59-28.23-61.99,4.58-103.66,47.82-104.08,48.26-7.29,7.69-19.26,8.66-27.65,2.19-104.34-80.5-293.16-40.35-295.06-39.94-11.13,2.44-22.15-4.61-24.59-15.74-2.44-11.14,4.59-22.14,15.72-24.6,8.17-1.79,194.23-41.5,314.95,37.47,20.19-16.68,61.87-44.71,117.66-48.83,41.55-3.05,79.85,10.47,110.74,39.16,34.89,32.41,76.48,100.83,76.48,242.74,0,220.29-119.71,264.55-312.87,264.55Z"/>
            <path class="cls-5" d="m1200.84,2094.58c-23.34,0-44.78-.04-62.34-.14-11.41-.06-20.6-9.37-20.54-20.77.06-11.37,9.3-20.54,20.65-20.54.04,0,.08,0,.12,0,56.07.29,152.03.03,222.64-.26h.09c11.37,0,20.6,9.19,20.65,20.57.05,11.41-9.16,20.69-20.57,20.74-48.63.2-109.27.39-160.69.39Z"/>
            <path class="cls-5" d="m1194.78,2239.84c-20.16,0-38.97-.03-54.85-.1-11.4-.05-20.61-9.34-20.56-20.75.05-11.37,9.29-20.56,20.65-20.56h.1c60.37.28,163.71-.07,219.94-.3l.14,41.31c-41.51.17-108.72.4-165.42.4Z"/>
            <path class="cls-5" d="m1098.43,1952.83c-.07.26-.9,1.15-1.43,1.77l-1.9,2.2c-1.32,1.41-2.6,3.07-3.94,4.59-2.68,3.08-5.31,6.34-7.97,9.57-5.23,6.56-10.53,13.19-15.47,20.17-10.02,13.84-19.81,28.23-28.69,43.48-3.97,7.84-8.76,15.41-12.39,23.57-1.87,4.05-4.02,8.02-5.88,12.12l-5.42,12.43c-3.97,8.24-6.64,16.93-10.35,25.45-3.2,8.65-6.14,17.45-9.63,26.29l-.08.2c-.61,1.54-2.34,2.29-3.88,1.68-1.13-.45-1.84-1.51-1.89-2.66-.4-9.48-.77-19.1-.44-28.69.25-4.78.59-9.57.98-14.37.33-4.81.72-9.64,1.56-14.39l2.26-14.36c.77-4.81,2.01-9.5,3.12-14.25,2.07-9.55,5.05-18.89,8.08-28.26,6.62-18.52,14.67-36.86,25.68-53.67,2.69-4.24,5.57-8.35,8.7-12.34,1.55-2,3.01-4.05,4.63-6.01l5.03-5.74c3.35-3.85,7.02-7.43,10.84-10.98,1.93-1.77,3.88-3.45,6.02-5.15,1.07-.87,2.04-1.65,3.24-2.51,1.23-.89,2.12-1.56,3.87-2.74,8.57-5.79,20.22-3.53,26,5.05,3.12,4.62,3.9,10.14,2.61,15.15l-3.25,12.4Z"/>
          </g>
          <g>
            <g>
              <path class="cls-12" d="m1721.64,1114.76c-58.61,108.94-145.13,203.74-255.02,273.08-22.42,14.13-45.72,27.2-69.97,39.1-11.78,5.82-23.88,11.34-36.16,16.67-37.11,15.86-74.8,28.5-112.82,38.04-32.75,8.3-65.76,14.25-98.73,18.03-39.81,4.58-79.63,5.88-119.09,4.14-14.39-.68-28.72-1.74-42.99-3.16-261.1-26.67-501.04-187.82-613.86-442.27-166.28-374.81,6.29-810.01,385.34-972.09,73.03-31.16,148.44-50.06,223.73-57.3,8.79-.93,17.65-1.61,26.5-2.11,23.68-1.49,47.3-1.85,70.79-1.11,54.35,1.74,108.1,9.37,160.25,22.45,52.15,13.02,102.81,31.55,150.93,55.17,15.3,7.5,30.36,15.5,45.17,24.05,22.18,12.83,43.74,26.71,64.61,41.84,104.11,74.99,190.14,177.37,245.5,302.25,95.66,215.6,79.17,451.15-24.18,643.25Z"/>
              <path class="cls-5" d="m1063.33,1506.39c-11.19,0-22.38-.24-33.56-.74-14.36-.67-28.86-1.74-43.09-3.17-270.57-27.64-506.36-197.52-615.37-443.36-80.3-181-84.79-381.76-12.63-565.29,72.73-185,214.41-330.34,398.93-409.24,72-30.73,147.45-50.05,224.27-57.44,8.4-.89,17.1-1.58,26.57-2.11,23.59-1.48,47.45-1.85,70.95-1.11,53.95,1.73,108,9.3,160.64,22.5,52.16,13.02,103.06,31.63,151.3,55.3,15.5,7.6,30.73,15.71,45.28,24.11,22.65,13.1,44.44,27.21,64.77,41.94,107.43,77.39,192.53,182.16,246.11,303,92.69,208.9,83.85,443.95-24.25,644.87-59.93,111.39-148.34,206.05-255.66,273.76-22.71,14.32-46.31,27.5-70.14,39.19-10.87,5.38-22.72,10.84-36.24,16.71-36.67,15.67-74.72,28.5-113.11,38.13-32.16,8.15-65.45,14.23-98.96,18.07-28.26,3.26-57.01,4.89-85.82,4.89Zm-7.51-1479.15c-15.71,0-31.48.49-47.14,1.47-9.43.53-18.06,1.21-26.42,2.1-76.46,7.36-151.55,26.59-223.2,57.17-183.6,78.51-324.58,223.12-396.94,407.2-71.79,182.61-67.33,382.36,12.57,562.45,108.47,244.63,343.12,413.68,612.37,441.18,14.17,1.42,28.59,2.49,42.89,3.16,39.77,1.74,79.74.36,118.79-4.13,33.35-3.82,66.48-9.87,98.48-17.98,38.2-9.59,76.06-22.35,112.55-37.94,13.45-5.84,25.25-11.28,36.07-16.63,23.72-11.63,47.2-24.76,69.8-39,106.79-67.37,194.75-161.56,254.38-272.39h0c107.55-199.91,116.35-433.77,24.12-641.63-53.31-120.24-137.99-224.5-244.9-301.5-20.23-14.66-41.91-28.7-64.45-41.74-14.47-8.36-29.63-16.43-45.06-23.99-48-23.56-98.66-42.08-150.57-55.04-52.39-13.14-106.17-20.67-159.86-22.39-7.79-.25-15.63-.37-23.48-.37Z"/>
            </g>
            <g class="cls-19">
              <path class="cls-5" d="m373.01,1058.35c112.8,254.49,352.78,415.65,613.88,442.28,14.27,1.45,28.59,2.5,42.96,3.17,39.47,1.76,79.29.43,119.09-4.12,32.96-3.8,65.99-9.73,98.72-18.02,38.04-9.53,75.72-22.17,112.85-38.03,12.26-5.37,24.35-10.85,36.16-16.66,24.25-11.91,47.53-25.03,69.96-39.14,109.89-69.34,196.43-164.11,255.04-273.09,32.21-59.84,56-123.94,70.57-190.33-58.34,102.69-141.92,191.98-246.76,258.14-22.4,14.17-45.71,27.22-69.96,39.14-11.76,5.82-23.85,11.3-36.16,16.66-37.14,15.86-74.81,28.5-112.81,38.05-32.77,8.27-65.75,14.22-98.72,18.02-39.8,4.55-79.66,5.86-119.09,4.12-14.41-.69-28.73-1.74-43-3.19-261.1-26.63-501.03-187.77-613.88-442.28-65.87-148.45-78.52-306.36-46.3-453-110.79,194.77-130.72,437.05-32.56,658.27Z"/>
            </g>
            <path class="cls-5" d="m1063.33,1518.75c-11.37,0-22.74-.25-34.1-.75-14.61-.69-29.33-1.77-43.78-3.22-274.99-28.09-514.63-200.77-625.43-450.65-81.65-184.04-86.21-388.19-12.83-574.83,73.95-188.11,217.99-335.87,405.57-416.08,73.17-31.23,149.86-50.87,227.95-58.38,8.49-.9,17.39-1.61,27.07-2.15,23.89-1.5,48.15-1.88,72.04-1.12,54.84,1.76,109.76,9.45,163.26,22.87,52.99,13.23,104.72,32.14,153.74,56.19,15.75,7.72,31.23,15.96,46.02,24.5,23.02,13.32,45.17,27.66,65.84,42.63,109.18,78.65,195.69,185.16,250.16,308,94.25,212.42,85.27,451.43-24.66,655.74h0c-60.94,113.26-150.83,209.52-259.96,278.36-23.08,14.56-47.07,27.95-71.29,39.84-11.02,5.44-23.05,11-36.76,16.94-37.33,15.96-76.01,28.99-115.02,38.78-32.66,8.28-66.51,14.46-100.57,18.36-28.73,3.31-57.95,4.97-87.23,4.97Zm-7.51-1479.15c-15.44,0-30.96.48-46.36,1.45-9.3.52-17.74,1.19-25.9,2.06-75.31,7.25-149.17,26.16-219.64,56.24-180.53,77.19-319.14,219.38-390.29,400.35-70.57,179.51-66.18,375.86,12.36,552.91,106.68,240.59,337.47,406.85,602.32,433.9,13.93,1.4,28.14,2.44,42.21,3.11,39.08,1.73,78.4.36,116.79-4.06,32.81-3.75,65.4-9.7,96.86-17.68,37.6-9.43,74.84-21.99,110.73-37.33,13.2-5.73,24.82-11.08,35.45-16.34,23.36-11.46,46.46-24.37,68.69-38.38,104.99-66.23,191.47-158.83,250.09-267.79,105.73-196.52,114.37-426.42,23.71-630.75-52.42-118.24-135.7-220.76-240.82-296.48-19.91-14.43-41.24-28.24-63.42-41.06-14.22-8.21-29.13-16.15-44.31-23.59-47.23-23.18-97.06-41.39-148.12-54.14-51.55-12.93-104.45-20.34-157.26-22.03-7.66-.24-15.37-.36-23.09-.36Zm665.83,1075.16h.05-.05Z"/>
            <path class="cls-5" d="m1063.33,1529.94c-11.53,0-23.07-.25-34.6-.76-14.84-.7-29.76-1.8-44.4-3.27-279-28.5-522.12-203.71-634.55-457.25-82.87-186.8-87.5-394.01-13.02-583.45,75.06-190.91,221.23-340.88,411.58-422.28,74.24-31.68,152.05-51.61,231.28-59.23,8.57-.91,17.65-1.63,27.51-2.18,24.16-1.52,48.78-1.9,73.02-1.14,55.64,1.78,111.36,9.59,165.62,23.2,53.75,13.42,106.22,32.6,155.94,57,15.97,7.82,31.68,16.19,46.68,24.86,23.36,13.51,45.83,28.06,66.81,43.26,110.76,79.79,198.55,187.87,253.82,312.52,95.66,215.6,86.54,458.19-25.03,665.57h0c-61.85,114.96-153.09,212.65-263.84,282.52-23.42,14.77-47.76,28.36-72.34,40.42-11.15,5.52-23.35,11.14-37.23,17.17-37.93,16.21-77.17,29.44-116.75,39.37-33.12,8.4-67.46,14.67-102.02,18.62-29.14,3.36-58.8,5.04-88.5,5.04Zm-7.51-1479.15c-15.21,0-30.49.48-45.66,1.43-9.19.52-17.45,1.17-25.42,2.01-74.27,7.15-147.01,25.78-216.43,55.41-177.75,76-314.23,215.99-384.27,394.15-69.47,176.7-65.14,370,12.18,544.28,105.06,236.93,332.37,400.66,593.23,427.31,13.71,1.38,27.72,2.41,41.6,3.06,38.47,1.7,77.18.36,114.99-4,32.32-3.7,64.41-9.56,95.39-17.41,37.05-9.3,73.73-21.67,109.08-36.77,12.97-5.63,24.42-10.91,34.89-16.08,23.04-11.3,45.79-24.01,67.68-37.81,103.35-65.21,188.49-156.37,246.2-263.63,104.08-193.45,112.59-419.77,23.33-620.92-51.62-116.43-133.62-217.38-237.14-291.95-19.63-14.22-40.63-27.82-62.48-40.46-14-8.08-28.68-15.9-43.63-23.23-46.53-22.83-95.61-40.77-145.91-53.33-50.78-12.74-102.9-20.04-154.91-21.7-7.54-.24-15.13-.36-22.73-.36Zm665.83,1063.97h.05-.05Z"/>
            <path class="cls-5" d="m1610.77,1268.9c-436.15,304.59-1035.57,91.39-1072.18-430.93-24.91-355.35,308.45-651.96,655.86-651.93,252.85.02,500.26,109.16,609.55,496.27,0,0,21.59,178.6-26.35,297.78-47.94,119.18-115,227-115,227l-51.88,61.81Z"/>
            <path class="cls-8" d="m538.61,837.98c36.6,522.3,636.04,735.5,1072.17,430.94l10.5-12.54c-482.32,87.17-966.55-196.09-1013.53-723.56-50.43,91.43-76.81,195.49-69.14,305.16Z"/>
            <g class="cls-23">
              <g class="cls-1">
                <g>
                  <g class="cls-24">
                    <circle class="cls-12" cx="1183.84" cy="976.24" r="6.58"/>
                  </g>
                  <g class="cls-24">
                    <path class="cls-12" d="m764.55,721.53c0,3.63-2.95,6.58-6.58,6.58s-6.58-2.95-6.58-6.58,2.95-6.58,6.58-6.58,6.58,2.95,6.58,6.58Z"/>
                  </g>
                  <g class="cls-24">
                    <circle class="cls-12" cx="1463.97" cy="1250.08" r="6.58"/>
                  </g>
                  <g class="cls-24">
                    <circle class="cls-12" cx="1166.49" cy="1341.79" r="6.58"/>
                  </g>
                  <g class="cls-24">
                    <circle class="cls-12" cx="1148.91" cy="1607.12" r="6.58"/>
                  </g>
                  <g class="cls-24">
                    <circle class="cls-12" cx="1322.68" cy="1104.46" r="11.34" transform="translate(20.61 2233.15) rotate(-80.78)"/>
                  </g>
                  <circle class="cls-16" cx="935.86" cy="1256.66" r="11.34"/>
                  <g class="cls-24">
                    <circle class="cls-12" cx="986.62" cy="1033.98" r="16.04" transform="translate(-442.16 1000.49) rotate(-45)"/>
                  </g>
                  <circle class="cls-16" cx="1059.14" cy="770.77" r="13.32"/>
                  <g class="cls-24">
                    <circle class="cls-12" cx="1684.13" cy="1122.39" r="6.58"/>
                  </g>
                  <path class="cls-16" d="m1593.33,1354.95c0,3.63-2.95,6.58-6.58,6.58s-6.58-2.95-6.58-6.58,2.95-6.58,6.58-6.58,6.58,2.95,6.58,6.58Z"/>
                  <g class="cls-24">
                    <circle class="cls-12" cx="817.97" cy="1250.08" r="6.58"/>
                  </g>
                  <g class="cls-24">
                    <circle class="cls-12" cx="1263.35" cy="1512.63" r="10.69"/>
                  </g>
                  <g class="cls-24">
                    <circle class="cls-12" cx="676.49" cy="1473.46" r="6.58"/>
                  </g>
                  <g class="cls-24">
                    <circle class="cls-12" cx="751.39" cy="982.82" r="6.58"/>
                  </g>
                  <g class="cls-24">
                    <circle class="cls-12" cx="1780.87" cy="1400.69" r="6.58"/>
                  </g>
                  <g class="cls-24">
                    <circle class="cls-12" cx="1537.24" cy="1607.12" r="6.58"/>
                  </g>
                  <g>
                    <path class="cls-17" d="m1572.3,941.18c2.29,5.84,3.48,11.69,4.33,17.53.81,5.84,1.19,11.69,1.2,17.53,0,5.84-.37,11.69-1.18,17.53-.85,5.84-2.04,11.69-4.35,17.53-2.31-5.84-3.5-11.69-4.35-17.53-.81-5.84-1.19-11.69-1.18-17.53,0-5.84.38-11.69,1.2-17.53.85-5.84,2.04-11.69,4.33-17.53Z"/>
                    <path class="cls-17" d="m1607.36,976.24c-5.84,2.29-11.69,3.48-17.53,4.33-5.84.81-11.69,1.19-17.53,1.2-5.84,0-11.69-.37-17.53-1.18-5.84-.85-11.69-2.04-17.53-4.35,5.84-2.31,11.69-3.5,17.53-4.35,5.84-.81,11.69-1.19,17.53-1.18,5.84,0,11.69.38,17.53,1.2,5.84.86,11.69,2.04,17.53,4.33Z"/>
                  </g>
                  <g>
                    <path class="cls-17" d="m1690.71,1537c2.29,5.84,3.48,11.69,4.33,17.53.81,5.84,1.19,11.69,1.2,17.53,0,5.84-.37,11.69-1.18,17.53-.85,5.84-2.04,11.69-4.35,17.53-2.31-5.84-3.5-11.69-4.35-17.53-.81-5.84-1.19-11.69-1.18-17.53,0-5.84.38-11.69,1.2-17.53.85-5.84,2.04-11.69,4.33-17.53Z"/>
                    <path class="cls-17" d="m1725.77,1572.06c-5.84,2.29-11.69,3.48-17.53,4.33-5.84.81-11.69,1.19-17.53,1.2-5.84,0-11.69-.37-17.53-1.18-5.84-.85-11.69-2.04-17.53-4.35,5.84-2.31,11.69-3.5,17.53-4.35,5.84-.81,11.69-1.19,17.53-1.18,5.84,0,11.69.38,17.53,1.2,5.84.86,11.69,2.04,17.53,4.33Z"/>
                  </g>
                  <g>
                    <path class="cls-17" d="m853.03,1466.88c2.29,5.84,3.48,11.69,4.33,17.53.81,5.84,1.19,11.69,1.2,17.53,0,5.84-.37,11.69-1.18,17.53-.85,5.84-2.04,11.69-4.35,17.53-2.31-5.84-3.5-11.69-4.35-17.53-.81-5.84-1.19-11.69-1.18-17.53,0-5.84.38-11.69,1.2-17.53.85-5.84,2.04-11.69,4.33-17.53Z"/>
                    <path class="cls-17" d="m888.09,1501.94c-5.84,2.29-11.69,3.48-17.53,4.33-5.84.81-11.69,1.19-17.53,1.2-5.84,0-11.69-.37-17.53-1.18-5.84-.85-11.69-2.04-17.53-4.35,5.84-2.31,11.69-3.5,17.53-4.35,5.84-.81,11.69-1.19,17.53-1.18,5.84,0,11.69.38,17.53,1.2,5.84.86,11.69,2.04,17.53,4.33Z"/>
                  </g>
                </g>
                <g>
                  <g class="cls-24">
                    <circle class="cls-12" cx="1017.58" cy="136.9" r="6.58"/>
                  </g>
                  <g class="cls-24">
                    <circle class="cls-12" cx="1297.71" cy="410.74" r="6.58"/>
                  </g>
                  <g class="cls-24">
                    <circle class="cls-12" cx="1000.23" cy="502.45" r="6.58"/>
                  </g>
                  <g class="cls-24">
                    <circle class="cls-12" cx="982.65" cy="767.77" r="6.58"/>
                  </g>
                  <g class="cls-24">
                    <circle class="cls-12" cx="1156.42" cy="265.12" r="11.34" transform="translate(709.48 1364.14) rotate(-80.78)"/>
                  </g>
                  <circle class="cls-16" cx="769.6" cy="417.32" r="11.34"/>
                  <g class="cls-24">
                    <circle class="cls-12" cx="820.36" cy="194.64" r="16.04" transform="translate(-12.04 328.75) rotate(-22.5)"/>
                  </g>
                  <g class="cls-24">
                    <circle class="cls-12" cx="1517.87" cy="283.05" r="6.58"/>
                  </g>
                  <path class="cls-16" d="m1427.07,515.61c0,3.63-2.95,6.58-6.58,6.58s-6.58-2.95-6.58-6.58,2.95-6.58,6.58-6.58,6.58,2.95,6.58,6.58Z"/>
                  <g class="cls-24">
                    <circle class="cls-12" cx="651.71" cy="410.74" r="6.58"/>
                  </g>
                  <g class="cls-24">
                    <circle class="cls-12" cx="1097.09" cy="673.29" r="10.69"/>
                  </g>
                  <g class="cls-24">
                    <circle class="cls-12" cx="510.22" cy="634.12" r="6.58"/>
                  </g>
                  <g class="cls-24">
                    <circle class="cls-12" cx="585.13" cy="143.48" r="6.58"/>
                  </g>
                  <g class="cls-24">
                    <circle class="cls-12" cx="1614.6" cy="561.34" r="6.58"/>
                  </g>
                  <g class="cls-24">
                    <circle class="cls-12" cx="1370.98" cy="767.77" r="6.58"/>
                  </g>
                  <g>
                    <path class="cls-17" d="m1406.04,101.84c2.29,5.84,3.48,11.69,4.33,17.53.81,5.84,1.19,11.69,1.2,17.53,0,5.84-.37,11.69-1.18,17.53-.85,5.84-2.04,11.69-4.35,17.53-2.31-5.84-3.5-11.69-4.35-17.53-.81-5.84-1.19-11.69-1.18-17.53,0-5.84.38-11.69,1.2-17.53.85-5.84,2.04-11.69,4.33-17.53Z"/>
                    <path class="cls-17" d="m1441.1,136.9c-5.84,2.29-11.69,3.48-17.53,4.33-5.84.81-11.69,1.19-17.53,1.2-5.84,0-11.69-.37-17.53-1.18-5.84-.85-11.69-2.04-17.53-4.35,5.84-2.31,11.69-3.5,17.53-4.35,5.84-.81,11.69-1.19,17.53-1.18,5.84,0,11.69.38,17.53,1.2,5.84.86,11.69,2.04,17.53,4.33Z"/>
                  </g>
                  <g>
                    <path class="cls-17" d="m1524.45,697.66c2.29,5.84,3.48,11.69,4.33,17.53.81,5.84,1.19,11.69,1.2,17.53,0,5.84-.37,11.69-1.18,17.53-.85,5.84-2.04,11.69-4.35,17.53-2.31-5.84-3.5-11.69-4.35-17.53-.81-5.84-1.19-11.69-1.18-17.53,0-5.84.38-11.69,1.2-17.53.86-5.84,2.04-11.69,4.33-17.53Z"/>
                    <path class="cls-17" d="m1559.51,732.71c-5.84,2.29-11.69,3.48-17.53,4.33-5.84.81-11.69,1.19-17.53,1.2-5.84,0-11.69-.37-17.53-1.18-5.84-.85-11.69-2.04-17.53-4.35,5.84-2.31,11.69-3.5,17.53-4.35,5.84-.81,11.69-1.19,17.53-1.18,5.84,0,11.69.38,17.53,1.2,5.84.86,11.69,2.04,17.53,4.33Z"/>
                  </g>
                  <g>
                    <path class="cls-17" d="m686.77,627.54c2.29,5.84,3.48,11.69,4.33,17.53.81,5.84,1.19,11.69,1.2,17.53,0,5.84-.37,11.69-1.18,17.53-.85,5.84-2.04,11.69-4.35,17.53-2.31-5.84-3.5-11.69-4.35-17.53-.81-5.84-1.19-11.69-1.18-17.53,0-5.84.38-11.69,1.2-17.53.86-5.84,2.04-11.69,4.33-17.53Z"/>
                    <path class="cls-17" d="m721.82,662.6c-5.84,2.29-11.69,3.48-17.53,4.33-5.84.81-11.69,1.19-17.53,1.2-5.84,0-11.69-.37-17.53-1.18-5.84-.85-11.69-2.04-17.53-4.35,5.84-2.31,11.69-3.5,17.53-4.35,5.84-.81,11.69-1.19,17.53-1.18,5.84,0,11.69.38,17.53,1.2,5.84.86,11.69,2.04,17.53,4.33Z"/>
                  </g>
                </g>
                <g>
                  <path class="cls-14" d="m1501.02,859.83c-.57,5.19-1.45,10.38-2.65,15.54-2.75,11.85-7.17,23.52-13.38,34.68-35.79,64.4-117,87.6-181.41,51.81-51.28-28.5-76.43-85.8-66.49-140.47,2.55-13.99,7.39-27.81,14.67-40.93,11.39-20.48,27.36-36.79,45.93-48.36,2.98-1.87,6.04-3.61,9.16-5.23,16.77-8.7,35.24-13.77,54.12-14.83.17,0,.33-.02.5-.03,1.16-.06,2.31-.11,3.47-.14,2.3-.06,4.61-.06,6.91,0,15.66.39,31.43,3.56,46.55,9.72,5,2.02,9.93,4.37,14.76,7.06,1.04.58,2.07,1.16,3.09,1.77.62.36,1.23.73,1.83,1.11,45.17,27.62,68.4,78.31,62.93,128.3Z"/>
                  <path class="cls-14" d="m1501.02,859.83c-.57,5.19-1.45,10.38-2.65,15.54-2.75,11.85-7.17,23.51-13.38,34.68-35.79,64.4-117.01,87.6-181.41,51.81-51.28-28.49-76.44-85.8-66.49-140.48,2.55-13.99,7.39-27.8,14.67-40.93,7.9-14.21,18.01-26.42,29.67-36.43,5.14-4.41,10.57-8.39,16.26-11.93,2.98-1.87,6.04-3.61,9.16-5.22,16.77-8.7,35.24-13.77,54.11-14.83.17,0,.33-.02.5-.03,1.15-.06,2.31-.11,3.47-.14,2.3-.07,4.61-.07,6.92,0,15.66.39,31.43,3.56,46.55,9.71,4.99,2.02,9.93,4.37,14.76,7.06,1.04.58,2.07,1.16,3.09,1.77.61.36,1.23.74,1.83,1.11,7.16,4.38,13.77,9.33,19.8,14.78,32.01,28.89,47.73,71.45,43.13,113.51Z"/>
                  <path class="cls-15" d="m1315.23,776.08c-2.74-5.55-3.81-11.22-4.22-15.01,3.84-.37,7.41,1.21,8.86,4.25,1.78,3.73-.3,8.36-4.64,10.76Z"/>
                  <path class="cls-15" d="m1303.58,961.86c64.4,35.78,145.61,12.59,181.41-51.81,6.2-11.16,10.63-22.83,13.38-34.68,1.2-5.16,2.08-10.35,2.65-15.54,1.01-9.25,1.04-18.53.13-27.68-.04.42-.09.84-.13,1.27-.57,5.19-1.45,10.38-2.65,15.54-2.75,11.85-7.17,23.51-13.38,34.68-35.79,64.4-117,87.6-181.41,51.81-39.73-22.08-63.78-61.45-67.96-103.49-5.13,51.36,19.98,103.24,67.96,129.91Z"/>
                  <path class="cls-15" d="m1449.53,859.88c-3.64,16.25,1.34,29.41,11.14,29.39s21.57-12.8,25.21-29.06c3.64-16.25-2.23-29.83-12.02-29.8s-20.69,13.22-24.33,29.48Z"/>
                  <path class="cls-5" d="m1442.28,849.11c-3.6,8.4-4.13,17.24-2.41,25.73.87,4.23,2.4,8.33,4.64,11.93,2.29,3.54,5.29,6.67,9.52,8.18l.05.02c.49.17.74.71.57,1.2-.14.38-.49.62-.88.62-5.16.03-10.12-3.02-13.36-6.96-3.36-3.95-5.43-8.75-6.57-13.67-1.1-4.94-1.21-10.1-.17-15.06,1.02-4.94,3.25-9.71,6.72-13.29.45-.46,1.19-.47,1.65-.03.36.35.45.86.26,1.29v.03Z"/>
                  <path class="cls-15" d="m1307.45,754.21c-7.32.3-13.08,5.6-12.88,11.85s6.3,11.06,13.61,10.76,13.08-5.6,12.88-11.85c-.2-6.24-6.3-11.06-13.61-10.76Z"/>
                  <path class="cls-14" d="m1307.3,762.04c-5.04,2.2-7.57,7.25-5.66,11.26,1.91,4.02,7.54,5.48,12.57,3.28,5.04-2.2,7.57-7.25,5.66-11.26-1.91-4.02-7.54-5.48-12.57-3.28Z"/>
                  <path class="cls-5" d="m1308.24,778.48c-5.82,1.18-13.23-1.43-16.16-8.08-1.46-3.24-1.3-7.17.14-10.41,1.51-3.23,4.13-5.73,7.11-7.27,5.99-3.05,13.49-2.63,18.81,1.48,2.66,1.97,4.62,5.04,5.12,8.34.48,3.29-.5,6.67-2.52,8.95-.33.39-.93.44-1.32.11-.32-.27-.4-.73-.25-1.1,2.22-4.89-.04-9.92-3.96-12.1-3.88-2.32-9.14-2.31-13.02-.2-3.96,2.05-6.26,6.26-5,10.24,1.21,4.02,5.77,7.15,10.95,7.75.64.07,1.09.65,1.02,1.29-.06.51-.45.91-.93,1.01Z"/>
                  <path class="cls-5" d="m1325.39,757.19c4.25,4.24,5.3,11.74,2.3,17.48-2.82,5.84-8.57,9.66-14.58,11.04-6.03,1.36-12.61.48-17.84-2.92-2.6-1.66-4.85-3.92-6.34-6.62-1.41-2.73-2.18-5.8-1.83-8.73.06-.52.53-.88,1.04-.82.41.05.73.37.81.76,1,5.13,4.57,8.92,8.85,10.97,4.29,2.07,9.32,2.48,13.9,1.35,4.54-1.11,8.78-3.77,11.18-7.63,2.44-3.81,2.87-8.88.63-13.55-.28-.58-.04-1.28.54-1.56.46-.22,1-.1,1.34.24Z"/>
                  <path class="cls-5" d="m1271.97,795.59c4.04.24,7.95,1.8,11.46,3.99,3.44,2.33,6.34,5.49,8.46,9.11,4.25,7.3,5.03,16.22,3.09,24.25-1.93,8.05-6.49,15.41-12.9,20.53-6.3,5.17-14.53,8.15-22.5,7.32-.51-.05-.88-.51-.83-1.02.05-.44.41-.78.83-.83,7.37-.88,14.06-4.32,19.15-9.26,5.03-4.99,8.72-11.33,10.23-18.16,1.58-6.77,1.05-14.04-1.88-20.28-1.44-3.13-3.55-5.96-6.24-8.19-2.6-2.35-5.8-4.09-9.3-5.2-.61-.19-.95-.84-.76-1.45.16-.52.66-.84,1.18-.81Z"/>
                  <ellipse class="cls-15" cx="1263.31" cy="828.02" rx="23" ry="19.06" transform="translate(227.51 1927.42) rotate(-79.95)"/>
                  <path class="cls-14" d="m1262.63,847.65c6.78.08,13.68-4.53,17.22-12.29,4.71-10.33,1.69-22.33-6.74-26.8-1.19-.63-2.43-1.08-3.69-1.35-4.98,2.03-9.44,6.29-12.15,12.21-4.79,10.49-2.34,22.55,5.36,28.23Z"/>
                  <path class="cls-5" d="m1244.53,819.47c1.62-4.22,4.62-7.97,8.44-10.73,3.89-2.64,8.74-4.21,13.73-3.81,1.25.06,2.46.41,3.66.79,1.19.4,2.45.66,3.54,1.34,2.23,1.19,4.24,2.84,5.84,4.81,3.13,4.02,4.63,9.06,4.54,13.95-.21,9.81-6.25,19.07-15.15,22.9-4.4,1.88-9.51,2.44-14.12.96-4.55-1.51-8.41-4.87-10.26-9.04v-.02c-.22-.47,0-1.02.46-1.23.41-.18.89-.04,1.14.32,4.79,6.88,14.03,8.21,20.6,4.44,6.64-3.61,11.12-11.02,11.15-18.42,0-3.66-1.01-7.31-3.16-10.11-1.06-1.39-2.37-2.58-3.89-3.47-.72-.53-1.61-.68-2.43-1.01-.83-.29-1.64-.7-2.55-.8-7.24-1.21-15.13,3.31-19.49,10.17-.34.54-1.06.7-1.6.36-.47-.3-.65-.89-.46-1.39Z"/>
                  <path class="cls-5" d="m1421.5,821.8c2.04,10.32-.76,21.69-7.5,30.27-6.7,8.66-17.26,14.07-28.12,15.02-10.89,1.03-21.95-2.22-30.59-8.6-4.29-3.21-8.04-7.11-11-11.51-2.83-4.48-4.98-9.38-5.99-14.5-.1-.5.23-.99.73-1.09.45-.09.89.17,1.05.59,3.53,9.31,9.99,17.18,18.07,22.34,8.12,5.04,17.76,7.64,27.14,6.62,9.34-.89,18.27-5.3,24.52-12.35,3.15-3.49,5.59-7.67,7.1-12.21,1.65-4.51,2.41-9.39,2.3-14.33-.01-.64.49-1.16,1.13-1.18.57-.01,1.05.39,1.16.93Z"/>
                  <ellipse class="cls-15" cx="1379.21" cy="823.79" rx="29.33" ry="26.74" transform="translate(-171.58 404.39) rotate(-15.72)"/>
                  <path class="cls-14" d="m1355.15,831.17c2.49,9.14,10.71,16.46,21.46,17.94,14.32,1.97,27.7-7.15,29.91-20.37.31-1.87.38-3.72.23-5.52-4.36-5.83-11.22-10.02-19.42-11.16-14.54-2-28.22,6.38-32.17,19.11Z"/>
                  <path class="cls-5" d="m1382.38,795.43c6,.62,11.78,3.39,16.39,7.51,4.52,4.22,7.82,9.89,9.03,16.15,1.29,6.24.07,13-3.15,18.61-3.28,5.57-8.57,10.02-14.73,12.02-12.35,4.1-26.62-.78-33.91-11.09-3.69-5.05-5.86-11.26-5.71-17.48.19-6.17,2.49-12.3,6.69-16.63.35-.37.94-.39,1.31-.04.34.32.38.85.12,1.22-6.58,9.14-5.31,21.9,1.58,29.84,3.4,3.99,7.84,7.09,12.81,8.59,4.96,1.52,10.34,1.47,15.11-.22,4.79-1.65,8.99-4.9,11.61-9.21,2.63-4.31,3.56-9.6,2.88-14.7-1.3-10.32-9.74-19.51-20.46-22.28-.62-.16-.99-.79-.83-1.41.15-.56.68-.92,1.24-.86Z"/>
                  <g>
                    <path class="cls-14" d="m1303.64,898.7c-6.28,3.3-11.18,8.12-13.92,14.28-4.96,11.15-1.45,23.48,7.63,34.33,5.96,7.12,14.41,13.32,24.69,17.48,25.93,10.51,53.62,4.05,61.84-14.42,3.06-6.87,2.99-14.44.36-21.78-4.43-12.38-19.71-16.11-35.99-22.71"/>
                    <path class="cls-5" d="m1290.77,913.45c-3.93,10.53.18,21.74,6.97,30.07,6.81,8.48,16.1,14.89,26.36,18.75,10.14,4.14,21.36,5.71,32.16,4.25,10.67-1.43,21.42-6.62,26.77-16.52.24-.45.81-.62,1.26-.38.41.22.58.71.43,1.13-1.99,5.63-6.1,10.44-10.99,13.96-4.98,3.45-10.73,5.62-16.61,6.83-11.83,2.39-24.11.62-35.27-3.5-11.04-4.4-21.35-11.45-28.36-21.32-3.45-4.9-6.24-10.44-7.38-16.48-1.07-6.01-.32-12.45,2.56-17.73.29-.56.99-.78,1.55-.49.51.27.73.89.55,1.42Z"/>
                    <ellipse class="cls-15" cx="1336.81" cy="931.44" rx="27.97" ry="38.48" transform="translate(94.45 1985.57) rotate(-75.18)"/>
                    <ellipse class="cls-14" cx="1338.65" cy="939.25" rx="20.57" ry="32.62" transform="translate(178.07 2091.3) rotate(-79.84)"/>
                    <path class="cls-5" d="m1361.54,955.68c2.94-1.81,5.52-4.11,7.39-6.84,1.87-2.73,2.91-5.93,3.18-9.12.64-6.47-2.3-12.92-6.55-17.99-8.6-10.25-22.26-16.3-35.65-16.59-6.66-.13-13.5,1.15-18.9,4.68-5.42,3.41-8.92,9.25-9.04,15.62-.19,6.43,3.03,12.83,7.39,18.02,4.39,5.31,10.25,9.36,16.58,12.48.46.22.66.77.45,1.24-.2.43-.7.62-1.14.48-6.92-2.38-13.42-6.27-18.74-11.6-5.14-5.38-9.32-12.45-9.59-20.57-.48-8.14,4.25-16.17,10.93-20.46,6.65-4.5,14.56-6.04,22.18-6.05,7.67.14,15.17,2.1,22.01,5.35,6.8,3.26,13.18,7.83,17.8,14.02,4.57,6.07,7.76,13.9,6.57,21.88-1.21,7.94-6.9,14.57-13.79,17.48-.58.26-1.26,0-1.52-.59-.23-.53-.02-1.15.45-1.45Z"/>
                  </g>
                  <g>
                    <path class="cls-14" d="m1419.21,772.04c4.68-3.08,8.17-7.25,9.85-12.3,3.05-9.15-.67-18.58-8.64-26.41-5.23-5.14-12.36-9.37-20.76-11.85-21.2-6.27-42.48.93-47.52,16.09-1.88,5.64-1.24,11.59,1.39,17.15,4.44,9.39,14.7,17.17,28.01,21.11"/>
                    <path class="cls-5" d="m1427.96,759.38c2.06-8.52-2.04-16.74-7.97-22.65-6-5.97-13.7-10.19-21.93-12.46-8.2-2.39-16.99-2.79-25.29-.98-8.19,1.86-16.11,6.57-19.76,14.57-.21.47-.76.68-1.23.48-.41-.18-.62-.64-.53-1.06,1.07-4.65,3.96-8.82,7.53-12.06,3.67-3.18,8.06-5.39,12.63-6.85,9.2-2.89,19.14-2.59,28.32-.07,9.15,2.54,17.9,7.44,24.18,14.82,3.1,3.66,5.73,7.88,7.08,12.63,1.26,4.74,1.13,9.96-.85,14.35-.25.59-.93.86-1.51.61-.52-.22-.79-.8-.67-1.33Z"/>
                    <ellipse class="cls-15" cx="1390.6" cy="748.84" rx="22.1" ry="30.41" transform="translate(428.21 2001.17) rotate(-80.76)"/>
                    <ellipse class="cls-14" cx="1388.56" cy="742.84" rx="16.25" ry="25.78" transform="translate(537.28 2067.69) rotate(-85.42)"/>
                    <path class="cls-5" d="m1369.43,731.88c-4.31,3.28-7.03,8.18-6.77,13.17.03,4.98,2.8,9.69,6.49,13.24,7.43,7.22,18.49,10.86,28.85,10.06,5.15-.39,10.32-1.87,14.17-4.95,3.88-3,6.08-7.61,5.76-12.46-.28-4.9-3.2-9.62-6.94-13.36-3.76-3.84-8.62-6.6-13.78-8.66-.48-.18-.73-.71-.55-1.19.16-.43.63-.67,1.07-.58,5.68,1.25,11.15,3.79,15.85,7.57,4.54,3.85,8.48,9.14,9.38,15.68,1.08,6.54-2.12,13.46-7.17,17.45-5,4.16-11.22,6.02-17.3,6.64-6.14.5-12.28-.51-17.98-2.57-5.67-2.09-11.13-5.23-15.28-9.85-4.11-4.52-7.25-10.58-6.89-17.11.41-6.5,4.53-12.24,9.82-15l.03-.02c.56-.29,1.26-.07,1.55.49.26.51.11,1.12-.32,1.45Z"/>
                  </g>
                  <ellipse class="cls-14" cx="1463.84" cy="858.88" rx="25.89" ry="13.5" transform="translate(180.15 1969.13) rotate(-71.26)"/>
                  <path class="cls-5" d="m1484.18,839.14c-1.35-2.06-3.09-3.77-5.1-4.78-2.02-1.01-4.3-1.21-6.47-.84-4.42.72-8.46,3.76-11.59,7.38-6.31,7.3-10.12,17.17-10.36,26.79-.17,4.77.63,9.68,3.02,13.32,2.33,3.68,6.36,5.37,10.71,4.5,4.35-.89,8.55-3.86,11.85-7.52,3.5-3.57,6.07-8.04,8.27-12.69v-.02c.23-.46.78-.66,1.25-.44.41.2.62.66.5,1.08-1.41,5.16-3.74,10.15-7.06,14.56-3.33,4.35-7.78,8.23-13.63,9.95-2.9.81-6.28.89-9.31-.31-3.05-1.14-5.58-3.35-7.32-5.88-3.51-5.12-4.45-11.07-4.44-16.69.09-5.68,1.46-11.18,3.56-16.32,2.1-5.13,5-10.03,8.98-14.05,3.96-3.93,9-7.39,15.09-7.97,3.01-.19,6.16.54,8.66,2.2,2.53,1.64,4.31,4.08,5.41,6.63.25.58-.02,1.26-.6,1.52-.52.22-1.12.02-1.43-.43Z"/>
                  <g class="cls-20">
                    <path class="cls-12" d="m1472.13,797.19c-5.96,14.06,11.23,36.04,3.01,76.02-3.49,16.96,17.13,5.47,18.43-28.82,1.2-31.78-17.24-57.11-21.44-47.2Z"/>
                  </g>
                  <g class="cls-20">
                    <path class="cls-12" d="m1447.14,762.55c1.29,5.56,10.61,11.69,16.68,21.8,6.49,10.81,15.83,8.6,7.89-11.58-8.46-21.51-26.99-20.71-24.56-10.22Z"/>
                  </g>
                  <path class="cls-5" d="m1368.15,981.74c-22.42,0-45.13-5.52-66.07-17.16-51.16-28.43-78.5-86.2-68.03-143.75,2.67-14.66,7.72-28.76,15.01-41.88,11.25-20.23,27.5-37.34,47-49.49,3.01-1.89,6.16-3.69,9.37-5.35,17.05-8.85,36.2-14.09,55.37-15.17l.58-.03c1.11-.06,2.3-.11,3.49-.14,2.34-.06,4.7-.07,7.06,0,16.42.41,32.45,3.76,47.65,9.94,5.13,2.08,10.21,4.51,15.1,7.22,1.07.6,2.14,1.2,3.18,1.83.6.35,1.24.74,1.86,1.13,44.83,27.42,70.1,78.95,64.38,131.28-.58,5.29-1.49,10.64-2.71,15.9-2.87,12.37-7.47,24.31-13.69,35.49-24.92,44.85-71.56,70.18-119.56,70.18Zm.36-266.8c-1.16,0-2.32.01-3.48.05-1.14.03-2.27.08-3.39.14l-.53.03c-18.26,1.02-36.54,6.03-52.82,14.48-3.06,1.58-6.06,3.3-8.94,5.1-18.62,11.6-34.13,27.93-44.86,47.24-6.96,12.53-11.79,25.99-14.34,39.98-9.99,54.93,16.11,110.07,64.94,137.2,62.8,34.9,142.29,12.19,177.18-50.61,5.94-10.67,10.33-22.07,13.07-33.87,1.17-5.02,2.04-10.13,2.59-15.17h0c5.46-49.95-18.66-99.14-61.46-125.31-.59-.37-1.18-.73-1.77-1.07-1.03-.62-2.03-1.18-3.04-1.75-4.66-2.59-9.51-4.91-14.41-6.89-14.51-5.9-29.8-9.1-45.47-9.49-1.09-.02-2.18-.04-3.27-.04Z"/>
                </g>
              </g>
            </g>
            <path class="cls-5" d="m1174.89,1503.24c-185.15,0-362.51-62.16-495.52-175.45-141.81-120.79-224.03-287.99-237.76-483.54-12.6-179.62,53.66-357.05,186.57-499.59,147.6-158.3,360.26-252.81,568.85-252.81h.06c115.92,0,220.45,20.42,310.7,60.68l1.72.77,1.53,1.1c109.8,79.09,196.79,186.19,251.55,309.69,94.77,213.59,85.73,453.92-24.8,659.36h0c-61.28,113.88-151.66,210.67-261.39,279.89-23.21,14.63-47.32,28.11-71.68,40.05-11.06,5.47-23.16,11.05-36.94,17.03-37.55,16.05-76.43,29.16-115.66,39l-2.82.48c-24.89,2.24-49.73,3.34-74.42,3.34Zm22.14-1374.74c-198.62,0-401.23,90.14-542.03,241.15-125.9,135.03-188.69,302.66-176.81,472.03,13.02,185.5,90.81,343.94,224.96,458.2,142.96,121.76,340.22,181.34,541.45,163.63,36.88-9.33,73.44-21.7,108.69-36.76,13.12-5.69,24.67-11.02,35.24-16.25,23.24-11.4,46.21-24.23,68.32-38.17,104.38-65.85,190.37-157.92,248.66-266.25,105.12-195.39,113.71-423.97,23.57-627.13-51.87-117-134.13-218.52-237.93-293.71-85.13-37.63-184.05-56.72-294.05-56.73h-.06Zm524.61,986.25h.05-.05Z"/>
            <path class="cls-5" d="m1173.3,1427.65c-104.56,0-207.92-22.27-302.73-67.55-206.31-98.54-333.98-288.38-350.27-520.84-11.24-160.37,47.9-318.76,166.53-445.99,131.69-141.23,321.44-225.55,507.56-225.55h.06c320.71.03,531.73,171.49,627.19,509.62l.56,2.78c.9,7.48,21.59,184.68-27.54,306.82-47.99,119.29-113.67,225.38-116.44,229.84l-1.53,2.1-53.43,63.67-1.99,1.39c-136.04,95-293.31,143.72-447.96,143.72Zm21.09-1223.27c-176.15,0-355.85,79.95-480.75,213.89-111.62,119.71-167.3,268.31-156.77,418.42,15.34,218.92,135.44,397.64,329.5,490.33,222.46,106.25,495.03,78.71,711.92-71.77l49.45-58.91c7.07-11.52,68.66-113.12,112.89-223.08,43.45-108.02,27.12-270.85,25.31-287.39-90.64-319.48-289.64-481.46-591.51-481.49h-.05Zm416.38,1064.53h.05-.05Z"/>
            <path class="cls-12" d="m205.91,806.88c-7.62,145.61,73.16,272.57,180.46,283.55,107.3,10.98,200.46-98.17,208.08-243.78.07-.91.09-1.88.11-2.8,6.48-144.44-74.02-269.86-180.57-280.75-82.89-8.49-157.34,54.73-190.45,151.04-9.73,28.36-15.9,59.63-17.63,92.75Z"/>
            <g class="cls-19">
              <path class="cls-5" d="m205.91,806.88c-7.62,145.61,73.16,272.57,180.46,283.55,107.3,10.98,200.46-98.17,208.08-243.78.07-.91.09-1.88.11-2.8-12.58,13.74-31.71,26.57-56.32,19.07-43.11-13.16-116.4-114.8-116.4-114.8,0,0-85.9-15.29-198.29-33.98-9.73,28.36-15.9,59.63-17.63,92.75Z"/>
            </g>
            <path class="cls-5" d="m401.49,1116.59c-5.87,0-11.78-.3-17.71-.91-120.38-12.31-211.56-151.44-203.26-310.13l25.36,1.33-25.36-1.33c4.78-91.4,40.79-172.32,98.8-222,40.77-34.92,88.22-50.72,137.22-45.72,120.38,12.31,211.56,151.43,203.26,310.12-4.78,91.4-40.79,172.32-98.8,222-35.84,30.7-76.84,46.63-119.52,46.63Zm-2.35-528.86c-30.57,0-60.34,11.75-86.77,34.39-46.8,40.08-77.12,109.65-81.12,186.08-6.91,132.08,63.84,247.34,157.71,256.94,34.82,3.57,69.06-8.11,99.01-33.77,46.8-40.08,77.12-109.65,81.12-186.09,6.91-132.08-63.84-247.34-157.71-256.94-4.09-.42-8.18-.63-12.24-.63Z"/>
            <g>
              <ellipse class="cls-12" cx="336.32" cy="845.25" rx="158.67" ry="209.89" transform="translate(-36.61 15.5) rotate(-2.5)"/>
              <path class="cls-5" d="m340.17,1057.12c-18.34,0-36.72-4.22-54.62-12.66-46.83-22.08-83.37-70.07-100.23-131.66-30.26-110.5,12.7-230.77,95.77-268.11,34.54-15.52,71.19-15.05,106,1.35,46.83,22.08,83.37,70.06,100.24,131.66,30.26,110.5-12.7,230.77-95.77,268.11-16.77,7.54-34.06,11.31-51.38,11.31Zm-151.16-145.32c16.57,60.51,52.35,107.6,98.17,129.2,33.76,15.92,69.31,16.37,102.79,1.32,81.42-36.6,123.43-154.85,93.65-263.6-16.57-60.51-52.36-107.6-98.17-129.2-33.76-15.92-69.31-16.37-102.79-1.32-81.42,36.6-123.43,154.85-93.65,263.6h0Z"/>
            </g>
            <g class="cls-19">
              <path class="cls-5" d="m481.39,942.39c11.83-37.95,13.13-79.28,5.71-118.59-34.37,84.25-115.45,114.86-187.86,67.86-46.81-30.35-79.2-86.18-90.65-147-2.2,5.3-4.17,10.89-5.97,16.64-30.07,96.64,7.95,215.53,84.95,265.53,77,50,163.76,12.15,193.83-84.44Z"/>
            </g>
            <path class="cls-5" d="m336.72,1080.78c-4.69,0-9.39-.26-14.12-.78-95.52-10.53-165.27-123.69-158.8-257.63,3.76-77.84,34.16-148.32,81.31-188.55,31.08-26.51,66.99-38.37,103.85-34.32,95.52,10.52,165.27,123.69,158.79,257.63-3.76,77.84-34.16,148.32-81.3,188.55-27.09,23.12-57.86,35.1-89.73,35.1Zm-147.55-257.19l25.36,1.23c-5.01,103.62,47.03,197.36,113.63,204.7,28.54,3.15,51.27-10.49,65.32-22.47,36.69-31.3,60.44-88.26,63.54-152.37,5.01-103.62-47.03-197.36-113.63-204.7-28.53-3.17-51.27,10.48-65.32,22.47-36.69,31.3-60.44,88.26-63.54,152.36l-25.36-1.23Z"/>
            <g class="cls-21">
              <path class="cls-12" d="m1011.67,328.68s330.06-4.5,512.52,182.9c.19.2.38.39.57.59,38.37,39.47,65.26,113.72,78.24,166.81,17.16,70.2,18.58,121.01,18.07,165.77-1.59,136.14-28.16,199.51-28.16,199.51,79.35-70.64,124.54-151.57,127.01-264.94.21-11.18.01-22.71-.57-34.55-.12-2.73-.31-5.43-.54-8.15.06-.02.03-.08-.04-.16-2.89-23.9-7.89-55.17-16.51-90-25.94-105.05-84.55-242.48-216.83-307.99-247.33-122.5-484.98-24.18-473.78-9.78Z"/>
            </g>
            <g class="cls-21">
              <ellipse class="cls-12" cx="759.75" cy="657.16" rx="115.13" ry="100.22" transform="translate(-84.73 1201.15) rotate(-73.65)"/>
            </g>
            <g class="cls-21">
              <ellipse class="cls-12" cx="702.57" cy="858.36" rx="47.56" ry="41.37" transform="translate(-354.64 1194.05) rotate(-68.32)"/>
            </g>
          </g>
          <g>
            <path class="cls-4" d="m720.16,1537.88s238.81-145.72,473.2-145.85c265.77-.15,298.18,252.8,154.13,320.87-135.2,63.88-452.31,25.93-452.31,25.93"/>
            <path class="cls-5" d="m1094.66,1775.47c-104.73,0-195.49-10.6-202.5-11.44-13.93-1.67-23.86-14.31-22.19-28.23,1.67-13.93,14.28-23.88,28.23-22.2,3.11.37,311.43,36.34,438.44-23.67,53.43-25.25,80.26-82.56,66.77-142.62-14.11-62.81-76.64-129.9-209.82-129.9h-.22c-224.29.13-457.66,140.72-459.99,142.14-11.98,7.29-27.6,3.51-34.9-8.47-7.3-11.97-3.52-27.59,8.45-34.9,10-6.1,247.64-149.43,486.41-149.57h.25c163.15,0,240.95,87.57,259.37,169.56,18.53,82.48-20.38,164.59-94.62,199.67-66.05,31.21-170.41,39.62-263.68,39.62Z"/>
          </g>
        </g>
        <rect class="cls-13" x="152.84" y="1702.94" width="150.71" height="691.43" rx="51.17" ry="51.17"/>
        <g class="cls-18">
          <path class="cls-5" d="m265.91,2392.56c-4.34,1.19-8.83,1.81-13.53,1.81h-48.38c-28.24,0-51.17-22.87-51.17-51.17v-589.1c0-28.24,22.92-51.17,51.17-51.17h48.38c4.7,0,9.19.62,13.53,1.81-21.74,5.89-37.74,25.76-37.74,49.36v589.1c0,23.65,16.01,43.47,37.74,49.36Z"/>
        </g>
        <path class="cls-5" d="m252.38,2419.76h-48.37c-42.22,0-76.57-34.35-76.57-76.56v-589.09c0-42.22,34.35-76.57,76.57-76.57h48.37c42.22,0,76.57,34.35,76.57,76.57v589.09c0,42.22-34.35,76.56-76.57,76.56Zm-48.37-691.43c-14.21,0-25.77,11.56-25.77,25.78v589.09c0,14.21,11.56,25.77,25.77,25.77h48.37c14.21,0,25.77-11.56,25.77-25.77v-589.09c0-14.21-11.56-25.78-25.77-25.78h-48.37Z"/>
        <g>
          <rect class="cls-13" x="641.16" y="1702.94" width="150.71" height="691.43" rx="51.17" ry="51.17"/>
          <g class="cls-18">
            <path class="cls-5" d="m754.24,2392.55c-4.34,1.19-8.83,1.81-13.53,1.81h-48.38c-28.24,0-51.17-22.87-51.17-51.17v-589.1c0-28.24,22.92-51.17,51.17-51.17h48.38c4.7,0,9.19.62,13.53,1.81-21.74,5.89-37.74,25.76-37.74,49.36v589.1c0,23.65,16.01,43.47,37.74,49.36Z"/>
          </g>
          <path class="cls-5" d="m740.7,2419.76h-48.37c-42.22,0-76.56-34.35-76.56-76.56v-589.09c0-42.22,34.35-76.57,76.56-76.57h48.37c42.22,0,76.56,34.35,76.56,76.57v589.09c0,42.22-34.35,76.56-76.56,76.56Zm-48.37-691.43c-14.21,0-25.77,11.56-25.77,25.78v589.09c0,14.21,11.56,25.77,25.77,25.77h48.37c14.21,0,25.77-11.56,25.77-25.77v-589.09c0-14.21-11.56-25.78-25.77-25.78h-48.37Z"/>
        </g>
        <g>
          <rect class="cls-13" x="2165.35" y="1702.94" width="150.71" height="691.43" rx="51.17" ry="51.17"/>
          <g class="cls-18">
            <path class="cls-5" d="m2278.42,2392.55c-4.34,1.19-8.83,1.81-13.53,1.81h-48.38c-28.24,0-51.17-22.87-51.17-51.17v-589.1c0-28.24,22.92-51.17,51.17-51.17h48.38c4.7,0,9.19.62,13.53,1.81-21.74,5.89-37.74,25.76-37.74,49.36v589.1c0,23.65,16.01,43.47,37.74,49.36Z"/>
          </g>
          <path class="cls-5" d="m2264.89,2419.76h-48.37c-42.22,0-76.56-34.35-76.56-76.56v-589.09c0-42.22,34.35-76.57,76.56-76.57h48.37c42.22,0,76.56,34.35,76.56,76.57v589.09c0,42.22-34.35,76.56-76.56,76.56Zm-48.37-691.43c-14.21,0-25.77,11.56-25.77,25.78v589.09c0,14.21,11.56,25.77,25.77,25.77h48.37c14.21,0,25.77-11.56,25.77-25.77v-589.09c0-14.21-11.56-25.78-25.77-25.78h-48.37Z"/>
        </g>
        <g>
          <rect class="cls-13" x="2653.67" y="1702.94" width="150.71" height="691.43" rx="51.17" ry="51.17"/>
          <g class="cls-18">
            <path class="cls-5" d="m2766.74,2392.55c-4.34,1.19-8.83,1.81-13.53,1.81h-48.38c-28.24,0-51.17-22.87-51.17-51.17v-589.1c0-28.24,22.92-51.17,51.17-51.17h48.38c4.7,0,9.19.62,13.53,1.81-21.74,5.89-37.74,25.76-37.74,49.36v589.1c0,23.65,16.01,43.47,37.74,49.36Z"/>
          </g>
          <path class="cls-5" d="m2753.21,2419.76h-48.37c-42.22,0-76.56-34.35-76.56-76.56v-589.09c0-42.22,34.35-76.57,76.56-76.57h48.37c42.22,0,76.56,34.35,76.56,76.57v589.09c0,42.22-34.35,76.56-76.56,76.56Zm-48.37-691.43c-14.21,0-25.77,11.56-25.77,25.78v589.09c0,14.21,11.56,25.77,25.77,25.77h48.37c14.21,0,25.77-11.56,25.77-25.77v-589.09c0-14.21-11.56-25.78-25.77-25.78h-48.37Z"/>
        </g>
        <rect class="cls-13" x="49.26" y="1617.71" width="2844.03" height="150.71" rx="37.34" ry="37.34"/>
        <g class="cls-20">
          <path class="cls-12" d="m54.32,1700.57c0-20.62,16.72-37.34,37.34-37.34h2769.35c13.8,0,25.82,7.5,32.28,18.63v-26.82c0-20.62-16.72-37.34-37.34-37.34H86.6c-20.62,0-37.34,16.72-37.34,37.34v76.03c0,6.82,1.86,13.2,5.06,18.71v-49.21Z"/>
        </g>
        <g class="cls-18">
          <path class="cls-5" d="m2893.29,1655.73v75.33c0,20.65-16.73,37.38-37.33,37.38H86.61c-20.6,0-37.33-16.73-37.33-37.38v-75.33c0,20.65,16.73,37.38,37.33,37.38h2769.35c20.6,0,37.33-16.73,37.33-37.38Z"/>
        </g>
        <path class="cls-5" d="m2855.96,1793.81H86.6c-34.59,0-62.73-28.14-62.73-62.73v-76.03c0-34.59,28.14-62.73,62.73-62.73h2769.35c34.59,0,62.74,28.14,62.74,62.73v76.03c0,34.59-28.14,62.73-62.74,62.73ZM86.6,1643.1c-6.59,0-11.94,5.36-11.94,11.94v76.03c0,6.59,5.36,11.94,11.94,11.94h2769.35c6.59,0,11.95-5.36,11.95-11.94v-76.03c0-6.59-5.36-11.94-11.95-11.94H86.6Z"/>
        <path class="cls-5" d="m841.3,1793.81H86.6c-34.59,0-62.73-28.14-62.73-62.73v-76.03c0-34.59,28.14-62.73,62.73-62.73h754.69c34.59,0,62.73,28.14,62.73,62.73v76.03c0,34.59-28.14,62.73-62.73,62.73Zm-754.69-150.71c-6.59,0-11.94,5.36-11.94,11.94v76.03c0,6.59,5.36,11.94,11.94,11.94h754.69c6.59,0,11.94-5.36,11.94-11.94v-76.03c0-6.59-5.36-11.94-11.94-11.94H86.6Z"/>
        <g>
          <path class="cls-10" d="m2622.62,762.07h-786.19c-47.23,0-88.95,30.79-102.88,75.92l-181.62,588.55c-13.9,45.05,19.78,90.7,66.93,90.7h847.93c40.83,0,76.9-26.61,88.94-65.63l169.76-550.13c21.37-69.25-30.4-139.41-102.88-139.41Z"/>
          <path class="cls-10" d="m2642.82,809.5h-829.07c-47.23,0-88.95,30.79-102.88,75.92l-181.62,588.55c-13.9,45.05,19.78,90.7,66.93,90.7h847.93c40.83,0,76.9-26.61,88.94-65.63l182.4-591.1c15.09-48.9-21.47-98.44-72.64-98.44Z"/>
          <g class="cls-20">
            <path class="cls-12" d="m2725.49,901.46l-169.76,550.12c-3.82,12.44-10.12,23.59-18.23,33.04l177.97-576.66c15.08-48.95-21.48-98.46-72.64-98.46h-829.08c-33.25,0-63.76,15.23-83.74,40.07l3.56-11.57c13.94-45.18,55.66-75.95,102.85-75.95h786.23c72.44,0,124.22,70.17,102.85,139.4Z"/>
          </g>
          <g class="cls-18">
            <path class="cls-5" d="m2552.42,1460.62c-14.46,34.08-48.07,56.64-85.6,56.64h-847.93c-47.19,0-80.85-45.69-66.96-90.71l181.64-588.53c13.94-45.18,55.66-75.95,102.85-75.95h6.4c-3.3,6.04-5.99,12.55-8.11,19.31l-195.99,635.11c-6.76,21.94,9.6,44.14,32.58,44.14h881.12Z"/>
          </g>
          <rect class="cls-10" x="1002.14" y="1517.23" width="1549.23" height="100.47" rx="45.42" ry="45.42"/>
          <g class="cls-18">
            <path class="cls-5" d="m2551.39,1562.64v9.65c0,25.09-20.34,45.44-45.43,45.44h-1458.4c-25.09,0-45.43-20.34-45.43-45.44v-9.65c0-7.07,1.6-13.73,4.49-19.67,7.38,15.23,22.92,25.71,40.94,25.71h1458.4c18.02,0,33.56-10.48,40.94-25.71,2.89,5.94,4.49,12.6,4.49,19.67Z"/>
          </g>
          <path class="cls-5" d="m2505.94,1643.1h-1458.38c-39.05,0-70.82-31.77-70.82-70.82v-9.62c0-39.05,31.77-70.82,70.82-70.82h1458.38c39.05,0,70.82,31.77,70.82,70.82v9.62c0,39.05-31.77,70.82-70.82,70.82Zm-1458.38-100.47c-11.04,0-20.03,8.98-20.03,20.03v9.62c0,11.04,8.98,20.03,20.03,20.03h1458.38c11.04,0,20.03-8.98,20.03-20.03v-9.62c0-11.04-8.98-20.03-20.03-20.03h-1458.38Z"/>
          <path class="cls-5" d="m2466.8,1542.63h-847.93c-30.62,0-58.61-14.13-76.79-38.77-18.18-24.64-23.43-55.55-14.4-84.81l181.62-588.55c17.31-56.12,68.41-93.83,127.14-93.83h786.19c42.69,0,81.71,19.7,107.06,54.05,25.35,34.35,32.67,77.45,20.08,118.24l-169.76,550.13c-15.42,49.97-60.91,83.54-113.21,83.54Zm-630.37-755.17c-36.31,0-67.91,23.31-78.61,58.01l-181.62,588.55c-4.22,13.69-1.77,28.15,6.74,39.67,8.51,11.53,21.6,18.14,35.93,18.14h847.93c29.88,0,55.87-19.18,64.68-47.72l169.76-550.12c7.78-25.22,3.26-51.87-12.41-73.11-15.67-21.24-39.8-33.42-66.2-33.42h-786.19Z"/>
          <path class="cls-5" d="m1503.35,1643.1h-454.17c-39.05,0-70.82-31.77-70.82-70.82v-9.62c0-39.05,31.77-70.82,70.82-70.82h454.17c39.05,0,70.82,31.77,70.82,70.82v9.62c0,39.05-31.77,70.82-70.82,70.82Zm-454.17-100.47c-11.04,0-20.03,8.98-20.03,20.03v9.62c0,11.04,8.98,20.03,20.03,20.03h454.17c11.04,0,20.03-8.98,20.03-20.03v-9.62c0-11.04-8.98-20.03-20.03-20.03h-454.17Z"/>
          <g>
            <path class="cls-12" d="m2159.19,1346.19c-12.18,0-21.53-9.55-22.22-22.7-.83-15.08-1.56-30.24-2.29-45.39l-.48-9.87c-.2,0-.41,0-.61,0-9.79,0-15.66-5.94-19.68-11.11-2.43-3.15-4.86-6.31-7.32-9.54-2.13,1.63-4.27,3.23-6.44,4.78-3.91,2.82-8.44,4.34-13.04,4.34-4.12,0-8.13-1.16-11.94-3.45-8.65-5.11-12.78-15.18-9.96-24.45,1.29-4.52,4.24-9.19,8.03-12.64,1.86-1.69,3.77-3.24,5.68-4.72-1.19-1.55-2.37-3.09-3.53-4.63l-.65-.89c-.2-.28-.39-.58-.62-.84-7.16-7.59-9.93-16.11-8.17-24.47l-50.85-16.46c-8.35-2.82-14.25-8.6-16.32-15.92-2.04-7.26-.05-15.19,5.46-21.77,13.25-15.91,31.49-36.1,54.96-50.88,21.42-13.45,42.22-19.98,63.61-19.98,1.56,0,3.13.03,4.71.1,9.57.48,17.95,2.19,25.56,5.19l3.45-3.28c6.99-6.65,14.21-13.53,22.03-19.8,26.19-21.09,57.17-32.93,94.68-36.16,6.21-.54,12.53-.81,18.78-.81,19.37,0,39.29,2.6,59.18,7.74,2.94.74,5.62,1.81,7.99,2.76,1,.41,2.01.81,3.02,1.17,1.97.71,3.7,1.95,5.01,3.59.56.72,2.49,3.29,2.94,3.84,1.12,1.41,1.89,3.08,2.23,4.86,2.47,12.79,1.09,24.83-.25,36.48l-.2,1.72c-3.72,32.87-13.73,62.6-29.76,88.39-12.82,20.65-29.24,37.59-48.8,50.33-4.34,2.82-8.72,5.52-13.1,8.22-2.63,1.62-5.26,3.25-7.88,4.89,2.78,26.3-5.38,50.7-24.82,74.56-13.15,16.04-30.19,29.62-52.11,41.54-7.78,4.22-15.94,8.34-24.97,12.59-3.71,1.76-7.52,2.66-11.3,2.66h0Zm21.4-59.09c10.12-6.24,18.16-12.4,25.07-19.14,10.08-9.93,16.37-19.47,19.73-29.95l-46.38,18.03c.53,10.24,1.06,20.59,1.58,31.06Zm11.57-156.16c5.12,0,9.97,1.75,14.04,5.08,5.48,4.46,8.58,10.97,8.46,17.83-.12,7.06-3.6,13.7-9.55,18.21-12.58,9.67-25.25,19.37-37.93,29.06-7.93,6.07-15.86,12.13-23.79,18.21,44.08-13.52,77.14-27.09,106.53-43.67,14.53-8.2,25.64-16.12,34.97-24.94,11.31-10.76,20.56-24.31,28.19-41.33-1.94-2.47-3.87-5-5.8-7.53l-3.68-4.81c-12.44-16.3-24.83-32.53-37.34-48.73-10.4,1.49-20.63,4.21-30.74,8.16-15.12,5.86-29.19,15.56-45.65,31.47-15.23,14.59-28.9,30.41-40.67,47.04-10.52,14.82-20.82,30.22-30.77,45.12l-1.7,2.54,20.12-15.42c13.57-10.42,27.15-20.81,40.76-31.2,4.46-3.35,9.46-5.1,14.55-5.1Zm-103.14,9.49c9.73-13.22,19.35-26.31,28.93-39.37-3.2.27-6.34.83-9.28,1.64-18.73,5.15-33.94,16.13-47.32,28.71l27.68,9.02Zm237.51-80.8c.44-3.31.78-6.57,1.02-9.82l-9.39-1.13,8.37,10.95Z"/>
            <path class="cls-5" d="m2360.78,1061.74c1.31-11.5,2.83-23.12.58-34.81-1.01-1.27-1.93-2.57-2.93-3.84-3.33-1.2-6.57-2.77-10.03-3.63-24.37-6.3-49.09-8.79-74.2-6.63-32.73,2.82-62.78,12.92-88.62,33.73-9.35,7.51-17.89,15.99-26.62,24.2-2.34,2.23-4.14,3.16-7.43,1.66-7.73-3.52-16.06-5.08-24.53-5.51-22.7-1.03-42.95,6.3-61.84,18.16-20.47,12.89-36.97,30.13-52.33,48.58-6.54,7.81-4,16.54,5.74,19.82,6.14,2.01,12.29,3.98,18.44,5.98,14.72,4.77,29.41,9.49,44.1,14.25-.03.46.01.7-.06.92-.12.29-.25.62-.44.9-6.13,7.88-4.64,15.17,1.82,22.01.7.76,1.29,1.66,1.9,2.49,3.38,4.45,6.84,8.94,10.42,13.58-4.89,3.78-9.7,6.99-13.95,10.87-2.15,1.95-4.04,4.79-4.85,7.61-1.38,4.54.97,9.18,5.01,11.56,4.28,2.58,8.7,2.47,12.68-.4,5.06-3.6,9.89-7.5,15.04-11.44,4.86,6.41,9.47,12.47,14.09,18.45,5.3,6.82,8.95,7.99,17.17,5.71,1.5-.47,2.98-.79,4.74-1.22.12,1.76.26,3.17.33,4.49,1.05,21.23,2.01,42.49,3.18,63.67.53,10.04,8.46,14.79,17.53,10.48,8.19-3.86,16.37-7.95,24.4-12.3,18.5-10.07,35.34-22.39,48.77-38.78,16.81-20.63,26.11-43.66,21.76-70.87-.19-1.07.71-2.9,1.64-3.46,8.25-5.32,16.72-10.29,24.98-15.65,18.66-12.16,33.67-27.97,45.39-46.85,15.95-25.66,24.75-53.82,28.14-83.73Zm-267.53,91.88c-17-5.53-34.62-11.28-52.73-17.17,18.71-19.88,38.5-37.24,65.16-44.57,11.52-3.17,24.83-2.9,32.69.3-14.92,20.37-29.88,40.74-45.12,61.44Zm142.97,87.37c-4.32,13.79-12.57,25.01-22.73,35.02-12.62,12.3-27.32,21.47-43.22,29.85-.96-19.52-1.94-38.62-2.9-57.33,24.03-9.35,47.52-18.47,71.14-27.65.91,6.51-.21,13.4-2.3,20.11Zm88.72-130.72c-7.73,18.25-17.88,34.86-32.34,48.62-11.16,10.55-23.83,19.03-37.16,26.55-36.16,20.41-74.91,34.49-114.53,46.39-1.94.56-3.12.46-4.39-1.32-2.77-3.93-5.86-7.72-8.79-11.59-.2-.22-.26-.58-.54-1.28,1.01-.81,2.1-1.61,3.19-2.45,22.61-17.36,45.33-34.66,67.95-52.06,6.54-4.96,6.82-13.49.77-18.41-4.23-3.46-9.79-3.41-14.67.26-13.61,10.38-27.18,20.76-40.75,31.18-10.12,7.74-20.16,15.45-30.68,23.51-3.61-4.71-7.09-9.02-10.23-13.55-.53-.81,0-2.86.74-3.86,12.05-17.99,24-36.06,36.55-53.74,12.41-17.55,26.51-33.76,42.03-48.63,14.55-14.06,30.32-26.47,49.38-33.86,12.22-4.76,24.83-7.99,37.85-9.39,1.18-.17,2.9,1.02,3.74,2.11,13.24,17.13,26.33,34.27,39.45,51.46,3.94,5.11,7.82,10.33,11.89,15.38,1.2,1.53,1.35,2.83.57,4.68Zm7.86-23.94c-13.09-17.14-25.86-33.81-38.66-50.57.02-.38.13-.83.19-1.25,14.9,1.78,29.83,3.61,44.92,5.42-.29,16.25-2.69,31.13-6.45,46.39Z"/>
            <path class="cls-12" d="m2324.37,1105.58c-4.06-5.05-7.95-10.27-11.89-15.38-13.12-17.19-26.21-34.33-39.45-51.46-.84-1.09-2.55-2.28-3.74-2.11-13.03,1.39-25.63,4.63-37.85,9.39-19.06,7.39-34.83,19.8-49.38,33.86-15.52,14.88-29.62,31.09-42.03,48.63-12.55,17.68-24.5,35.76-36.55,53.74-.73,1.01-1.27,3.05-.74,3.86,3.14,4.53,6.62,8.83,10.23,13.55,10.52-8.06,20.56-15.78,30.68-23.51,13.58-10.42,27.15-20.81,40.75-31.18,4.88-3.67,10.44-3.71,14.67-.26,6.05,4.93,5.77,13.45-.77,18.41-22.62,17.4-45.34,34.7-67.95,52.06-1.09.84-2.18,1.64-3.19,2.45.28.7.34,1.06.54,1.28,2.93,3.88,6.02,7.66,8.79,11.59,1.28,1.77,2.46,1.88,4.39,1.32,39.62-11.9,78.38-25.98,114.53-46.39,13.33-7.52,26-16,37.16-26.55,14.47-13.76,24.61-30.37,32.34-48.62.78-1.85.63-3.15-.57-4.68Zm-39.69,26.17c-17.29,13.03-41.74,9.84-54.73-7.21-13.07-17.02-9.77-41.46,7.35-54.67,16.81-12.94,41.28-9.6,54.39,7.43,12.97,16.93,9.8,41.74-7.01,54.45Z"/>
            <path class="cls-11" d="m2332.8,1086.3c-13.1-17.12-25.87-33.81-38.66-50.56.04-.4.13-.81.18-1.25,14.9,1.8,29.84,3.62,44.95,5.43-.29,16.23-2.71,31.13-6.47,46.38Z"/>
            <path class="cls-11" d="m2138.39,1092.18c-14.94,20.35-29.9,40.73-45.13,61.46-17.03-5.57-34.65-11.3-52.74-17.18,18.72-19.9,38.51-37.27,65.17-44.57,11.51-3.19,24.81-2.91,32.69.3Z"/>
            <path class="cls-11" d="m2213.47,1276.01c-12.62,12.3-27.3,21.49-43.21,29.84-.96-19.51-1.93-38.61-2.89-57.33,24.03-9.34,47.52-18.45,71.16-27.66.9,6.52-.24,13.4-2.31,20.14-4.32,13.79-12.57,25-22.76,35Z"/>
            <path class="cls-5" d="m2291.7,1077.3c-13.1-17.03-37.58-20.37-54.39-7.43-17.12,13.21-20.42,37.65-7.35,54.67,12.99,17.05,37.44,20.24,54.73,7.21,16.82-12.71,19.98-37.52,7.01-54.45Zm-18.66,40.07c-8.76,6.63-21.62,4.89-28.45-3.86-7.06-9.02-5.13-22.27,4.21-29.2,8.75-6.56,21.86-4.66,28.44,4.13,6.88,9.14,4.99,21.98-4.21,28.93Z"/>
            <path class="cls-9" d="m2273.03,1117.37c-8.76,6.63-21.62,4.88-28.46-3.88-7.03-9-5.12-22.25,4.22-29.18,8.76-6.55,21.86-4.66,28.44,4.12,6.88,9.15,5.01,22-4.2,28.94Z"/>
          </g>
        </g>
      </g>
    </g>
  </g>
</svg>