<?xml version="1.0" encoding="UTF-8"?>
<svg id="Layer_2" data-name="Layer 2" xmlns="http://www.w3.org/2000/svg" viewBox="0 0 2686.51 3229.1">
  <defs>
    <style>
      .cls-1 {
        opacity: .25;
      }

      .cls-2 {
        opacity: .41;
      }

      .cls-3 {
        opacity: .6;
      }

      .cls-4 {
        opacity: .5;
      }

      .cls-5 {
        opacity: .7;
      }

      .cls-6 {
        fill: #f9f9f9;
      }

      .cls-6, .cls-7, .cls-8, .cls-9, .cls-10, .cls-11, .cls-12, .cls-13, .cls-14, .cls-15, .cls-16, .cls-17, .cls-18 {
        stroke-width: 0px;
      }

      .cls-7 {
        fill: #371a45;
      }

      .cls-8 {
        fill: #111a28;
      }

      .cls-9 {
        fill: #22a7f0;
      }

      .cls-10 {
        fill: #d66b09;
      }

      .cls-11 {
        fill: #a7a9b7;
      }

      .cls-12 {
        fill: #ff9100;
      }

      .cls-13 {
        fill: #fff;
      }

      .cls-14 {
        fill: #ffec90;
      }

      .cls-15 {
        fill: #ffcf6e;
      }

      .cls-16 {
        fill: #ffaa39;
      }

      .cls-17 {
        fill: #ffb200;
      }

      .cls-18 {
        fill: #ffd766;
      }
    </style>
  </defs>
  <g id="Layer_1-2" data-name="Layer 1">
    <g>
      <path class="cls-13" d="m2073.41,2266.93l53.05-29.55c22.54-12.55,35.93-36.88,34.48-62.64l-9.78-173.46s-194.38,134.44-183.04,132.82"/>
      <path class="cls-7" d="m2073.43,2286.37c-6.83,0-13.44-3.6-17-9.98-5.22-9.38-1.86-21.22,7.52-26.44l53.05-29.55c15.92-8.87,25.55-26.36,24.53-44.56l-9.78-173.46c-.6-10.72,7.6-19.9,18.32-20.5,10.59-.6,19.9,7.59,20.5,18.31l9.78,173.46c1.86,32.97-15.59,64.65-44.43,80.71l-53.05,29.55c-2.99,1.67-6.24,2.46-9.44,2.46Z"/>
      <path class="cls-13" d="m934.79,1542.88l-14.88-216.03c-2.47-35.87,21.95-68.01,57.17-75.23,200.27-41.07,836.69-78.41,1053.33-57.94,36.21,3.42,64.95,31.88,68.65,68.07,4.94,48.25,11.54,120.98,14.84,192.46,5.67,122.7,37.26,375.39,37.26,375.39l25.33,129.12c9.44,48.1-18.79,95.61-65.55,110.33l-47.24,14.86-1073.94-455.17"/>
      <path class="cls-13" d="m1112.05,2388.42h-70.98c-46.8,0-84.74-37.94-84.74-84.74v-119.05l95.6-100.73,44.11,113.51"/>
      <path class="cls-7" d="m1112.05,2407.86h-70.98c-57.45,0-104.18-46.74-104.18-104.18v-119.05c0-10.73,8.7-19.44,19.44-19.44s19.44,8.7,19.44,19.44v119.05c0,36.01,29.29,65.31,65.3,65.31h70.98c10.74,0,19.44,8.7,19.44,19.44s-8.7,19.44-19.44,19.44Z"/>
      <path class="cls-7" d="m2063.69,2103.33c-2.59,0-5.17-.52-7.58-1.54l-1073.94-455.17c-9.89-4.19-14.5-15.6-10.31-25.48,4.19-9.88,15.61-14.49,25.48-10.31l1067.35,452.37,40.41-12.72c37.37-11.76,59.86-49.6,52.32-88.04l-25.33-129.12c-.09-.44-.16-.89-.21-1.33-.32-2.54-31.75-254.86-37.39-376.91-3.28-70.97-9.83-143.24-14.76-191.38-2.74-26.83-24.25-48.15-51.14-50.7-206-19.47-842.37,15.55-1047.6,57.63-25.56,5.24-43.48,28.82-41.69,54.86l14.88,216.04c.74,10.71-7.34,19.99-18.05,20.73-10.73.74-19.99-7.34-20.73-18.06l-14.88-216.04c-3.12-45.37,28.11-86.47,72.66-95.61,212.4-43.56,845.86-78.41,1059.06-58.25,45.3,4.28,81.54,40.21,86.16,85.44,4.98,48.62,11.6,121.67,14.92,193.54,5.42,117.47,35.24,358.7,37.04,373.21l25.2,128.45c11.36,57.9-22.51,114.9-78.79,132.61l-47.24,14.87c-1.9.6-3.87.9-5.84.9Z"/>
      <path class="cls-13" d="m2634.68,1342.47s65.6,92.72-14.58,187.48c-80.18,94.76-128.78,82.61-128.78,82.61-22.26,242.63-107.73,383.99-355.57,264.94,0-.05-.05-.05-.1-.1-6.22-2.96-12.54-6.12-18.95-9.43-7.82-4.03-15.74-8.31-23.86-12.83,0,0,21.04,281.85,1.6,443.81-19.44,161.96,103.7,745.1,103.7,745.1,0,0,19.44,84.26-8.12,116.63-8.6,10.11-19.24,18.95-29.79,26.34-24.05,16.81-52.82,25.51-82.12,25.51h-329.42c-21.92,0-41.01-15.26-45.48-36.74-7.39-35.38-10.98-89.51,20.26-130.96,5.39-7.19,11.86-13.95,19.49-20.22,0,0,.15-3.98.05-11.13-.24-35.57-5.15-149.19-55.11-230.19-51.51-83.53-103.02-256.77-116.48-303.81l-.19-.63v-.05c-2.09-7.29-3.21-11.37-3.21-11.37-.15,8.7-.29,17.45-.39,26.29-2.77,188.11,1.55,405.42,9.62,638.29,1.51,43.98-33.68,80.52-77.75,80.52h-431.28c-24.05,0-44.61-16.91-49.61-40.38-8.6-40.28-11.03-102.29,37.13-145.78,20.26-18.37,49.57-33.43,91.11-42.23,0,0-64.78-332.87-89.07-595.28-24.3-262.41-44.66-433.85-44.66-433.85l-254.2-141.02s99.62-431.03,374.18-525.79c274.56-94.76,777.51-46.16,777.51-46.16,0,0,138.64,29.98,294.87,216.24l101.17-192.77c35.13-80.86,78.33-103.26,107.49-65.12,9.28,12.15,14.04,27.16,14.72,42.42l3.3,73.72,119.88-71.24c24.3-11.91,47.77-18.22,69.83-14.87,2.33.34,4.67.87,6.85,1.51,27.6,7.92,43.64,36.93,36.74,65.75-4.08,17.25-14.19,32.27-30.81,44.8Z"/>
      <g class="cls-1">
        <path class="cls-7" d="m1234.35,1370.85c345.07,148.54,628.96,163.99,796.14-74.48l-62.84-35.59c-232.86,145.43-475.94,194.86-733.3,110.07Z"/>
      </g>
      <path class="cls-7" d="m1471,2131.59c-58.15,0-116.84-2.92-175.95-8.78-35.31-3.47-64.24-30.27-70.34-65.17-3.51-19.83-6.74-40.2-9.58-60.52-13.73-96.75-18.81-189.69-15.53-284.1,1.27-37.17,28.73-68.96,65.28-75.6,84.81-15.5,306.53-48.3,532.56-18.12,18.62,2.51,35.83,11.46,48.47,25.21.3.33.6.67.87,1.02,9.43,10.64,15.84,23.6,18.57,37.57,11.7,59.64,30.08,182.73,21.71,336.92v.02c-1.97,35.76-27.8,66.13-62.8,73.84-114.32,25.12-232.6,37.72-353.27,37.72Zm130.73-485.77c-146.12,0-271.31,19.14-329.88,29.84-18.71,3.4-32.74,19.67-33.4,38.69-3.2,92.12,1.77,182.83,15.18,277.33,2.79,19.9,5.94,39.81,9.38,59.21,3.12,17.81,17.87,31.45,35.88,33.22,177.68,17.61,351.64,8.13,517.04-28.22,18.02-3.97,31.32-19.61,32.33-38.02,8.14-149.97-9.69-269.45-21.05-327.33-1.44-7.38-4.88-14.2-9.94-19.73-.2-.22-.4-.44-.59-.67-6.45-6.71-15.08-11.07-24.4-12.33-64.93-8.67-129.58-12.01-190.55-12.01Zm265.93,373.14h.05-.05Z"/>
      <path class="cls-7" d="m2078.12,3229.1h-329.43c-31.07,0-58.2-21.95-64.49-52.2-14.37-68.95-.37-126.77,39.41-164.02-.13-31.18-4.1-144.18-52.26-222.27-31.36-50.85-62.24-132.4-85.1-200.61-.29,150.6,3.16,328.16,10.43,538.44.93,26.62-8.75,51.83-27.25,70.98-18.48,19.13-43.31,29.67-69.91,29.67h-431.31c-32.87,0-61.72-23.46-68.6-55.78-7.82-36.74-10.9-90.16,18.86-135.95,21.73-33.44,57.29-57.14,105.85-70.61-13.8-73.35-65.03-353.57-85.9-578.98-20.75-224.05-38.83-383.37-43.47-423.49l-245.45-136.16c-7.58-4.21-11.46-12.92-9.51-21.37,1.04-4.49,26.1-111.36,85.65-231.62,79.8-161.17,183.93-267.74,301.12-308.19,275.4-95.05,765.01-49.14,785.72-47.14.75.07,1.5.19,2.24.35,5.69,1.23,135.98,31.02,286.84,200.93l87.56-166.85c25.08-57.5,55.3-89.95,87.44-93.88,19.84-2.43,38.7,6.57,53.04,25.34,11.34,14.85,17.8,33.3,18.7,53.36l1.86,41.31,91.96-54.68c.45-.27.92-.52,1.4-.75,30.36-14.85,56.92-20.3,81.27-16.63,20.13,3.03,37.5,14.01,48.91,30.9,11.75,17.4,15.64,39.31,10.69,60.11-3.96,16.6-12.25,31.39-24.73,44.15,22.21,42.66,37.95,122.08-24.74,196.17-56.88,67.22-100.98,85.04-125.95,88.98-16.76,157.75-59.27,249.7-133.23,288.68-65.33,34.44-151,24.19-261.19-31.47,4.96,80.99,14.78,282.75-.8,412.58-18.84,156.98,102.16,732.98,103.39,738.78,2.13,9.24,20.6,94.51-12.31,133.23-8.74,10.29-20,20.27-33.48,29.68-27.14,18.97-59.39,29-93.25,29Zm-510.07-783.99c8.65,0,16.39,5.77,18.73,14.3.6,2.16,59.89,217.12,117.66,310.8,62.29,101.02,58.16,246.08,57.96,252.21-.19,5.61-2.79,10.86-7.14,14.4-42.76,34.91-41.55,91.13-33.01,132.15,2.56,12.31,13.68,21.25,26.44,21.25h329.43c25.85,0,50.4-7.6,70.99-21.99,10.75-7.51,19.54-15.24,26.12-22.99,14.57-17.14,11.09-68.61,3.96-99.68-5.13-24.28-123.62-588.49-104.02-751.79,18.98-158.22-1.49-437.26-1.7-440.06-.53-7.13,2.9-13.98,8.93-17.83,6.04-3.85,13.69-4.08,19.93-.59,111.4,62.17,197.29,78.2,255.31,47.62,62.99-33.2,100.39-123.15,114.34-274.99.55-5.95,2.97-11.56,7.99-14.8,4.9-3.16,10.16-4.18,15.65-2.42,4.42.34,44.41.92,109.64-76.17,69.11-81.67,15.81-160.46,13.51-163.78-5.96-8.57-4.13-20.39,4.21-26.68,12.77-9.63,20.5-20.67,23.61-33.75,2.44-10.25.59-20.95-5.09-29.36-5.25-7.77-13.23-12.82-22.48-14.21-16.09-2.44-34.98,1.75-57.71,12.77l-119.17,70.86c-5.87,3.49-13.14,3.65-19.17.4-6.02-3.24-9.88-9.41-10.19-16.24l-3.31-73.74c-.54-12.1-4.26-23-10.76-31.5-8.72-11.41-15.3-10.62-17.44-10.35-12.56,1.53-34.97,21.16-56.78,71.43-.19.44-.4.87-.62,1.29l-101.16,192.76c-3.01,5.74-8.69,9.6-15.13,10.29-6.43.71-12.81-1.87-16.97-6.84-142.63-170.05-270.83-206.34-283.2-209.51-28.92-2.65-507.44-44.6-767.96,45.31-233.73,80.67-337.97,423.69-357.95,497.72l241.04,133.71c5.46,3.03,9.14,8.5,9.87,14.7.21,1.72,20.69,174.7,44.73,434.36,23.93,258.45,88.17,590.04,88.82,593.36,2.03,10.42-4.68,20.53-15.06,22.73-47.66,10.07-81.24,29.68-99.82,58.26-22.5,34.63-19.73,77.12-13.43,106.68,3.13,14.72,15.7,25,30.57,25h431.31c15.96,0,30.86-6.32,41.95-17.8,11.1-11.5,16.91-26.64,16.36-42.63-9.43-272.34-12.45-490.06-9.24-665.6.18-9.67,7.43-17.73,17.02-18.93.82-.1,1.63-.15,2.43-.15Z"/>
      <path class="cls-7" d="m2437.77,1295.05c30.89,14.87,54.78,45.49,60.37,79.14,2.09,10.23,1.82,20.76,1.28,31.01-1.49-4.91-2.6-9.8-4.37-14.45-7.94-22.05-24.12-41.22-45.12-51.17-7.36-3.39-15.45-6.67-23.29-7.27-24.37-8.1-13.73-43.85,11.13-37.25h0Z"/>
      <path class="cls-7" d="m2487.87,1628.82c-40.46-14.94-75.24-44.52-98.6-80.33,29.75,23.8,66.3,39.81,104.34,42.13.46,0,1.07.03,1.15-.06l-6.9,38.26h0Z"/>
      <path class="cls-7" d="m2411.11,1761.26c-105.4,0-172.05-39.37-211.11-75.67-50.56-46.99-66.77-98.64-67.43-100.82-1.36-4.45-1.08-9.24.79-13.5l54.35-123.69c4.32-9.83,15.79-14.3,25.62-9.98,9.83,4.32,14.3,15.79,9.98,25.62l-51.24,116.6c12.63,31.98,79.43,167.35,296.01,138.64,10.68-1.41,20.41,6.08,21.82,16.72,1.41,10.64-6.07,20.41-16.71,21.82-22.04,2.92-42.71,4.25-62.07,4.25Z"/>
      <path class="cls-7" d="m2113.9,1685.42c-2.55,0-5.15-.51-7.65-1.58-9.86-4.23-14.43-15.66-10.21-25.52l37.26-86.89c4.23-9.86,15.65-14.44,25.53-10.2,9.86,4.23,14.43,15.66,10.21,25.52l-37.26,86.89c-3.16,7.37-10.34,11.78-17.88,11.78Z"/>
      <g>
        <path class="cls-13" d="m847.57,547.41l-77.75,35.47c-45.54,20.78-73.66,67.38-70.81,117.35l13.17,231.03c3.24,56.84,45.54,103.79,101.74,112.91l102.36,16.62"/>
        <path class="cls-13" d="m2121.29,474.78l81.28,26.4c47.61,15.46,80.84,58.57,83.69,108.54l13.17,231.03c3.24,56.84-33.45,108.29-88.24,123.74l-99.81,28.15"/>
        <g class="cls-1">
          <path class="cls-7" d="m916.27,1060.79l-102.39-16.6c-56.13-9.13-98.47-56.1-101.71-112.93l-7.48-131.14c3.24,56.83,45.58,103.8,101.71,112.93l92.12,14.96,17.74,132.78Z"/>
        </g>
        <g class="cls-1">
          <path class="cls-7" d="m2291.93,709.62l7.48,131.14c3.24,56.83-33.42,108.3-88.22,123.76l-99.84,28.13,2.59-134,89.77-25.27c54.8-15.45,91.46-66.93,88.22-123.76Z"/>
        </g>
        <circle class="cls-13" cx="1492.71" cy="719.79" r="700.33"/>
        <g class="cls-1">
          <path class="cls-7" d="m1532.59,1418.98c-160.18,9.13-310.8-36.32-433.88-120.19,73.33,20.93,151.31,30.09,231.68,25.49,386.12-22.01,681.33-352.9,659.32-739.06-12.93-225.98-131.61-420.86-305.28-539.18,278.89,79.29,490.06,328.03,507.47,633.87,22.01,386.16-273.16,717.05-659.32,739.06Z"/>
        </g>
        <path class="cls-7" d="m2193.22,702.86c17.52,307.34-281.28,574.37-667.46,596.39-352.09,20.08-655.22-170.43-719.17-437.22-6.24-25.78-10.21-52.31-11.76-79.43-17.52-307.34,281.28-574.29,667.47-596.31,290.17-16.55,547.07,109.95,664.31,304.21v.08c38.8,64.28,62.26,135.97,66.61,212.29Z"/>
        <g class="cls-5">
          <path class="cls-8" d="m2193.22,702.86c17.52,307.34-281.28,574.37-667.46,596.39-352.09,20.08-655.22-170.43-719.17-437.22,4.76-6.88,7.54-10.65,7.54-10.65,356.02,513.97,1326.98,231.83,1312.48-360.8,38.8,64.28,62.26,135.97,66.61,212.29Z"/>
        </g>
        <path class="cls-7" d="m1491.78,1439.59c-176.8,0-345.22-64.05-478.22-182.7-143.47-127.99-228.5-304.18-239.44-496.13-10.95-191.94,53.51-376.66,181.49-520.13C1083.6,97.17,1259.8,12.14,1451.74,1.19c192.01-10.92,376.66,53.52,520.13,181.5,143.47,127.99,228.5,304.18,239.44,496.13,10.95,191.95-53.51,376.66-181.49,520.13-127.99,143.46-304.18,228.5-496.13,239.45-14,.8-28,1.19-41.9,1.2Zm1.81-1400.72c-13.17,0-26.39.38-39.64,1.13-181.58,10.35-348.26,90.8-469.34,226.51-121.07,135.72-182.05,310.46-171.69,492.04,10.36,181.58,90.8,348.25,226.51,469.33,135.71,121.07,310.47,182.06,492.03,171.69,181.58-10.35,348.26-90.8,469.34-226.51,121.07-135.72,182.05-310.46,171.69-492.04h0c-10.36-181.58-90.8-348.25-226.51-469.33-125.81-112.24-285.15-172.83-452.39-172.83Z"/>
        <path class="cls-7" d="m792.86,765.32c-8.95,0-16.45-6.99-16.97-16.04-9.29-162.89,56.86-320.12,186.25-442.74,128.61-121.88,304.5-194.99,495.27-205.86,190.75-10.88,373.82,41.77,515.46,148.23,142.49,107.12,226.08,255.81,235.37,418.7.53,9.38-6.64,17.41-16.02,17.95-9.23.59-17.41-6.63-17.95-16.01-8.71-152.72-87.5-292.45-221.85-393.44-135.22-101.65-310.38-151.9-493.09-141.46-182.75,10.42-351.02,80.24-473.8,196.59-122,115.61-184.4,263.39-175.69,416.11.53,9.38-6.64,17.41-16.02,17.95-.33.02-.65.03-.98.03Z"/>
        <path class="cls-7" d="m916.3,1080.23c-1.04,0-2.08-.08-3.14-.25l-102.37-16.62c-65.7-10.67-114.23-64.53-118.02-130.99l-13.17-231.03c-3.33-58.42,28.91-111.86,82.15-136.14l77.75-35.47c9.75-4.45,21.29-.15,25.75,9.62,4.45,9.77.15,21.3-9.62,25.75l-77.75,35.47c-38.54,17.58-61.88,56.27-59.47,98.56l13.17,231.04c2.74,48.11,37.88,87.11,85.44,94.83l102.37,16.62c10.6,1.72,17.79,11.71,16.07,22.3-1.55,9.54-9.79,16.33-19.16,16.33Z"/>
        <path class="cls-7" d="m2111.37,1012.09c-8.49,0-16.28-5.6-18.7-14.17-2.92-10.33,3.1-21.07,13.43-23.98l99.81-28.15c46.38-13.08,76.86-55.82,74.12-103.93l-13.17-231.03c-2.41-42.29-30-78.07-70.29-91.16l-81.28-26.4c-10.21-3.32-15.8-14.28-12.48-24.49,3.32-10.21,14.29-15.8,24.49-12.48l81.28,26.4c55.65,18.08,93.76,67.5,97.09,125.92l13.17,231.03c3.79,66.46-38.31,125.49-102.37,143.56l-99.81,28.15c-1.77.5-3.54.73-5.29.73Z"/>
        <g class="cls-4">
          <path class="cls-13" d="m1933.27,1003.95c69.24-293.49-46.93-518.49-322.76-684.53,475.81,101.98,583,476.64,322.76,684.53Z"/>
        </g>
        <g class="cls-4">
          <path class="cls-13" d="m1047.36,771.32c1.9,39.02,9.12,95.84,31.61,157.86,11.56,31.89-3.91,67.26-35.12,80.55h0c-27.9,11.88-60.4,2.61-77.66-22.32-43.56-62.89-73.09-139.48-66.16-219.45,3.91-45.17,48.16-75.61,92.05-64.26h0c31.22,8.07,53.71,35.42,55.28,67.62Z"/>
        </g>
        <g class="cls-4">
          <path class="cls-13" d="m1099.29,460.04h0c16.17,17.8,18.92,44.04,6.79,64.8l-31.92,54.66c-13.68,23.43-42.4,33.4-67.66,23.5l-4.08-1.6c-31.23-12.24-44.54-49.4-27.8-78.46,10.09-17.52,23.39-38,40.51-59.83,21.05-26.84,61.23-28.32,84.16-3.07Z"/>
        </g>
      </g>
      <path class="cls-11" d="m443.12,2136.94c-164.06-8.47-148.23-93.76-148.23-93.76,9.2,1.29,252.66,36.66,252.66,36.66"/>
      <path class="cls-11" d="m594.74,2169.74l328.42,27.51c12.4,1.04,24.6-3.61,33.16-12.63l307.74-324.25c6.92-7.29,10.77-16.95,10.77-27v-22.31c0-19.21-13.92-35.6-32.87-38.71l-608.57-99.89-38.66,497.28Z"/>
      <path class="cls-7" d="m926.67,2216.84c-1.7,0-3.41-.07-5.12-.21l-328.43-27.51c-10.65-.89-18.59-10.22-17.76-20.88l38.66-497.28c.42-5.43,3.1-10.43,7.38-13.79,4.28-3.36,9.77-4.76,15.15-3.89l608.57,99.89c28.49,4.68,49.16,29.02,49.16,57.89v22.31c0,15.09-5.72,29.44-16.12,40.39l-307.73,324.25c-11.5,12.12-27.23,18.84-43.76,18.84Zm-311.05-64.86l309.17,25.9c6.6.56,12.92-1.87,17.44-6.64l307.74-324.25c3.51-3.69,5.43-8.53,5.43-13.62v-22.31c0-9.74-6.98-17.95-16.59-19.53l-587.68-96.46-35.52,456.92Z"/>
      <path class="cls-11" d="m903.02,2128.15l-615.3-85.96c-41.84-5.83-79.65-28.67-103.6-63.51-8.12-11.76-15.94-24.01-23.52-36.64C57.28,1770.3,2.08,1527.28,24.53,1393.5c4.71-27.89,31.83-46.21,59.53-40.38l686.06,143.99c34.21,7.19,61.47,33.19,70.22,67.06,3.94,15.21,7.77,30.37,11.57,45.48,41.31,163.86,75.37,321.74,97.77,471.32,4.08,27.36-19.24,51.02-46.65,47.18Z"/>
      <g class="cls-3">
        <path class="cls-13" d="m69.92,1440.49c-23.81,141.51,39.46,405.37,154.48,577.69-15.7-10.35-29.4-23.71-40.28-39.51C65.83,1806.6.43,1537.09,24.53,1393.5c4.71-27.89,31.83-46.21,59.53-40.38l686.06,143.99c29.59,6.22,53.99,26.48,65.65,53.79-6.41-3.06-13.22-5.34-20.31-6.8l-686.01-143.99c-27.75-5.83-54.86,12.49-59.53,40.38Z"/>
      </g>
      <path class="cls-7" d="m908.92,2147.99c-2.85,0-5.72-.2-8.61-.6h0l-615.27-85.95c-47.54-6.64-90.17-32.8-116.95-71.78C53.34,1822.7-21.17,1548.22,5.38,1390.29c3.14-18.69,13.52-34.89,29.21-45.6,15.78-10.77,34.78-14.53,53.47-10.61l686.04,143.98c41.78,8.77,74.37,39.9,85.04,81.24,51.44,199.36,87.33,369.05,109.73,518.78,2.87,19.18-3.31,38.09-16.94,51.87-11.58,11.69-26.9,18.03-43.01,18.03Zm-3.23-39.1c6.94.95,13.71-1.33,18.62-6.28,4.93-4.98,7.16-11.82,6.12-18.76-22.2-148.38-57.83-316.78-108.93-514.81-6.95-26.92-28.17-47.19-55.38-52.91l-686.04-143.98c-8.24-1.73-16.62-.07-23.57,4.68-6.88,4.69-11.41,11.77-12.78,19.93-21.93,130.47,36.9,397.02,156.41,570.9,20.62,30.01,53.53,50.16,90.29,55.3l615.27,85.95Z"/>
      <path class="cls-7" d="m906.86,2147.92c-8.8,0-16.77-6.02-18.9-14.95l-115.76-487.36c-8.49-35.73-37.15-63.9-73.03-71.76L18.58,1424.86c-10.49-2.3-17.13-12.66-14.83-23.15,2.3-10.48,12.7-17.13,23.14-14.83l680.6,149c50.38,11.03,90.62,50.58,102.54,100.75l115.76,487.35c2.48,10.44-3.97,20.92-14.42,23.4-1.51.36-3.02.53-4.51.53Z"/>
      <path class="cls-7" d="m443.14,2156.38c-.34,0-.67,0-1.02-.03-72.38-3.74-122.34-22.44-148.5-55.59-22.97-29.11-18.44-57.93-17.85-61.12,1.96-10.56,12.17-17.5,22.66-15.57,10.45,1.94,17.39,11.91,15.62,22.35-.15,1.1-1.84,15.75,10.79,31.13,13.24,16.12,44.67,36.13,119.28,39.98,10.72.55,18.96,9.69,18.41,20.41-.54,10.38-9.12,18.44-19.4,18.44Z"/>
      <path class="cls-7" d="m950.12,2091.18c-4.26,0-8.52-1.59-11.82-4.78-6.75-6.53-6.93-17.3-.41-24.05l291.85-301.82c6.53-6.75,17.3-6.93,24.05-.4,6.75,6.53,6.93,17.3.41,24.05l-291.85,301.82c-3.33,3.45-7.78,5.19-12.23,5.19Z"/>
      <g class="cls-1">
        <polyline class="cls-7" points="950.12 2074.17 1241.97 1772.35 1264.68 1784.76 1274.85 1850.64 956.33 2194.54 940.35 2177.84 929.48 2128.56 950.12 2101.71"/>
      </g>
      <path class="cls-7" d="m934.77,2210.24c-9.3,0-17.51-6.69-19.14-16.17l-10.64-62.26c-1.81-10.58,5.3-20.62,15.88-22.43,10.58-1.8,20.62,5.3,22.44,15.89l10.64,62.26c1.81,10.58-5.3,20.62-15.88,22.43-1.11.19-2.21.28-3.3.28Z"/>
      <path class="cls-7" d="m964.24,1869.67c-.76,0-1.53-.06-2.3-.18l-57.37-9.18c-5.91-.94-10.64-5.41-11.93-11.26l-17.32-78.75c-1.04-4.74.34-9.69,3.7-13.21,3.35-3.51,8.23-5.12,13.02-4.29l123.56,21.38c4.98.86,9.15,4.24,11.04,8.92,1.89,4.68,1.22,10.01-1.77,14.08l-48.87,66.54c-2.77,3.77-7.15,5.95-11.75,5.95Zm-45.27-36.58l38.78,6.2,29.66-40.39-78.97-13.67,10.53,47.85Z"/>
      <path class="cls-7" d="m950.11,2020.72c-3.14,0-6.3-1.01-8.96-3.09-6.34-4.96-7.47-14.12-2.51-20.46l59.14-75.73-81.77-8.83c-8.01-.86-13.79-8.05-12.93-16.06.86-8,8.12-13.77,16.05-12.93l107.83,11.64c5.26.57,9.8,3.94,11.87,8.82,2.06,4.87,1.32,10.48-1.94,14.65l-75.27,96.38c-2.88,3.68-7.16,5.61-11.5,5.61Z"/>
      <g class="cls-1">
        <path class="cls-7" d="m903.02,2128.15l-615.3-85.96c-41.84-5.83-79.65-28.67-103.6-63.51-8.12-11.76-15.94-24.01-23.52-36.64,601.89,111.23,630.51-300.9,630.51-300.9l60.79-31.49c41.31,163.86,75.37,321.74,97.77,471.32,4.08,27.36-19.24,51.02-46.65,47.18Z"/>
      </g>
      <path class="cls-6" d="m666.61,2207.4c166.94-47.35,32.8-174.94-49.81-195.59-133.42-40.52-193.64,54.18-167.82,131.78,6.46,19.41,20.2,35.62,37.85,45.97,51.72,30.3,112.39,34.02,179.77,17.84Z"/>
      <g class="cls-1">
        <path class="cls-7" d="m666.61,2207.4c-67.4,16.18-128.05,12.44-179.75-17.83-17.69-10.35-31.44-26.58-37.86-45.97-3.35-10.11-5.3-20.51-5.73-30.86,50.93,28.43,110.31,31.59,176.15,15.79,58.51-16.57,80.04-43.06,79.74-71.29,54.86,47.62,81.78,117.74-32.56,150.16Z"/>
      </g>
      <path class="cls-7" d="m592.74,2236.2c-43.04,0-81.77-9.97-115.73-29.87-22.14-12.97-38.65-33.07-46.47-56.6-15.37-46.18-4.8-95.5,27.56-128.73,21.78-22.36,72-55.69,163.9-27.93,58.13,14.76,142.78,77.34,143.8,142.4.45,29.06-15.46,68.38-93.89,90.62-.25.07-.51.14-.77.2-27.5,6.6-53.67,9.9-78.4,9.9Zm73.87-28.8h.05-.05Zm-110.08-185.88c-29.17,0-53.41,8.97-70.59,26.61-22.18,22.77-29.28,57-18.53,89.33,4.85,14.58,15.24,27.13,29.24,35.33,45.06,26.4,99.03,31.58,165.03,15.81,30.1-8.59,65.67-24.65,65.24-52.51-.62-39.67-65.22-93.02-114.84-105.42-.31-.08-.62-.16-.93-.26-19.57-5.94-37.91-8.88-54.62-8.88Z"/>
      <path class="cls-7" d="m1151.63,2962.42l53.16,33.43-62.65,4.27c-11.26.77-21.02-7.74-21.78-19-1.62-16.26,17.9-27.69,31.28-18.7h0Z"/>
      <path class="cls-7" d="m1728.84,3008.42c38.49-31.71,90.76-41.21,139.05-41.55,25.43.41,51.65,3.97,76.43,9.2,0,0,29.48,7.63,29.48,7.63-17.87-1.93-42.62-3.85-60.25-3.41-5.49.31-17.14.61-22.39,1-4.57.51-17.34,1.99-22.1,2.55-33,5.52-66,15.69-93.15,34.87-6.78,4.77-13.7,10.24-18.8,16.39-18,18.18-45.42-7.57-28.27-26.68h0Z"/>
      <path class="cls-7" d="m1844.75,2862.18c-45.5,0-91.2-4.43-134.33-10.23-10.64-1.43-18.11-11.21-16.67-21.85,1.43-10.64,11.2-18.12,21.85-16.68,219.5,29.49,339.52-7.26,401.26-122.92,5.06-9.47,16.84-13.05,26.3-7.99,9.47,5.05,13.05,16.83,7.99,26.3-65,121.75-184.94,153.37-306.41,153.37Z"/>
      <path class="cls-7" d="m1344.27,2860.31c-124.01,0-230.77-43.4-237.95-46.38-9.91-4.12-14.61-15.49-10.49-25.41,4.12-9.91,15.47-14.62,25.4-10.5h0c2.67,1.1,268.63,108.9,434.8-22.09,8.43-6.66,20.65-5.2,27.29,3.23,6.65,8.43,5.2,20.65-3.23,27.3-71.5,56.36-157.14,73.85-235.82,73.85Z"/>
      <path class="cls-7" d="m1253.05,2324.73c237.08,55.5,354.14,55.83,591.09,0,1.08-.41,2.58.07,2.79,1.36.19.87-.26,1.73-1.02,2.1l-34.73,17.07c-157.44,73.5-328.07,80.2-489.6,15.34-21.22-8.57-49.72-21.95-70.28-32.41-.94-.46-1.33-1.61-.87-2.55.56-1.02,1.6-1.24,2.63-.91h0Z"/>
      <path class="cls-7" d="m1567.92,2489.25c-9.67,0-18.05-7.21-19.27-17.06l-8.41-68.03c-1.32-10.65,6.25-20.36,16.9-21.68,10.65-1.32,20.36,6.25,21.68,16.91l8.41,68.03c1.32,10.65-6.25,20.36-16.9,21.68-.81.1-1.62.15-2.41.15Z"/>
      <path class="cls-7" d="m2073.6,1854.96c-17.88-152.84-50.11-305.71-105.48-449.77,16.82,34.95,32.77,70.48,46.73,106.83,42.26,109.54,74.3,222.19,97.24,337.54,4.13,26.61-35.05,32.29-38.5,5.41h0Z"/>
      <path class="cls-7" d="m1524.49,2110.25l-7.41-189.3c-.78-19.97,7.46-38.91,22.61-51.95l56.1-48.26c5.94-5.11,9.27-12.53,9.14-20.36l-2.88-173.74,38.87-.64,2.88,173.73c.33,19.41-7.93,37.81-22.66,50.48l-56.1,48.26c-6.11,5.26-9.44,12.9-9.12,20.96l7.41,189.3-38.85,1.52Z"/>
      <ellipse class="cls-9" cx="1382.16" cy="1829.58" rx="77.75" ry="81.4"/>
      <path class="cls-7" d="m1382.16,1930.42c-53.59,0-97.19-45.23-97.19-100.83s43.6-100.83,97.19-100.83,97.19,45.23,97.19,100.83-43.6,100.83-97.19,100.83Zm0-162.79c-32.15,0-58.32,27.79-58.32,61.96s26.16,61.96,58.32,61.96,58.31-27.79,58.31-61.96-26.16-61.96-58.31-61.96Z"/>
      <path class="cls-7" d="m1862.63,1818.71c-10.07,0-18.59-7.77-19.37-17.98-.81-10.71,7.22-20.03,17.92-20.84l210.76-15.85c10.75-.83,20.03,7.22,20.84,17.92.81,10.71-7.22,20.04-17.92,20.84l-210.76,15.85c-.5.04-.99.06-1.48.06Z"/>
      <path class="cls-7" d="m2092.87,1970.51h-223.12c-10.74,0-19.44-8.7-19.44-19.44s8.7-19.44,19.44-19.44h223.12c10.74,0,19.44,8.7,19.44,19.44s-8.65,19.39-19.35,19.44h-.09Z"/>
      <path class="cls-7" d="m1234.35,2046.64h-122.3c-10.74,0-19.44-8.7-19.44-19.44s8.7-19.44,19.44-19.44h122.3c10.74,0,19.44,8.7,19.44,19.44s-8.7,19.44-19.44,19.44Z"/>
      <path class="cls-7" d="m1088.16,1454.19c-20.16,50.59-31.54,104.22-38.21,158.03-5.2,41.25-6.41,83.67-5.13,125.15,0,0-38.86-1.14-38.86-1.14,2.72-24.74,5.67-49.4,10.46-73.79,13.73-72.15,35.95-143.98,71.74-208.25h0Z"/>
      <g class="cls-1">
        <path class="cls-7" d="m1867.66,2018.96c-1.51,27.26-20.9,50.05-47.57,55.93-171.2,37.61-345.7,46.16-523.12,28.57-26.68-2.62-48.5-22.79-53.11-49.18-3.5-19.78-6.66-39.75-9.48-59.87,314.89,72.41,530.46-13.51,597.22-336.71,7.29,7.97,12.49,17.93,14.68,29.11,11.81,60.21,29.59,180.82,21.38,332.14Z"/>
      </g>
      <g class="cls-1">
        <path class="cls-7" d="m2190.04,3157.81c-8.6,10.11-19.24,18.95-29.79,26.34-24.05,16.81-52.82,25.51-82.12,25.51h-329.42c-21.92,0-41.01-15.26-45.48-36.74-7.39-35.38-10.98-89.51,20.26-130.96.92,2.14,1.75,4.42,2.48,6.9,21.87,74.88,208.96,92.91,311,27.16,102.05-65.75,7.29-400.9-16.42-575.84-23.76-174.94-107.49-201.67-107.49-201.67,45.85-70.79,73.68-156.95,89.49-247.09,4.2-23.92-13.53-46.13-37.76-47.63l-40.79-2.53s21.87,37.27-29.16,101.66c-51.02,64.39-352.31,66.82-462.86,64.39s-127.56-57.83-127.56-57.83c0,0,86.26,8.02,102.05,2.72,15.79-5.25,343.81-10.5,403.33-28.33,59.53-17.79,59.97-76.92,59.97-76.92l5.64-121.97h95.85c27,0,49.08-21.75,49.26-48.75,1.4-211.08-37.94-394.37-39.12-399.97,40.09,99.81,76.49,232.33,111.48,377.14l23.86,51.71c-7.82-4.03-15.74-8.31-23.86-12.83,0,0,21.04,281.85,1.6,443.81-19.44,161.96,103.7,745.1,103.7,745.1,0,0,19.44,84.26-8.12,116.63Z"/>
      </g>
      <g class="cls-1">
        <path class="cls-7" d="m1577.26,3129.14c1.51,43.98-33.68,80.52-77.75,80.52h-431.28c-24.05,0-44.61-16.91-49.61-40.38-8.6-40.28-11.03-102.29,37.13-145.78,3.01,7.78,5.35,16.23,6.9,25.37,21.87,128.34,157.93,93.11,245.4,92.91,87.47-.19,116.63-175.09,99.62-391.33-17.01-216.24-68.52-386.33-68.52-386.33l65.26,5.69,155.11,25.07s3.11,37.27,8.12,95.97c-2.77,188.11,1.55,405.42,9.62,638.29Z"/>
      </g>
      <g class="cls-1">
        <path class="cls-7" d="m1783.06,2995.85l-40.04,14.77c-.24-35.57-5.15-149.19-55.11-230.19-51.51-83.53-103.02-256.77-116.48-303.81l-.19-.63v-.05l-7.48-87.52h78.38l100.83-24.3s-75.32,75.32-19.44,269.7c55.88,194.38,59.53,362.03,59.53,362.03Z"/>
      </g>
      <g class="cls-1">
        <path class="cls-7" d="m2634.68,1342.47s65.6,92.72-14.58,187.48c-80.18,94.76-128.78,82.61-128.78,82.61-22.26,242.63-107.73,383.99-355.57,264.94,0-.05-.05-.05-.1-.1-25.66-20.36-42.81-34.45-42.81-34.45l-19.44-97.09-21.19-91.16c1.85,3.89,72.7,152.25,173.43,93.5,102.05-59.53,140.92-257.16,140.92-257.16,107.25,74.35,173.34,43.4,183.06-131.59,0,0,87.47-57.92,79.35-119.45-.34-2.77-.44-5.44-.24-8.07,27.6,7.92,43.64,36.93,36.74,65.75-4.08,17.25-14.19,32.27-30.81,44.8Z"/>
      </g>
      <g class="cls-1">
        <path class="cls-7" d="m863.84,1657.7s93.99,48.75,206.33-161c0,0-41.54,143.36-36.68,206.54,4.86,63.17-54.26,33.57-54.26,33.57l-89.68-16.56"/>
      </g>
      <g>
        <g>
          <g>
            <path class="cls-13" d="m530.99,1712.84c2.32,5.59,4.29,11.26,5.92,16.98-21.42,19.29-63.78,46.36-114.4,71.92-50.62,25.56-96.87,43.24-124.1,48.52-2.85-5.1-5.45-10.46-7.77-16.05-.11-.26-.22-.52-.32-.79-1.01-2.47-1.95-4.95-2.82-7.45-2.05-5.84-3.73-11.76-5.06-17.7-.05-.24-.11-.48-.16-.72-1.93-8.84-3.08-17.75-3.49-26.64-.77-16.9,1.15-33.68,5.52-49.6,10.6-38.67,35.62-72.31,71.53-90.44,35.61-17.98,74.68-17.04,107.94-1,13.66,6.58,26.33,15.72,37.38,27.13,5.91,6.1,11.36,12.86,16.24,20.23.4.59.79,1.19,1.17,1.79,3.21,5,6.16,10.27,8.83,15.8.99,2.05,1.94,4.14,2.85,6.26.25.58.5,1.16.74,1.75Z"/>
            <path class="cls-13" d="m298.4,1851.4c-.41,0-.79-.22-1-.58-2.88-5.15-5.51-10.59-7.83-16.17l-.33-.81c-.99-2.41-1.95-4.93-2.83-7.49-2.03-5.79-3.75-11.79-5.1-17.83-.05-.23-.11-.49-.17-.75-1.91-8.78-3.1-17.81-3.51-26.81-.77-16.89,1.1-33.7,5.56-49.96,11.07-40.38,37.35-73.61,72.11-91.16,34.47-17.41,74.19-17.78,108.95-1,13.95,6.72,26.63,15.93,37.71,27.37,5.99,6.18,11.49,13.04,16.38,20.4.4.59.79,1.2,1.18,1.81,3.26,5.09,6.25,10.44,8.89,15.92,1,2.07,1.96,4.17,2.88,6.31l.74,1.76c2.31,5.57,4.32,11.32,5.96,17.1.12.42,0,.87-.33,1.16-22.46,20.23-65.32,47.18-114.65,72.09-49.34,24.91-95.84,43.09-124.4,48.62-.07.01-.14.02-.21.02Zm112.41-222.6c-18.61,0-37.2,4.36-54.46,13.08-34.18,17.26-60.03,49.96-70.94,89.73-4.4,16.03-6.24,32.6-5.48,49.25.41,8.87,1.57,17.77,3.46,26.45l.16.69c1.33,5.98,3.02,11.89,5.02,17.6.88,2.52,1.82,5,2.8,7.4l.23.59c2.25,5.42,4.71,10.54,7.39,15.4,28.04-5.61,75.03-24.04,122.99-48.26,48.04-24.26,91.46-51.51,113.62-71.28-1.59-5.47-3.5-10.91-5.68-16.17l-.73-1.73c-.9-2.11-1.85-4.18-2.83-6.22-2.6-5.39-5.55-10.67-8.76-15.68-.38-.6-.77-1.19-1.16-1.77-4.8-7.24-10.22-14-16.12-20.07-10.89-11.25-23.36-20.3-37.06-26.9-16.72-8.07-34.6-12.09-52.47-12.09Z"/>
          </g>
          <g>
            <path class="cls-13" d="m542.49,1786.13c-.47,5.95-1.27,11.85-2.4,17.66-1.57,8.17-3.78,16.17-6.58,23.91-12.16,33.58-35.58,62.24-67.72,78.48-32.21,16.27-67.26,17.05-98.27,5.18-6.81-2.61-13.43-5.83-19.77-9.63-4.98-2.97-9.79-6.31-14.4-9.98,32.38-9.15,69.78-23.85,108.48-43.39,38.69-19.54,73.22-41.17,100.67-62.23Z"/>
            <path class="cls-13" d="m410.86,1920.6c-14.73,0-29.49-2.72-43.75-8.18-6.88-2.64-13.59-5.91-19.96-9.72-4.99-2.98-9.87-6.37-14.52-10.07-.34-.27-.49-.7-.41-1.12.08-.42.4-.76.81-.87,33.47-9.47,70.91-24.44,108.28-43.31,37.36-18.87,72.11-40.35,100.48-62.11.36-.28.85-.31,1.24-.1.4.21.63.64.6,1.09-.48,6.01-1.29,12-2.42,17.79-1.57,8.18-3.8,16.28-6.63,24.08-12.75,35.22-37.01,63.31-68.28,79.1-17.65,8.91-36.52,13.4-55.44,13.4Zm-75.04-28.37c4.03,3.1,8.24,5.96,12.51,8.52,6.25,3.75,12.85,6.96,19.6,9.55,31.98,12.24,66.55,10.42,97.35-5.13,30.75-15.53,54.6-43.17,67.17-77.84,2.78-7.69,4.98-15.68,6.53-23.74.95-4.89,1.67-9.91,2.15-14.98-28.1,21.32-62.2,42.3-98.79,60.78-36.69,18.53-73.47,33.32-106.53,42.85Z"/>
          </g>
          <g>
            <path class="cls-13" d="m536.91,1729.82c-21.41,19.29-63.78,46.36-114.4,71.92-50.62,25.56-96.88,43.24-124.11,48.52-2.85-5.11-5.45-10.46-7.77-16.05-.11-.26-.21-.52-.32-.78-1.01-2.48-1.95-4.95-2.82-7.45-2.05-5.84-3.73-11.75-5.06-17.7-.05-.24-.11-.48-.15-.72-1.93-8.85-3.08-17.76-3.49-26.64-.77-16.9,1.16-33.67,5.52-49.61,8.58-31.27,26.58-59.25,52.15-78.4-6.65,11.42-11.82,23.82-15.37,36.76-4.37,15.93-6.29,32.7-5.52,49.61.4,8.88,1.55,17.79,3.48,26.63.05.25.11.49.16.73.07.32.17.71.29,1.17,6.74,25.07,31.19,35.56,54.78,33.2,44.96-4.5,142.32-62.59,163.03-76,1.44,3.85-1.52.91-.4,4.81Z"/>
            <path class="cls-13" d="m298.4,1851.41c-.41,0-.79-.22-1-.59-2.9-5.2-5.53-10.64-7.83-16.17l-.27-.67c-1.11-2.73-2.04-5.19-2.89-7.63-2.04-5.81-3.75-11.81-5.1-17.83-.06-.28-.12-.52-.16-.77-1.91-8.75-3.09-17.78-3.51-26.79-.77-16.89,1.1-33.7,5.56-49.96,8.83-32.18,27.5-60.24,52.56-79.01.43-.32,1.04-.3,1.44.06.41.36.5.96.23,1.43-6.59,11.3-11.72,23.58-15.26,36.49-4.4,16.04-6.24,32.61-5.48,49.26.4,8.88,1.57,17.77,3.46,26.44.05.26.1.48.16.71.07.33.16.7.28,1.14,6.83,25.38,31.83,34.55,53.56,32.36,44.09-4.41,140.92-61.84,162.52-75.82.29-.19.65-.23.98-.12.33.11.59.36.71.68.65,1.76.78,3.01-.6,3.78,0,.08.02.41.22,1.12.12.42,0,.87-.33,1.16-22.46,20.23-65.31,47.18-114.64,72.09-49.34,24.91-95.84,43.09-124.4,48.62-.07.01-.14.02-.21.02Zm34.3-194.11c-22.43,18.37-39.13,44.55-47.29,74.32-4.39,16.04-6.24,32.6-5.48,49.25.41,8.88,1.58,17.78,3.47,26.45l.14.68c1.34,5.97,3.03,11.88,5.03,17.61.84,2.41,1.75,4.83,2.8,7.4l.32.77c2.16,5.2,4.61,10.31,7.31,15.21,28.04-5.61,75.04-24.04,123-48.26,48.05-24.27,91.49-51.53,113.63-71.3-.18-.86-.17-1.52.06-2.03-26.46,16.82-117.64,70.37-161.3,74.74-22.7,2.25-48.82-7.37-55.99-34.04-.13-.48-.23-.89-.31-1.23-.06-.23-.11-.49-.17-.75-1.92-8.77-3.1-17.79-3.51-26.8-.77-16.89,1.1-33.7,5.56-49.96,3.08-11.24,7.35-22,12.72-32.08Z"/>
          </g>
          <g>
            <path class="cls-13" d="m441.83,1848.36c38.69-19.54,73.22-41.17,100.67-62.23-.47,5.95-1.27,11.85-2.4,17.66-21.12,17.09-54.88,38.22-94.22,58.09-37.68,19.03-72.81,33.02-98.13,39.85-4.98-2.97-9.79-6.31-14.4-9.98,32.38-9.15,69.78-23.85,108.48-43.39Z"/>
            <path class="cls-13" d="m347.74,1902.87c-.21,0-.41-.06-.59-.16-4.99-2.98-9.87-6.37-14.52-10.07-.34-.27-.49-.7-.41-1.12.08-.42.4-.76.81-.87,33.47-9.47,70.91-24.44,108.28-43.31l.51,1.02-.51-1.02c37.36-18.87,72.11-40.35,100.48-62.11.36-.28.85-.31,1.24-.1.4.21.63.64.6,1.09-.48,6.01-1.29,12-2.42,17.79-.05.26-.19.5-.4.67-22.01,17.81-56.43,39.03-94.42,58.22-36.23,18.29-72.08,32.85-98.35,39.93-.1.03-.2.04-.3.04Zm-11.93-10.64c3.91,3,7.96,5.78,12.1,8.27,26.09-7.09,61.57-21.52,97.45-39.64,37.67-19.02,71.79-40.03,93.69-57.7.91-4.76,1.61-9.64,2.08-14.57-28.1,21.32-62.2,42.3-98.79,60.78-36.69,18.53-73.47,33.32-106.53,42.85Z"/>
          </g>
          <g>
            <path class="cls-13" d="m530.25,1711.09c.25.58.5,1.16.74,1.75,2.32,5.59,4.29,11.26,5.92,16.98-21.42,19.29-63.78,46.36-114.4,71.92-50.62,25.56-96.87,43.24-124.1,48.52-2.85-5.1-5.45-10.46-7.77-16.05-.11-.26-.22-.52-.32-.79,25.83-3.27,72.91-20.39,124.52-46.45,53.64-27.09,97.47-56.42,115.41-75.88Z"/>
            <path class="cls-13" d="m298.4,1851.4c-.41,0-.79-.22-1-.58-2.88-5.15-5.51-10.59-7.83-16.17l-.33-.81c-.13-.33-.09-.69.09-.99.18-.3.48-.5.84-.55,26.67-3.38,74.24-21.14,124.15-46.34,51.55-26.03,96.73-55.72,115.09-75.64.26-.28.65-.42,1.03-.35.38.06.7.32.85.67l.75,1.76c2.31,5.57,4.32,11.32,5.96,17.1.12.42,0,.87-.33,1.16-22.46,20.23-65.32,47.18-114.65,72.09-49.34,24.91-95.84,43.09-124.4,48.62-.07.01-.14.02-.21.02Zm-6.47-17.04c2.16,5.13,4.51,10,7.07,14.62,28.04-5.61,75.03-24.04,122.99-48.26,48.04-24.26,91.46-51.51,113.62-71.28-1.59-5.47-3.5-10.91-5.68-16.17l-.05-.13c-19.24,20.08-63.84,49.25-114.53,74.85-49.21,24.85-96.25,42.51-123.41,46.37Z"/>
          </g>
          <g>
            <path class="cls-13" d="m278.58,1785.83l.42-9.82c18.01.95,65.06-15.8,114.41-40.72,58.87-29.73,96.86-58.15,103.96-70.86l7.58,5.16c-9.39,16.81-52.73,46.81-107.83,74.64-51.31,25.91-98.94,42.63-118.54,41.6Z"/>
            <path class="cls-13" d="m280.34,1787.01c-.63,0-1.24-.01-1.82-.05-.62-.03-1.11-.56-1.08-1.19l.42-9.82c0-.31.15-.59.37-.8s.54-.33.83-.29c.48.02.98.04,1.49.04,18.85,0,64.47-16.46,112.34-40.64,58.67-29.63,96.46-57.84,103.47-70.4.16-.28.42-.48.73-.55.31-.08.64-.02.9.17l7.58,5.16c.49.33.64.98.36,1.5-9.49,17-53.02,47.18-108.32,75.1-49.96,25.23-96.52,41.77-117.29,41.77Zm-.57-2.28c.21,0,.42,0,.63,0,20.4,0,66.53-16.44,116.2-41.52,53.95-27.24,96.52-56.48,106.82-73.28l-5.71-3.88c-8.59,13.33-46.29,41.22-103.79,70.26-48.16,24.32-94.22,40.88-113.43,40.88-.14,0-.26,0-.4,0l-.33,7.55Z"/>
          </g>
          <g>
            <path class="cls-13" d="m284.98,1736.17l-1.35-9.72c20.24-3.42,55.31-16.9,91.53-35.19,37.95-19.16,70.76-40.25,85.63-55.04l5.96,7.31c-15.5,15.41-49.17,37.13-87.88,56.68-36.91,18.64-72.89,32.42-93.89,35.97Z"/>
            <path class="cls-13" d="m284.99,1737.31c-.24,0-.48-.08-.67-.22-.25-.18-.41-.46-.45-.76l-1.35-9.72c-.09-.61.33-1.18.94-1.28,20.14-3.4,55.09-16.85,91.21-35.08,37.85-19.11,70.55-40.13,85.33-54.83.23-.22.56-.38.86-.33.32.02.62.17.83.42l5.97,7.31c.37.45.34,1.12-.08,1.53-15.58,15.49-49.37,37.29-88.18,56.89-37.01,18.69-73.11,32.51-94.21,36.07-.06.01-.13.02-.19.02Zm-.07-9.93l1.04,7.46c21.04-3.83,56.26-17.41,92.41-35.66,38.01-19.19,71.13-40.46,86.86-55.74l-4.52-5.53c-15.34,14.81-47.71,35.53-85.02,54.38-35.66,18.01-70.26,31.38-90.76,35.1Z"/>
          </g>
          <g>
            <path class="cls-13" d="m282.27,1812.47v-9.83c20.68.01,69.29-17.52,120.97-43.62,54.21-27.38,99.67-58.08,110.55-74.66l7.22,5.77c-11.87,18.1-57.71,49.38-114.06,77.84-53.57,27.05-102.51,44.52-124.68,44.51Z"/>
            <path class="cls-13" d="m282.3,1813.61c-.3-.02-.61-.11-.83-.33-.21-.21-.33-.51-.33-.81v-9.84c0-.63.52-1.14,1.15-1.14h.02c20.52,0,68.91-17.47,120.43-43.49,54.05-27.3,99.33-57.84,110.11-74.27.18-.27.45-.45.77-.5s.64.03.89.23l7.22,5.77c.46.37.56,1.03.24,1.52-11.98,18.26-57.99,49.7-114.5,78.23-53.7,27.11-102.82,44.63-125.17,44.63Zm1.12-9.85v7.56c22.51-.56,70.5-17.85,123.02-44.37,55.29-27.92,100.4-58.51,113.04-76.59l-5.44-4.34c-12.11,16.94-57,47.12-110.28,74.03-50.91,25.71-98.91,43.12-120.34,43.72Z"/>
          </g>
          <g>
            <path class="cls-13" d="m367.68,1913.81l-.17-2.44-1.05-2.18.41-.24.47-.04c17.87-1.5,51.9-13.83,86.69-31.4,34.99-17.67,64.84-37.42,77.91-51.55l3.12,3.51c-13.41,14.5-43.75,34.62-79.18,52.51-35.78,18.07-69.58,30.27-88.21,31.84Z"/>
            <path class="cls-13" d="m367.68,1914.95c-.27,0-.54-.1-.74-.28-.23-.2-.38-.48-.4-.79l-.15-2.22-.95-1.98c-.26-.54-.06-1.18.45-1.48l.41-.24c.15-.08.3-.13.47-.15l.47-.04c17.74-1.49,51.61-13.77,86.29-31.28,34.88-17.62,64.61-37.28,77.59-51.31.21-.23.52-.37.83-.37h0c.32,0,.63.14.84.38l3.12,3.51c.39.44.38,1.1-.02,1.53-13.49,14.59-43.96,34.8-79.5,52.76-35.9,18.13-69.86,30.37-88.62,31.95-.03,0-.06,0-.1,0Zm.43-4.97l.43.89c.06.13.1.27.11.42l.09,1.28c18.72-1.95,51.71-13.97,86.64-31.61,34.71-17.53,64.49-37.17,78.15-51.52l-1.6-1.8c-13.57,14.15-43.02,33.53-77.38,50.88-34.48,17.41-68.27,29.7-86.44,31.46Z"/>
          </g>
          <g>
            <path class="cls-13" d="m542.49,1786.13c-4.01,50.59-31.88,97.42-76.7,120.05-44.83,22.64-95.14,15.29-132.44-14.44,32.38-9.15,69.78-23.85,108.48-43.39,38.69-19.54,73.22-41.17,100.67-62.23Z"/>
            <path class="cls-13" d="m410.87,1924.62c-28.55,0-56.92-9.74-80.8-28.77-1.54-1.23-2.26-3.21-1.88-5.14.39-1.93,1.83-3.48,3.72-4.01,33.22-9.39,70.41-24.27,107.54-43.02,37.14-18.75,71.66-40.09,99.83-61.71,1.65-1.27,3.88-1.44,5.7-.45,1.82.99,2.89,2.96,2.72,5.03-4.28,54.06-34.77,101.7-79.57,124.32-18.25,9.22-37.81,13.75-57.28,13.75Zm-65.87-30.84c35.67,23.91,80.17,27.04,118.42,7.72,38.24-19.31,65.25-58.43,72.43-103.85-26.71,19.46-58.15,38.48-91.66,55.4-33.97,17.16-68.03,31.13-99.19,40.73Z"/>
          </g>
          <g>
            <path class="cls-13" d="m606.96,1697.2c8.05,19.43-18.11,53.36-64.47,88.93-27.45,21.06-61.97,42.69-100.67,62.23-38.7,19.54-76.1,34.23-108.48,43.39-54.69,15.46-95.05,15.13-103.1-4.3-7.31-17.65,13.59-47.24,52.19-79.17,1.33,5.95,3.01,11.86,5.06,17.7-10.67,9.72-15.91,17.41-14.06,21.87,1.88,4.54,10.88,5.14,24.97,2.41,27.23-5.27,73.48-22.96,124.1-48.52,50.62-25.56,92.98-52.63,114.4-71.92,11.08-9.99,16.55-17.89,14.67-22.43-1.85-4.46-10.55-5.11-24.18-2.56-2.67-5.53-5.62-10.8-8.83-15.8,47.12-11.37,81.07-9.48,88.39,8.17Z"/>
            <path class="cls-13" d="m268.23,1903.82c-20.95,0-34.65-5.35-39.04-15.94-7.27-17.53,11.88-46.87,52.52-80.48.3-.25.7-.33,1.1-.2.37.13.65.44.74.83,1.33,5.95,3.02,11.87,5.02,17.57.15.43.03.91-.31,1.22-14.09,12.84-14.68,18.41-13.77,20.59.9,2.19,5.18,5.31,23.7,1.73,27.93-5.41,75.38-23.96,123.8-48.42,48.42-24.45,92.16-51.95,114.16-71.75,14.66-13.22,15.3-18.92,14.38-21.15-.88-2.14-5.04-5.22-22.92-1.88-.5.09-1.02-.16-1.24-.62-2.6-5.39-5.55-10.67-8.76-15.68-.2-.31-.23-.7-.1-1.04.14-.34.43-.6.79-.68,49.7-11.99,82.4-8.77,89.71,8.85h0c7.98,19.26-16.25,53-64.83,90.27-28.48,21.86-63.35,43.41-100.84,62.34-37.5,18.93-75.07,33.96-108.68,43.47-25.95,7.33-48.15,10.97-65.42,10.98Zm13.51-93.48c-38.84,32.43-57.22,60.32-50.44,76.67,7.52,18.17,45.57,19.52,101.74,3.65,33.47-9.47,70.91-24.44,108.28-43.31,37.36-18.87,72.11-40.35,100.48-62.11,47.71-36.6,71.67-69.34,64.11-87.59h0c-6.75-16.3-37.88-19.14-85.51-7.87,2.78,4.44,5.35,9.06,7.65,13.79,14.31-2.58,22.59-1.44,24.59,3.4,2.05,4.94-2.98,12.92-14.96,23.72-22.46,20.23-65.32,47.18-114.65,72.09-49.34,24.91-95.84,43.09-124.4,48.62-15.33,2.97-24.15,1.92-26.24-3.1-1.98-4.78,2.66-12.39,13.79-22.64-1.72-4.99-3.21-10.13-4.43-15.31Z"/>
          </g>
          <g>
            <path class="cls-13" d="m286.68,1823.61c.27.79.54,1.58.82,2.37-10.67,9.71-15.92,17.4-14.07,21.86,1.89,4.55,10.89,5.15,24.98,2.42,18.06-3.5,44.5-12.46,75.04-25.56-.49,2.95-.49,5.72,0,8.28-11.79,4.89-23.21,9.2-34.05,12.88-47.12,15.99-71.69,15.76-74.58,8.79-1.69-4.07,3.2-14.34,21.86-31.04Z"/>
            <path class="cls-13" d="m279.16,1860.25c-8.97,0-14.05-1.95-15.39-5.17-2.37-5.71,5.91-17.79,22.15-32.32.29-.26.68-.36,1.05-.25.37.1.67.37.79.74l.81,2.36c.15.43.03.91-.31,1.22-14.1,12.83-14.68,18.4-13.78,20.58.9,2.19,5.18,5.32,23.71,1.74,18.1-3.51,44.66-12.56,74.8-25.49.39-.16.83-.11,1.15.15.33.26.49.67.42,1.08-.47,2.83-.47,5.48,0,7.88.1.53-.18,1.06-.68,1.27-11.73,4.87-23.21,9.21-34.12,12.91-28.01,9.5-48.1,13.31-60.61,13.31Zm7.01-34.64c-17.2,15.65-21.71,25.17-20.28,28.6,2.24,5.42,23.57,7.39,73.15-9.43,10.6-3.59,21.74-7.8,33.14-12.51-.27-1.81-.31-3.74-.12-5.74-29.53,12.58-55.55,21.38-73.43,24.85-15.32,2.97-24.16,1.93-26.25-3.1-1.98-4.78,2.67-12.39,13.8-22.63v-.03Z"/>
          </g>
          <g>
            <path class="cls-13" d="m283.17,1816.53l1.12,1.56c-9.59,8.22-17,15.57-22.57,22.03,4.15-6.78,11.29-14.61,21.45-23.59Z"/>
            <path class="cls-13" d="m261.73,1841.26c-.23,0-.47-.07-.67-.22-.48-.35-.61-1.01-.3-1.52,4.22-6.9,11.3-14.69,21.66-23.85.24-.21.57-.31.88-.28.32.03.61.2.8.46l1.13,1.56c.35.48.27,1.15-.18,1.54-9.06,7.76-16.62,15.13-22.45,21.91-.22.26-.54.4-.86.4Z"/>
          </g>
          <g>
            <path class="cls-13" d="m285.42,1819.63l-1.13-1.54c.16-.15.35-.3.54-.45l.59,2Z"/>
            <path class="cls-13" d="m285.42,1820.77c-.36,0-.7-.17-.92-.47l-1.12-1.54c-.34-.46-.28-1.1.14-1.5.18-.18.4-.35.61-.52.29-.24.68-.31,1.05-.2.36.11.64.4.75.77l.59,2c.16.53-.09,1.1-.59,1.35-.16.08-.33.12-.5.12Z"/>
          </g>
          <g>
            <path class="cls-13" d="m261.72,1840.12c-4.36,7.06-5.47,12.96-3.45,17.85,1.98,4.75,6.61,7.42,13.04,8.54,16.75,2.93,45.59-4.68,70.2-13.03,11.14-3.78,22.89-8.24,35.02-13.26,2.33,3.24,5.79,5.78,10.28,7.66-17.91,7.55-35.29,13.94-51.58,18.97-58.05,17.92-83.27,13.1-87.23,3.54-2.2-5.31.98-15.49,13.72-30.27Z"/>
            <path class="cls-13" d="m272.27,1880.12c-15.19,0-23.08-3.88-25.33-9.29-2.76-6.67,2.18-17.84,13.92-31.45.39-.45,1.06-.52,1.54-.18.48.35.61,1.01.3,1.52-4.16,6.74-5.26,12.24-3.37,16.82,1.7,4.09,5.8,6.73,12.18,7.85,13.55,2.38,37.63-2.12,69.64-12.99,10.98-3.73,22.74-8.18,34.95-13.23.49-.2,1.06-.04,1.36.39,2.17,3.02,5.47,5.46,9.8,7.28.42.18.7.59.7,1.05,0,.46-.27.87-.69,1.05-17.96,7.57-35.35,13.96-51.68,19.01-28.41,8.77-49.06,12.18-63.3,12.18Zm-15.4-32.06c-6.82,9.44-9.71,17.35-7.82,21.89,3.04,7.35,24.57,14.73,85.84-4.19,15.54-4.8,32.05-10.83,49.09-17.93-3.26-1.68-5.89-3.76-7.84-6.22-11.96,4.94-23.49,9.29-34.27,12.95-22.58,7.66-53.18,16.14-70.77,13.07-7.2-1.26-11.87-4.36-13.89-9.22-1.27-3.07-1.39-6.54-.35-10.35Z"/>
          </g>
          <g>
            <path class="cls-13" d="m439.44,1849.56c-37.84,18.95-74.38,33.22-106.1,42.19-54.68,15.46-95.05,15.13-103.11-4.31-7.31-17.64,13.6-47.23,52.2-79.16.39,1.77.83,3.53,1.29,5.29l-2.2-3.18c-22.41,18.93-47.56,45.28-40.07,63.3,2.89,6.97,9.74,10.74,18.79,12.32,21.31,3.71,54.76-4.66,76.94-11.5,19.46-6,40.46-13.94,62.01-23.4,10.73,1.51,24.39.95,40.26-1.55Z"/>
            <path class="cls-13" d="m268.23,1903.82c-20.94,0-34.65-5.35-39.05-15.95-7.26-17.52,11.89-46.86,52.53-80.48.3-.25.7-.33,1.1-.2.37.13.65.44.74.83.39,1.76.83,3.5,1.28,5.25.14.53-.13,1.09-.63,1.32-.49.24-1.09.07-1.41-.39l-1.48-2.14c-21.88,18.62-45.92,44.05-38.8,61.18,2.52,6.08,8.55,10,17.93,11.64,20.78,3.63,53.01-4.24,76.41-11.47,19.38-5.98,40.21-13.84,61.89-23.36.2-.09.42-.12.62-.09,10.56,1.48,23.99.97,39.92-1.55.53-.08,1.09.24,1.26.78.17.54-.07,1.12-.57,1.37-36.65,18.35-73.4,32.97-106.3,42.27-25.95,7.34-48.14,10.98-65.42,10.98Zm-18.13-63.06c-16.6,19.19-23.33,35.3-18.8,46.24,7.52,18.17,45.57,19.54,101.74,3.65,30.86-8.73,65.15-22.15,99.54-38.96-12.95,1.63-24.1,1.84-33.22.6-21.66,9.5-42.46,17.34-61.84,23.32-23.64,7.3-56.25,15.23-77.47,11.54-10.2-1.78-16.81-6.16-19.65-13.01-4.01-9.67.89-21.52,9.7-33.36Z"/>
          </g>
          <g>
            <g>
              <path class="cls-13" d="m376.53,1840.22c-12.12,5.02-23.87,9.48-35.02,13.26-24.62,8.36-53.45,15.96-70.2,13.03-6.42-1.12-11.06-3.79-13.04-8.54-2.02-4.89-.9-10.8,3.45-17.85,5.57-6.46,12.98-13.81,22.57-22.03l1.13,1.54c.41,1.33.83,2.66,1.26,3.98-18.65,16.69-23.55,26.97-21.86,31.04,2.89,6.97,27.46,7.2,74.58-8.79,10.84-3.68,22.26-7.99,34.05-12.88.24,1.28.6,2.49,1.08,3.65.53,1.27,1.2,2.47,2,3.58Z"/>
              <path class="cls-13" d="m279.46,1868.28c-3.01,0-5.82-.21-8.35-.65-7.2-1.26-11.87-4.36-13.89-9.22-2.16-5.23-.97-11.59,3.53-18.89,6.02-7.01,13.65-14.46,22.8-22.3.24-.21.56-.3.87-.27.32.04.6.21.79.46l1.12,1.54c.07.1.13.22.17.34.41,1.33.83,2.64,1.25,3.96.14.43.01.9-.32,1.2-18.25,16.34-23.02,26.24-21.56,29.75,2.24,5.42,23.57,7.39,73.15-9.43,10.85-3.68,22.29-8.01,33.98-12.85.31-.13.68-.11.98.05.3.16.51.46.58.79.23,1.22.56,2.34,1.02,3.43.5,1.2,1.13,2.33,1.87,3.35.21.28.27.64.18.98-.1.33-.34.61-.66.74-12.25,5.08-24.06,9.55-35.08,13.29-19.32,6.56-44.53,13.72-62.42,13.72Zm4.64-48.52c-8.65,7.47-15.88,14.56-21.51,21.1-4.05,6.59-5.16,12.09-3.26,16.67,1.7,4.09,5.8,6.73,12.18,7.85,13.54,2.38,37.62-2.12,69.64-12.99,10.6-3.59,21.91-7.87,33.66-12.7-.51-.83-.95-1.7-1.33-2.62-.34-.81-.62-1.65-.84-2.52-11.3,4.66-22.35,8.82-32.87,12.39-48.08,16.31-72.8,15.84-76,8.14-2.34-5.64,5.73-17.52,21.6-31.83-.33-1.04-.66-2.07-.98-3.11l-.28-.39Z"/>
            </g>
            <g>
              <path class="cls-13" d="m284.3,1818.09c-9.59,8.22-17,15.57-22.57,22.03,4.15-6.78,11.29-14.61,21.45-23.59l1.12,1.56Z"/>
              <path class="cls-13" d="m261.73,1841.26c-.23,0-.47-.07-.67-.22-.48-.35-.61-1.01-.3-1.52,4.22-6.9,11.3-14.69,21.66-23.85.24-.21.57-.31.88-.28.32.03.61.2.8.46l1.13,1.56c.35.48.27,1.15-.18,1.54-9.06,7.76-16.62,15.13-22.45,21.91-.22.26-.54.4-.86.4Z"/>
            </g>
            <g>
              <path class="cls-13" d="m285.42,1819.63l2.25,3.1c-.33.29-.67.58-.99.88-.43-1.32-.85-2.65-1.26-3.98Z"/>
              <path class="cls-13" d="m286.68,1824.75c-.1,0-.2-.01-.29-.04-.38-.1-.68-.38-.8-.75-.43-1.33-.86-2.66-1.26-4-.16-.53.08-1.11.58-1.35.5-.24,1.11-.1,1.43.35l2.25,3.1c.35.48.27,1.14-.17,1.52l-.97.86c-.21.2-.49.3-.77.3Z"/>
            </g>
            <g>
              <path class="cls-13" d="m510.93,1767.93c-23.62,16.33-52.11,33.06-82.4,48.35-17.61,8.89-35.16,16.97-52,23.93-.81-1.11-1.47-2.31-2-3.58-.48-1.16-.84-2.38-1.08-3.65,16.85-6.93,34.43-15.02,52.08-23.93,30-15.16,58.21-31.71,81.55-47.87,41.76-28.91,57.67-49.58,54.79-56.53-1.73-4.16-12.3-6.81-36.82-1.78l-.99-5.88-.33-1.95c12.85-2.64,22.91-3.47,30.29-2.51,7.62,1.01,12.38,3.95,14.4,8.8,7.13,17.2-27.34,45.71-57.51,66.6Z"/>
              <path class="cls-13" d="m376.53,1841.36c-.36,0-.7-.17-.92-.47-.84-1.16-1.56-2.44-2.13-3.81-.51-1.22-.89-2.53-1.15-3.88-.1-.53.19-1.06.68-1.26,16.8-6.91,34.3-14.95,52.01-23.89,29.97-15.14,58.12-31.67,81.42-47.79,44.04-30.48,56.65-49.69,54.38-55.16-1.19-2.87-10-6.34-35.53-1.1-.31.06-.62,0-.87-.18-.25-.18-.43-.45-.48-.75l-1.32-7.83c-.1-.61.29-1.18.89-1.31,13.09-2.69,23.11-3.51,30.66-2.52,7.97,1.05,13.12,4.25,15.3,9.49,5.96,14.37-13.53,37.24-57.91,67.98h0c-23.75,16.42-52.3,33.16-82.54,48.43-17.68,8.92-35.2,16.99-52.08,23.97-.14.06-.29.09-.43.09Zm-1.77-7.68c.21.88.48,1.71.82,2.53.38.92.84,1.79,1.37,2.61,16.56-6.88,33.74-14.8,51.06-23.54,30.15-15.22,58.6-31.91,82.27-48.27,42.16-29.19,62.44-52.36,57.1-65.22-1.88-4.5-6.29-7.16-13.5-8.11-6.98-.92-16.67-.15-28.83,2.28l.94,5.59c20.76-4.12,34.52-3.13,36.94,2.69,3.15,7.62-12.69,28.49-55.2,57.91-23.38,16.18-51.64,32.76-81.69,47.95-17.45,8.81-34.7,16.75-51.28,23.6Zm136.17-65.74h.03-.03Z"/>
            </g>
          </g>
          <g>
            <g>
              <path class="cls-13" d="m399.19,1851.11c-21.56,9.47-42.55,17.4-62.01,23.4-22.17,6.85-55.63,15.21-76.94,11.5-9.05-1.58-15.9-5.35-18.79-12.32-7.48-18.02,17.67-44.37,40.07-63.3l2.2,3.18c.35,1.37.72,2.72,1.11,4.07-.19.15-.37.3-.54.45l-1.12-1.56c-10.16,8.97-17.3,16.81-21.45,23.59-12.75,14.78-15.92,24.96-13.72,30.27,3.97,9.56,29.19,14.38,87.23-3.54,16.28-5.03,33.66-11.42,51.58-18.97,3.51,1.48,7.65,2.56,12.38,3.23Z"/>
              <path class="cls-13" d="m272.11,1888.07c-4.3,0-8.35-.29-12.07-.94-10.2-1.78-16.81-6.16-19.65-13.01-7.74-18.65,17.7-45.43,40.4-64.61.25-.21.55-.31.89-.26.32.04.6.22.79.48l2.2,3.18c.08.11.13.24.17.37.35,1.35.71,2.7,1.09,4.03.13.44-.02.92-.38,1.21-.16.13-.32.26-.46.39-.23.22-.56.32-.89.31-.33-.03-.63-.2-.82-.47l-.39-.54c-9.55,8.53-16.37,16.09-20.29,22.49-10.93,12.7-16,23.57-13.64,29.24,3.04,7.35,24.57,14.73,85.84-4.19,16.26-5.02,33.58-11.39,51.47-18.93.28-.12.61-.12.89,0,3.39,1.44,7.46,2.5,12.09,3.15.5.07.9.47.97.97.07.51-.21,1-.67,1.2-21.77,9.56-42.67,17.45-62.13,23.45-19.51,6.02-45.13,12.47-65.41,12.47Zm9.2-76c-21.88,18.62-45.92,44.05-38.8,61.18,2.52,6.08,8.55,10,17.93,11.64,20.78,3.63,53.01-4.24,76.41-11.47,18.34-5.65,37.96-13,58.4-21.84-3.1-.63-5.92-1.45-8.42-2.47-17.8,7.49-35.04,13.82-51.25,18.82-58.7,18.12-84.28,13.37-88.63,2.89-2.76-6.67,2.18-17.84,13.92-31.45,4.11-6.75,11.2-14.55,21.55-23.7.18-.15.39-.25.61-.28-.12-.45-.23-.9-.35-1.35l-1.37-1.98Z"/>
            </g>
            <g>
              <path class="cls-13" d="m283.17,1816.53l1.12,1.56c-9.59,8.22-17,15.57-22.57,22.03,4.15-6.78,11.29-14.61,21.45-23.59Z"/>
              <path class="cls-13" d="m261.73,1841.26c-.23,0-.47-.07-.67-.22-.48-.35-.61-1.01-.3-1.52,4.22-6.9,11.3-14.69,21.66-23.85.24-.21.57-.31.88-.28.32.03.61.2.8.46l1.13,1.56c.35.48.27,1.15-.18,1.54-9.06,7.76-16.62,15.13-22.45,21.91-.22.26-.54.4-.86.4Z"/>
            </g>
            <g>
              <path class="cls-13" d="m283.72,1813.57l2.18,3.15c-.36.32-.72.62-1.07.92-.39-1.35-.76-2.7-1.11-4.07Z"/>
              <path class="cls-13" d="m284.83,1818.77c-.11,0-.22-.01-.32-.05-.38-.11-.66-.4-.77-.78-.4-1.36-.77-2.72-1.11-4.1-.14-.53.13-1.09.63-1.32.5-.23,1.09-.07,1.41.39l2.18,3.15c.33.48.25,1.13-.19,1.51l-1.08.93c-.21.18-.47.28-.74.28Z"/>
            </g>
            <g>
              <path class="cls-13" d="m528.17,1778.06c-26.27,19.24-58.21,38.52-92.38,55.77-12.27,6.21-24.52,11.98-36.61,17.27-4.72-.67-8.86-1.75-12.38-3.23,15.07-6.33,30.53-13.48,46-21.29,33.82-17.07,65.42-36.15,91.39-55.16,50.24-36.77,63.43-60.99,59.47-70.55-2.2-5.3-11.23-9.3-29.63-8.35-8.09.42-18.01,1.81-29.96,4.46-.66.15-1.33.3-2,.45l-1.46-7.79c27.62-6.34,62.13-10.11,69.6,7.91,9.71,23.42-34.7,60.48-62.04,80.5Z"/>
              <path class="cls-13" d="m399.19,1852.25c-.05,0-.11,0-.16-.01-4.82-.68-9.08-1.8-12.66-3.31-.42-.18-.7-.59-.69-1.05,0-.46.27-.87.7-1.05,15.08-6.34,30.54-13.49,45.92-21.26,33.73-17.03,65.28-36.07,91.23-55.06,53.15-38.9,62.15-61.79,59.09-69.19-2.32-5.59-13.02-8.44-28.52-7.65-8.5.44-18.52,1.94-29.77,4.44l-1.99.45c-.32.07-.62.01-.88-.16-.26-.17-.44-.44-.49-.74l-1.46-7.79c-.12-.6.27-1.18.86-1.32,28.04-6.44,63.13-10.18,70.91,8.59,10,24.13-34.81,61.64-62.42,81.86h0c-26.31,19.27-58.31,38.59-92.54,55.87-12.13,6.14-24.47,11.96-36.67,17.3-.15.06-.3.1-.46.1Zm-9.31-4.43c2.72.91,5.78,1.62,9.15,2.11,12.07-5.29,24.26-11.05,36.26-17.12,34.12-17.23,66.01-36.48,92.22-55.68h0c27.07-19.82,71.07-56.45,61.66-79.14-7.08-17.08-40.22-13.58-67.22-7.49l1.04,5.55.84-.19c11.38-2.53,21.52-4.04,30.15-4.49,22.93-1.19,29.13,5.16,30.74,9.05,4.31,10.43-9.15,34.79-59.85,71.91-26.05,19.07-57.71,38.18-91.55,55.26-14.54,7.34-29.14,14.13-43.44,20.21Z"/>
            </g>
          </g>
          <g>
            <path class="cls-13" d="m606.96,1697.2c8.05,19.43-18.11,53.36-64.47,88.93-27.45,21.06-61.97,42.69-100.67,62.23-38.7,19.54-76.1,34.23-108.48,43.39-54.69,15.46-95.05,15.13-103.1-4.3-7.31-17.65,13.59-47.24,52.19-79.17,1.33,5.95,3.01,11.86,5.06,17.7-10.67,9.72-15.91,17.41-14.06,21.87,1.88,4.54,10.88,5.14,24.97,2.41,27.23-5.27,73.48-22.96,124.1-48.52,50.62-25.56,92.98-52.63,114.4-71.92,11.08-9.99,16.55-17.89,14.67-22.43-1.85-4.46-10.55-5.11-24.18-2.56-2.67-5.53-5.62-10.8-8.83-15.8,47.12-11.37,81.07-9.48,88.39,8.17Z"/>
            <path class="cls-13" d="m268.31,1907.94c-22.91,0-37.82-6.2-42.92-18.49-10.96-26.45,28.94-64.74,53.7-85.22,1.41-1.17,3.33-1.52,5.04-.92,1.73.59,3.02,2.04,3.42,3.82,1.29,5.8,2.94,11.55,4.89,17.11.7,1.99.14,4.2-1.42,5.62-12.57,11.45-12.72,15.73-12.71,16.08.1.05,1.3.74,5.63.74,2.91,0,7.2-.36,13.46-1.57,27.59-5.34,74.62-23.75,122.73-48.05,48.12-24.3,91.52-51.56,113.26-71.14,13.13-11.84,13.31-16.25,13.3-16.62-.14.1-1.31-.74-5.63-.74-2.78,0-6.85.33-12.7,1.43-2.34.44-4.66-.75-5.69-2.88-2.53-5.24-5.39-10.37-8.52-15.25-.91-1.43-1.08-3.21-.45-4.79.63-1.58,1.99-2.75,3.64-3.15,52.63-12.7,86.19-8.7,94.46,11.27h0c8.87,21.39-15.23,56.05-66.12,95.1-28.68,22.01-63.78,43.71-101.49,62.75-37.72,19.05-75.56,34.18-109.42,43.75-26.34,7.45-48.78,11.14-66.46,11.14Zm11.09-90.22c-33.02,28.62-49.9,54.23-44.31,67.71,6.45,15.57,44.45,16.07,96.83,1.26,33.22-9.39,70.41-24.27,107.54-43.02,37.14-18.75,71.66-40.09,99.83-61.71,44.76-34.34,69.42-66.83,62.81-82.75h0c-5.49-13.24-34.05-15.69-75.28-6.7,1.23,2.13,2.4,4.29,3.53,6.48,10.39-1.62,22.61-1.96,26.07,6.39,2.87,6.9-2.22,15.91-16,28.34-22.72,20.47-65.92,47.65-115.56,72.71-49.65,25.08-96.56,43.39-125.47,48.98-11.34,2.19-26.86,4-30.82-5.56-2.64-6.36,1.45-14.48,12.86-25.41-.73-2.22-1.41-4.47-2.04-6.73Z"/>
          </g>
          <g class="cls-2">
            <path class="cls-13" d="m536.94,1730.32c-2.49,2.25-5.26,4.59-8.31,7.04-1.25-3.83-2.65-7.64-4.21-11.4-.25-.59-.49-1.16-.74-1.74-.91-2.13-1.86-4.22-2.85-6.27-2.66-5.53-5.62-10.81-8.82-15.8-.38-.6-.78-1.19-1.17-1.79-4.88-7.37-10.33-14.14-16.25-20.24-11.05-11.41-23.72-20.55-37.38-27.13-33.26-16.05-72.34-16.99-107.94.99-23.77,12-42.77,30.82-55.98,53.39,13.08-28.14,34.5-51.82,62.58-66,35.61-17.98,74.68-17.04,107.94-.99,13.65,6.59,26.33,15.72,37.38,27.14,5.91,6.1,11.36,12.86,16.24,20.23.4.59.79,1.19,1.17,1.79,3.21,5,6.16,10.26,8.82,15.8.99,2.06,1.94,4.15,2.85,6.27.26.58.5,1.16.74,1.75,2.32,5.59,4.29,11.26,5.92,16.98Z"/>
            <path class="cls-13" d="m528.63,1738.5c-.11,0-.22-.02-.33-.05-.36-.11-.64-.38-.76-.74-1.24-3.79-2.64-7.6-4.18-11.32l-.66-1.57c-.97-2.28-1.91-4.35-2.9-6.38-2.59-5.38-5.54-10.65-8.76-15.68l-1.16-1.77c-4.78-7.22-10.21-13.97-16.12-20.07-10.9-11.25-23.36-20.3-37.05-26.89-34.13-16.47-73.11-16.11-106.94.98-22.78,11.5-41.97,29.81-55.51,52.94-.31.52-.99.71-1.51.43-.54-.28-.76-.94-.51-1.49,13.77-29.63,35.59-52.64,63.11-66.54,34.48-17.41,74.19-17.77,108.94-1,13.96,6.73,26.65,15.94,37.71,27.37,6.02,6.22,11.53,13.08,16.37,20.39.4.59.79,1.2,1.18,1.81,3.25,5.07,6.25,10.42,8.89,15.91,1.01,2.07,1.96,4.18,2.88,6.31.25.58.51,1.17.75,1.78,2.29,5.5,4.29,11.25,5.96,17.08.12.42,0,.87-.33,1.16-2.52,2.27-5.33,4.65-8.36,7.08-.21.16-.46.25-.71.25Zm-124.4-98.86c18.21,0,36.44,4.1,53.47,12.32,13.93,6.71,26.62,15.92,37.71,27.36,6.01,6.2,11.52,13.06,16.38,20.4l1.18,1.8c3.27,5.11,6.26,10.47,8.89,15.92,1,2.07,1.96,4.17,2.87,6.32l.75,1.75c1.35,3.26,2.6,6.59,3.72,9.92,2.3-1.88,4.46-3.71,6.45-5.49-1.6-5.51-3.51-10.94-5.68-16.17-.23-.6-.48-1.17-.73-1.73-.9-2.11-1.85-4.19-2.83-6.23-2.61-5.41-5.56-10.69-8.75-15.67-.38-.59-.76-1.19-1.16-1.77-4.78-7.2-10.2-13.95-16.12-20.07-10.88-11.24-23.34-20.29-37.06-26.9-34.11-16.47-73.09-16.11-106.93.98-20.42,10.32-37.67,25.75-50.72,45.25,12.02-14.56,26.63-26.35,43.09-34.67,17.58-8.88,36.52-13.33,55.48-13.33Z"/>
          </g>
          <g>
            <path class="cls-13" d="m530.99,1712.84c2.32,5.59,4.29,11.26,5.92,16.98-21.42,19.29-63.78,46.36-114.4,71.92-50.62,25.56-96.87,43.24-124.1,48.52-2.85-5.1-5.45-10.46-7.77-16.05-1.13-2.73-2.18-5.47-3.14-8.24-2.05-5.84-3.73-11.76-5.06-17.7-14.89-66.71,14.73-137.78,73.4-167.41,58.67-29.63,126.75-7.89,162.74,48.16,3.21,5,6.16,10.27,8.83,15.8,1.26,2.61,2.46,5.28,3.59,8.01Z"/>
            <path class="cls-13" d="m298.4,1855.51c-1.88,0-3.64-1.01-4.58-2.69-2.96-5.29-5.66-10.87-8.04-16.6-1.17-2.83-2.25-5.67-3.25-8.52-2.08-5.93-3.84-12.09-5.22-18.29-15.66-70.19,16.36-143.04,76.16-173.23,60.11-30.38,131.42-9.33,169.52,50.01,3.35,5.23,6.43,10.73,9.14,16.36,1.3,2.69,2.54,5.46,3.71,8.28,2.37,5.71,4.43,11.61,6.12,17.54.55,1.93-.05,4-1.54,5.34-22.72,20.46-65.91,47.65-115.55,72.71-49.65,25.08-96.56,43.39-125.47,48.98-.33.07-.66.1-1,.1Zm112.31-222.6c-17.7,0-35.59,4.1-52.51,12.65-55.56,28.06-85.27,96.01-70.64,161.58,1.29,5.8,2.94,11.55,4.89,17.11.93,2.68,1.95,5.33,3.04,7.97,1.72,4.14,3.62,8.2,5.67,12.12,27.98-6.19,72.99-24.04,118.98-47.27,46.36-23.41,88.33-49.57,110.78-68.96-1.39-4.48-2.99-8.92-4.79-13.25h0c-1.09-2.64-2.24-5.22-3.46-7.73-2.53-5.25-5.4-10.38-8.52-15.26-24.37-37.95-63.39-58.96-103.44-58.96Z"/>
          </g>
        </g>
        <g>
          <path class="cls-17" d="m520.28,1718.62c2.1,5.06,3.88,10.19,5.35,15.36-19.38,17.45-57.7,41.94-103.5,65.07-45.79,23.13-87.64,39.12-112.27,43.89-2.58-4.61-4.93-9.46-7.03-14.52-.1-.24-.2-.47-.29-.71-.92-2.23-1.76-4.48-2.55-6.74-1.85-5.29-3.38-10.64-4.58-16.02-.05-.22-.1-.44-.14-.66-1.75-8-2.79-16.06-3.15-24.1-.7-15.29,1.04-30.47,4.99-44.87,9.59-34.98,32.23-65.42,64.71-81.82,32.21-16.27,67.56-15.42,97.65-.9,12.35,5.95,23.82,14.22,33.82,24.55,5.35,5.52,10.28,11.64,14.7,18.3.36.54.71,1.07,1.06,1.62,2.9,4.52,5.57,9.29,7.98,14.29.9,1.85,1.76,3.75,2.58,5.67.23.52.45,1.05.67,1.58Z"/>
          <path class="cls-12" d="m530.68,1784.93c-.43,5.38-1.15,10.72-2.17,15.98-1.42,7.39-3.42,14.63-5.96,21.63-11,30.38-32.19,56.31-61.27,71-29.14,14.72-60.85,15.43-88.91,4.68-6.16-2.36-12.15-5.27-17.89-8.71-4.5-2.69-8.85-5.71-13.02-9.03,29.29-8.28,63.13-21.57,98.14-39.25,35-17.68,66.24-37.25,91.07-56.3Z"/>
          <path class="cls-12" d="m525.63,1733.99c-19.37,17.45-57.7,41.94-103.49,65.07-45.8,23.13-87.64,39.12-112.28,43.9-2.58-4.62-4.93-9.46-7.03-14.52-.1-.24-.19-.47-.29-.71-.91-2.24-1.76-4.48-2.55-6.74-1.85-5.28-3.37-10.63-4.58-16.02-.05-.22-.1-.44-.14-.65-1.75-8-2.79-16.06-3.16-24.1-.69-15.29,1.05-30.46,5-44.88,7.76-28.29,24.04-53.6,47.18-70.93-6.02,10.34-10.7,21.55-13.91,33.26-3.96,14.41-5.69,29.58-5,44.88.36,8.03,1.4,16.1,3.15,24.09.05.23.1.44.15.66.06.29.15.64.27,1.06,6.1,22.68,28.21,32.17,49.55,30.03,40.68-4.07,128.76-56.63,147.49-68.75,1.3,3.48-1.37.82-.36,4.36Z"/>
          <path class="cls-10" d="m439.61,1841.23c35-17.68,66.24-37.25,91.07-56.3-.43,5.38-1.15,10.72-2.17,15.98-19.1,15.46-49.65,34.58-85.24,52.55-34.09,17.21-65.87,29.87-88.78,36.05-4.5-2.69-8.85-5.71-13.02-9.03,29.29-8.28,63.13-21.57,98.14-39.25Z"/>
          <path class="cls-10" d="m519.61,1717.04c.23.52.45,1.05.67,1.58,2.1,5.06,3.88,10.19,5.35,15.36-19.38,17.45-57.7,41.94-103.5,65.07-45.79,23.13-87.64,39.12-112.27,43.89-2.58-4.61-4.93-9.46-7.03-14.52-.1-.24-.2-.47-.29-.71,23.36-2.96,65.96-18.45,112.65-42.02,48.53-24.51,88.18-51.04,104.41-68.65Z"/>
          <path class="cls-10" d="m291.93,1784.65l.38-8.89c16.3.86,58.86-14.29,103.5-36.84,53.26-26.9,87.63-52.61,94.05-64.1l6.86,4.67c-8.5,15.21-47.7,42.35-97.55,67.52-46.42,23.44-89.51,38.57-107.24,37.63Z"/>
          <path class="cls-10" d="m297.72,1739.73l-1.22-8.79c18.31-3.09,50.04-15.29,82.8-31.83,34.33-17.34,64.01-36.42,77.47-49.8l5.4,6.61c-14.02,13.94-44.49,33.59-79.51,51.28-33.39,16.86-65.94,29.33-84.94,32.54Z"/>
          <path class="cls-10" d="m295.27,1808.76v-8.9c18.7.01,62.68-15.85,109.44-39.46,49.05-24.77,90.17-52.54,100.01-67.55l6.53,5.22c-10.74,16.38-52.21,44.68-103.18,70.42-48.46,24.47-92.74,40.28-112.79,40.27Z"/>
          <path class="cls-10" d="m372.54,1900.44l-.15-2.21-.95-1.97.37-.22.42-.04c16.16-1.36,46.95-12.51,78.43-28.41,31.65-15.98,58.66-33.86,70.49-46.64l2.82,3.18c-12.14,13.12-39.58,31.32-71.63,47.51-32.37,16.34-62.94,27.38-79.8,28.8Z"/>
          <path class="cls-7" d="m411.61,1910.72c-25.94,0-51.72-8.85-73.41-26.14l-8-6.37,9.84-2.78c30.02-8.49,63.64-21.93,97.2-38.88,33.58-16.96,64.79-36.25,90.24-55.78l9.36-7.18-.93,11.76c-3.89,49.08-31.58,92.34-72.26,112.88-16.59,8.38-34.35,12.5-52.05,12.5Zm-58.44-28.24c31.98,21,71.62,23.61,105.76,6.37,34.11-17.22,58.3-51.96,65.05-92.39-23.97,17.37-52.08,34.33-82,49.45-30.39,15.35-60.86,27.88-88.81,36.57Z"/>
          <path class="cls-18" d="m589.01,1704.48c7.29,17.58-16.39,48.28-58.32,80.45-24.83,19.05-56.07,38.62-91.07,56.3-35.01,17.68-68.85,30.97-98.14,39.25-49.47,13.99-85.99,13.69-93.27-3.89-6.62-15.97,12.29-42.74,47.22-71.62,1.2,5.38,2.72,10.73,4.58,16.02-9.65,8.79-14.39,15.75-12.72,19.79,1.7,4.11,9.84,4.65,22.59,2.18,24.63-4.77,66.48-20.77,112.27-43.89,45.8-23.13,84.12-47.61,103.5-65.07,10.02-9.03,14.98-16.18,13.27-20.3-1.67-4.03-9.54-4.63-21.88-2.31-2.41-5.01-5.08-9.77-7.98-14.29,42.63-10.28,73.35-8.57,79.96,7.39Z"/>
          <path class="cls-16" d="m299.26,1818.84c.24.72.49,1.43.74,2.15-9.66,8.79-14.4,15.74-12.73,19.78,1.71,4.12,9.86,4.66,22.6,2.19,16.34-3.16,40.26-11.27,67.88-23.12-.44,2.67-.44,5.18,0,7.49-10.66,4.42-21,8.33-30.8,11.65-42.63,14.46-64.85,14.26-67.47,7.95-1.53-3.68,2.9-12.98,19.77-28.08Z"/>
          <path class="cls-12" d="m296.08,1812.43l1.02,1.41c-8.68,7.43-15.38,14.08-20.42,19.93,3.76-6.14,10.21-13.22,19.4-21.34Z"/>
          <path class="cls-12" d="m298.12,1815.24l-1.02-1.4c.15-.14.32-.27.48-.41l.53,1.81Z"/>
          <path class="cls-16" d="m276.68,1833.77c-3.94,6.38-4.95,11.73-3.12,16.15,1.79,4.3,5.98,6.71,11.8,7.72,15.16,2.65,41.24-4.23,63.51-11.79,10.08-3.42,20.71-7.45,31.68-12,2.11,2.93,5.24,5.23,9.3,6.93-16.21,6.83-31.93,12.61-46.66,17.16-52.52,16.21-75.33,11.86-78.92,3.2-1.99-4.8.88-14.01,12.42-27.39Z"/>
          <path class="cls-16" d="m437.46,1842.31c-34.24,17.15-67.29,30.06-95.99,38.17-49.47,13.99-85.99,13.69-93.28-3.9-6.61-15.96,12.31-42.73,47.23-71.61.36,1.6.75,3.19,1.16,4.79l-1.99-2.87c-20.27,17.13-43.02,40.96-36.25,57.27,2.61,6.31,8.81,9.72,17,11.15,19.28,3.36,49.54-4.21,69.6-10.41,17.6-5.43,36.6-12.61,56.1-21.17,9.71,1.37,22.06.86,36.42-1.4Z"/>
          <g>
            <path class="cls-15" d="m380.54,1833.86c-10.97,4.54-21.6,8.58-31.68,12-22.27,7.56-48.35,14.44-63.51,11.79-5.81-1.02-10.01-3.43-11.8-7.72-1.83-4.42-.82-9.77,3.12-16.15,5.04-5.85,11.74-12.5,20.42-19.93l1.02,1.4c.37,1.21.75,2.4,1.14,3.6-16.88,15.1-21.3,24.4-19.77,28.08,2.61,6.31,24.84,6.51,67.47-7.95,9.8-3.33,20.14-7.23,30.8-11.65.21,1.15.54,2.25.97,3.31.48,1.15,1.08,2.23,1.81,3.24Z"/>
            <path class="cls-14" d="m297.1,1813.84c-8.68,7.43-15.38,14.08-20.42,19.93,3.76-6.14,10.21-13.22,19.4-21.34l1.02,1.41Z"/>
            <path class="cls-14" d="m298.12,1815.24l2.04,2.81c-.3.26-.61.53-.9.8-.39-1.2-.77-2.39-1.14-3.6Z"/>
            <path class="cls-14" d="m502.13,1768.46c-21.37,14.77-47.14,29.91-74.55,43.74-15.93,8.04-31.81,15.35-47.04,21.65-.73-1-1.33-2.09-1.81-3.24-.44-1.05-.76-2.15-.97-3.31,15.24-6.27,31.15-13.59,47.12-21.65,27.14-13.72,52.66-28.69,73.78-43.31,37.78-26.15,52.17-44.85,49.57-51.14-1.56-3.76-11.12-6.16-33.31-1.61l-.89-5.32-.3-1.77c11.62-2.39,20.73-3.14,27.4-2.27,6.9.91,11.2,3.57,13.03,7.96,6.45,15.56-24.74,41.36-52.02,60.25Z"/>
          </g>
          <g>
            <path class="cls-15" d="m401.04,1843.71c-19.5,8.56-38.5,15.74-56.1,21.17-20.06,6.19-50.32,13.76-69.6,10.41-8.19-1.43-14.38-4.84-17-11.15-6.77-16.3,15.98-40.14,36.25-57.27l1.99,2.87c.32,1.24.65,2.46,1,3.68-.17.14-.34.27-.48.41l-1.02-1.41c-9.19,8.12-15.65,15.2-19.4,21.34-11.53,13.37-14.41,22.58-12.42,27.39,3.59,8.65,26.4,13.01,78.92-3.2,14.73-4.55,30.45-10.33,46.66-17.16,3.18,1.34,6.93,2.32,11.2,2.92Z"/>
            <path class="cls-16" d="m296.08,1812.43l1.02,1.41c-8.68,7.43-15.38,14.08-20.42,19.93,3.76-6.14,10.21-13.22,19.4-21.34Z"/>
            <path class="cls-14" d="m296.58,1809.75l1.97,2.85c-.33.29-.66.56-.97.83-.35-1.22-.68-2.44-1-3.68Z"/>
            <path class="cls-14" d="m517.73,1777.63c-23.76,17.4-52.66,34.85-83.57,50.46-11.1,5.61-22.19,10.84-33.12,15.63-4.27-.61-8.02-1.58-11.2-2.92,13.63-5.73,27.62-12.2,41.61-19.26,30.6-15.45,59.18-32.71,82.67-49.9,45.45-33.27,57.38-55.18,53.8-63.82-1.99-4.79-10.16-8.42-26.81-7.55-7.32.38-16.29,1.63-27.1,4.04-.59.14-1.2.27-1.81.41l-1.32-7.05c24.99-5.74,56.21-9.14,62.96,7.16,8.78,21.19-31.39,54.72-56.13,72.82Z"/>
          </g>
          <path class="cls-7" d="m282.69,1895.61c-20.98,0-34.65-5.71-39.34-17.02-10.04-24.23,26.22-59.06,48.72-77.68l6.6-5.46,1.87,8.36c1.16,5.2,2.64,10.39,4.4,15.42l1.15,3.28-2.56,2.34c-9.21,8.39-10.94,12.46-11.26,13.72,1.17.46,5.26,1.41,16.61-.78,24.92-4.83,67.42-21.47,110.9-43.43,43.49-21.96,82.71-46.59,102.35-64.28,9.66-8.71,11.46-12.92,11.79-14.2-1.15-.45-5.11-1.37-15.91.65l-3.95.74-1.74-3.62c-2.28-4.74-4.86-9.36-7.68-13.74l-3.98-6.21,7.17-1.73c47.91-11.55,78.45-7.83,86.04,10.49h0c8.12,19.58-13.75,51.16-59.98,86.62-25.97,19.92-57.74,39.57-91.89,56.82-34.16,17.25-68.41,30.95-99.08,39.62-23.83,6.74-44.16,10.08-60.21,10.08Zm9.71-81.21c-29.32,25.52-44.3,48.25-39.36,60.17,5.74,13.84,39.89,14.17,87,.85,30.02-8.49,63.64-21.94,97.2-38.89,33.58-16.96,64.79-36.25,90.24-55.78,40.31-30.93,62.55-60.08,56.67-74.28h0c-4.84-11.68-30.2-13.82-66.87-5.9.93,1.64,1.83,3.29,2.7,4.97,9.51-1.44,20.55-1.62,23.77,6.13,2.72,6.56-1.79,14.64-14.6,26.2-20.6,18.54-59.71,43.16-104.65,65.85-44.96,22.7-87.44,39.29-113.64,44.36-10.42,2.02-24.71,3.66-28.44-5.32-2.5-6.01,1.06-13.28,11.52-23.32-.54-1.67-1.05-3.36-1.54-5.05Z"/>
          <g class="cls-2">
            <path class="cls-13" d="m525.66,1734.44c-2.26,2.03-4.76,4.15-7.52,6.37-1.13-3.47-2.4-6.91-3.81-10.32-.22-.53-.45-1.05-.67-1.58-.82-1.93-1.68-3.82-2.58-5.67-2.41-5.01-5.09-9.78-7.98-14.3-.35-.54-.7-1.08-1.06-1.62-4.42-6.67-9.35-12.79-14.7-18.31-10-10.32-21.46-18.59-33.81-24.54-30.09-14.52-65.44-15.37-97.65.9-21.5,10.86-38.7,27.88-50.64,48.3,11.83-25.46,31.21-46.88,56.62-59.71,32.21-16.26,67.56-15.42,97.65-.9,12.35,5.96,23.82,14.22,33.82,24.55,5.34,5.52,10.28,11.63,14.69,18.3.36.54.71,1.08,1.06,1.62,2.9,4.52,5.57,9.28,7.98,14.29.9,1.86,1.76,3.75,2.58,5.67.23.52.45,1.05.67,1.58,2.09,5.06,3.88,10.19,5.36,15.36Z"/>
          </g>
          <path class="cls-7" d="m307.14,1848.82l-1.86-3.31c-2.68-4.79-5.13-9.86-7.3-15.07-1.06-2.57-2.04-5.14-2.95-7.73-1.89-5.42-3.49-11.01-4.74-16.6-14.22-63.71,14.86-129.86,69.16-157.28,54.64-27.58,119.41-8.48,154.01,45.42,3.04,4.74,5.83,9.73,8.3,14.85,1.18,2.45,2.31,4.95,3.37,7.51h0c2.15,5.18,4.02,10.54,5.56,15.94l.89,3.15-2.43,2.19c-20.59,18.54-59.71,43.16-104.64,65.85-44.96,22.7-87.44,39.29-113.64,44.36l-3.72.72Zm104.32-202.01c-15.93,0-32.04,3.69-47.28,11.38-50.07,25.29-76.84,86.53-63.64,145.62,1.16,5.2,2.64,10.39,4.4,15.42.84,2.41,1.76,4.8,2.74,7.18,1.5,3.62,3.16,7.17,4.94,10.59,25.3-5.67,65.78-21.75,107.14-42.64,41.73-21.07,79.53-44.6,99.87-62.1-1.23-3.94-2.64-7.84-4.21-11.63h0c-.98-2.38-2.03-4.7-3.12-6.97-2.28-4.74-4.86-9.37-7.68-13.75-21.95-34.18-57.09-53.1-93.16-53.1Z"/>
        </g>
      </g>
    </g>
  </g>
</svg>